<svg width="448" height="249" viewBox="0 0 448 249" fill="none" xmlns="http://www.w3.org/2000/svg">
<rect width="448" height="249" fill="#633001"/>
<path d="M143 57L150.656 40.08H153.248L161 57H157.856L155.792 52.248L157.04 53.088H146.888L148.184 52.248L146.12 57H143ZM151.928 43.392L148.544 51.408L147.92 50.664H155.984L155.48 51.408L152.024 43.392H151.928ZM162.608 57V47.976C162.608 47.464 162.592 46.944 162.56 46.416C162.544 45.888 162.504 45.376 162.44 44.88H165.344L165.68 48.192H165.2C165.36 47.392 165.624 46.728 165.992 46.2C166.376 45.672 166.84 45.28 167.384 45.024C167.928 44.768 168.52 44.64 169.16 44.64C169.448 44.64 169.68 44.656 169.856 44.688C170.032 44.704 170.208 44.744 170.384 44.808L170.36 47.448C170.056 47.32 169.792 47.24 169.568 47.208C169.36 47.176 169.096 47.16 168.776 47.16C168.088 47.16 167.504 47.304 167.024 47.592C166.56 47.88 166.208 48.28 165.968 48.792C165.744 49.304 165.632 49.888 165.632 50.544V57H162.608ZM177.918 57.24C176.478 57.24 175.39 56.864 174.654 56.112C173.918 55.36 173.55 54.232 173.55 52.728V47.136H171.222V44.88H173.55V41.784L176.55 41.016V44.88H179.79V47.136H176.55V52.536C176.55 53.368 176.71 53.952 177.03 54.288C177.35 54.624 177.79 54.792 178.35 54.792C178.654 54.792 178.91 54.768 179.118 54.72C179.342 54.672 179.558 54.608 179.766 54.528V56.904C179.494 57.016 179.19 57.096 178.854 57.144C178.534 57.208 178.222 57.24 177.918 57.24ZM181.686 51.576V49.2H188.982V51.576H181.686ZM192.474 57V40.08H195.57V54.384H203.538V57H192.474ZM205.663 57V44.88H208.663V57H205.663ZM205.495 42.6V39.672H208.831V42.6H205.495ZM212.737 57V47.136H210.409V44.88H213.577L212.737 45.648V43.8C212.737 42.296 213.121 41.16 213.889 40.392C214.673 39.624 215.817 39.24 217.321 39.24C217.673 39.24 218.041 39.264 218.425 39.312C218.825 39.36 219.169 39.448 219.457 39.576V41.928C219.249 41.848 219.001 41.784 218.713 41.736C218.425 41.688 218.145 41.664 217.873 41.664C217.457 41.664 217.081 41.744 216.745 41.904C216.425 42.064 216.169 42.312 215.977 42.648C215.801 42.968 215.713 43.4 215.713 43.944V45.408L215.281 44.88H218.905V47.136H215.737V57H212.737ZM226.308 57.24C224.276 57.24 222.684 56.68 221.532 55.56C220.38 54.44 219.804 52.904 219.804 50.952C219.804 49.688 220.052 48.584 220.548 47.64C221.044 46.696 221.732 45.96 222.612 45.432C223.508 44.904 224.548 44.64 225.732 44.64C226.9 44.64 227.876 44.888 228.66 45.384C229.444 45.88 230.036 46.576 230.436 47.472C230.852 48.368 231.06 49.416 231.06 50.616V51.408H222.228V49.824H228.924L228.516 50.16C228.516 49.04 228.276 48.184 227.796 47.592C227.332 47 226.652 46.704 225.756 46.704C224.764 46.704 223.996 47.056 223.452 47.76C222.924 48.464 222.66 49.448 222.66 50.712V51.024C222.66 52.336 222.98 53.32 223.62 53.976C224.276 54.616 225.196 54.936 226.38 54.936C227.068 54.936 227.708 54.848 228.3 54.672C228.908 54.48 229.484 54.176 230.028 53.76L230.916 55.776C230.34 56.24 229.652 56.6 228.852 56.856C228.052 57.112 227.204 57.24 226.308 57.24ZM233.881 51.576V49.2H241.177V51.576H233.881ZM244.669 57V40.08H247.765V47.136H256.429V40.08H259.525V57H256.429V49.704H247.765V57H244.669ZM268.487 57.24C267.239 57.24 266.159 56.984 265.247 56.472C264.335 55.96 263.623 55.232 263.111 54.288C262.615 53.344 262.367 52.224 262.367 50.928C262.367 49.632 262.615 48.52 263.111 47.592C263.623 46.648 264.335 45.92 265.247 45.408C266.159 44.896 267.239 44.64 268.487 44.64C269.735 44.64 270.815 44.896 271.727 45.408C272.655 45.92 273.367 46.648 273.863 47.592C274.375 48.52 274.631 49.632 274.631 50.928C274.631 52.224 274.375 53.344 273.863 54.288C273.367 55.232 272.655 55.96 271.727 56.472C270.815 56.984 269.735 57.24 268.487 57.24ZM268.487 54.936C269.431 54.936 270.183 54.608 270.743 53.952C271.303 53.28 271.583 52.272 271.583 50.928C271.583 49.584 271.303 48.584 270.743 47.928C270.183 47.272 269.431 46.944 268.487 46.944C267.543 46.944 266.791 47.272 266.231 47.928C265.671 48.584 265.391 49.584 265.391 50.928C265.391 52.272 265.671 53.28 266.231 53.952C266.791 54.608 267.543 54.936 268.487 54.936ZM282.69 57.24C281.442 57.24 280.362 56.984 279.45 56.472C278.538 55.96 277.826 55.232 277.314 54.288C276.818 53.344 276.57 52.224 276.57 50.928C276.57 49.632 276.818 48.52 277.314 47.592C277.826 46.648 278.538 45.92 279.45 45.408C280.362 44.896 281.442 44.64 282.69 44.64C283.938 44.64 285.018 44.896 285.93 45.408C286.858 45.92 287.57 46.648 288.066 47.592C288.578 48.52 288.834 49.632 288.834 50.928C288.834 52.224 288.578 53.344 288.066 54.288C287.57 55.232 286.858 55.96 285.93 56.472C285.018 56.984 283.938 57.24 282.69 57.24ZM282.69 54.936C283.634 54.936 284.386 54.608 284.946 53.952C285.506 53.28 285.786 52.272 285.786 50.928C285.786 49.584 285.506 48.584 284.946 47.928C284.386 47.272 283.634 46.944 282.69 46.944C281.746 46.944 280.994 47.272 280.434 47.928C279.874 48.584 279.594 49.584 279.594 50.928C279.594 52.272 279.874 53.28 280.434 53.952C280.994 54.608 281.746 54.936 282.69 54.936ZM296.125 57.24C295.069 57.24 294.133 56.992 293.317 56.496C292.517 55.984 291.893 55.256 291.445 54.312C290.997 53.368 290.773 52.24 290.773 50.928C290.773 49.616 290.997 48.496 291.445 47.568C291.893 46.624 292.517 45.904 293.317 45.408C294.133 44.896 295.069 44.64 296.125 44.64C297.133 44.64 298.021 44.888 298.789 45.384C299.573 45.864 300.093 46.52 300.349 47.352H300.037V39.336H303.037V57H300.085V54.432H300.373C300.117 55.296 299.597 55.984 298.813 56.496C298.045 56.992 297.149 57.24 296.125 57.24ZM296.965 54.936C297.909 54.936 298.669 54.608 299.245 53.952C299.821 53.28 300.109 52.272 300.109 50.928C300.109 49.584 299.821 48.584 299.245 47.928C298.669 47.272 297.909 46.944 296.965 46.944C296.021 46.944 295.253 47.272 294.661 47.928C294.085 48.584 293.797 49.584 293.797 50.928C293.797 52.272 294.085 53.28 294.661 53.952C295.253 54.608 296.021 54.936 296.965 54.936Z" fill="#FFFCFC"/>
<path d="M139.746 114L144.77 102.72H146.194L151.298 114H149.586L148.194 110.8L148.898 111.248H142.066L142.818 110.8L141.426 114H139.746ZM145.458 104.544L143.026 110.288L142.642 109.92H148.322L148.002 110.288L145.522 104.544H145.458ZM157.911 117.456V107.872C157.911 107.563 157.895 107.248 157.863 106.928C157.841 106.597 157.815 106.267 157.783 105.936H159.351L159.511 107.76H159.335C159.505 107.152 159.847 106.672 160.359 106.32C160.881 105.968 161.5 105.792 162.215 105.792C162.929 105.792 163.553 105.963 164.087 106.304C164.62 106.635 165.031 107.109 165.319 107.728C165.617 108.347 165.767 109.093 165.767 109.968C165.767 110.832 165.617 111.579 165.319 112.208C165.031 112.837 164.62 113.317 164.087 113.648C163.553 113.979 162.929 114.144 162.215 114.144C161.511 114.144 160.897 113.973 160.375 113.632C159.863 113.28 159.521 112.805 159.351 112.208H159.527V117.456H157.911ZM161.815 112.88C162.519 112.88 163.079 112.635 163.495 112.144C163.921 111.653 164.135 110.928 164.135 109.968C164.135 109.008 163.921 108.288 163.495 107.808C163.079 107.317 162.519 107.072 161.815 107.072C161.111 107.072 160.545 107.317 160.119 107.808C159.703 108.288 159.495 109.008 159.495 109.968C159.495 110.928 159.703 111.653 160.119 112.144C160.545 112.635 161.111 112.88 161.815 112.88ZM168.161 114V102.224H169.777V114H168.161ZM175.733 114.144C175.018 114.144 174.394 113.979 173.861 113.648C173.328 113.317 172.912 112.837 172.613 112.208C172.325 111.579 172.181 110.832 172.181 109.968C172.181 109.093 172.325 108.347 172.613 107.728C172.912 107.109 173.328 106.635 173.861 106.304C174.394 105.963 175.018 105.792 175.733 105.792C176.437 105.792 177.05 105.968 177.573 106.32C178.096 106.672 178.442 107.152 178.613 107.76H178.437L178.597 105.936H180.165C180.133 106.267 180.101 106.597 180.069 106.928C180.048 107.248 180.037 107.563 180.037 107.872V114H178.421V112.208H178.597C178.426 112.805 178.074 113.28 177.541 113.632C177.018 113.973 176.416 114.144 175.733 114.144ZM176.133 112.88C176.826 112.88 177.381 112.635 177.797 112.144C178.224 111.653 178.437 110.928 178.437 109.968C178.437 109.008 178.224 108.288 177.797 107.808C177.381 107.317 176.826 107.072 176.133 107.072C175.429 107.072 174.864 107.317 174.437 107.808C174.021 108.288 173.813 109.008 173.813 109.968C173.813 110.928 174.021 111.653 174.437 112.144C174.853 112.635 175.418 112.88 176.133 112.88ZM186.431 114.144C185.62 114.144 184.911 113.979 184.303 113.648C183.706 113.307 183.242 112.821 182.911 112.192C182.591 111.552 182.431 110.795 182.431 109.92C182.431 109.056 182.596 108.315 182.927 107.696C183.258 107.077 183.722 106.608 184.319 106.288C184.916 105.957 185.62 105.792 186.431 105.792C186.954 105.792 187.46 105.883 187.951 106.064C188.442 106.235 188.847 106.48 189.167 106.8L188.639 107.936C188.34 107.648 188.004 107.435 187.631 107.296C187.258 107.147 186.895 107.072 186.543 107.072C185.775 107.072 185.172 107.317 184.735 107.808C184.298 108.299 184.079 109.008 184.079 109.936C184.079 110.875 184.298 111.595 184.735 112.096C185.172 112.597 185.775 112.848 186.543 112.848C186.884 112.848 187.242 112.784 187.615 112.656C187.988 112.517 188.33 112.299 188.639 112L189.167 113.136C188.836 113.456 188.42 113.707 187.919 113.888C187.428 114.059 186.932 114.144 186.431 114.144ZM194.951 114.144C193.65 114.144 192.626 113.776 191.879 113.04C191.132 112.304 190.759 111.285 190.759 109.984C190.759 109.141 190.919 108.405 191.239 107.776C191.57 107.147 192.023 106.661 192.599 106.32C193.186 105.968 193.863 105.792 194.631 105.792C195.388 105.792 196.023 105.952 196.535 106.272C197.047 106.592 197.436 107.045 197.703 107.632C197.97 108.208 198.103 108.891 198.103 109.68V110.192H192.023V109.264H196.999L196.727 109.472C196.727 108.672 196.546 108.053 196.183 107.616C195.831 107.168 195.319 106.944 194.647 106.944C193.9 106.944 193.324 107.205 192.919 107.728C192.514 108.24 192.311 108.949 192.311 109.856V110.016C192.311 110.965 192.54 111.68 192.999 112.16C193.468 112.64 194.13 112.88 194.983 112.88C195.452 112.88 195.89 112.816 196.295 112.688C196.711 112.549 197.106 112.325 197.479 112.016L198.007 113.12C197.634 113.451 197.18 113.707 196.647 113.888C196.114 114.059 195.548 114.144 194.951 114.144ZM207.415 114L204.359 105.936H206.039L208.423 112.656H208.007L210.455 105.936H211.703L214.135 112.656H213.735L216.119 105.936H217.735L214.663 114H213.191L210.663 107.152H211.415L208.919 114H207.415ZM219.723 114V102.224H221.339V107.648H221.115C221.35 107.04 221.728 106.581 222.251 106.272C222.774 105.952 223.376 105.792 224.059 105.792C225.019 105.792 225.734 106.059 226.203 106.592C226.672 107.115 226.907 107.909 226.907 108.976V114H225.291V109.072C225.291 108.379 225.152 107.877 224.875 107.568C224.608 107.248 224.182 107.088 223.595 107.088C222.912 107.088 222.363 107.301 221.947 107.728C221.542 108.144 221.339 108.699 221.339 109.392V114H219.723ZM233.435 114.144C232.134 114.144 231.11 113.776 230.363 113.04C229.617 112.304 229.243 111.285 229.243 109.984C229.243 109.141 229.403 108.405 229.723 107.776C230.054 107.147 230.507 106.661 231.083 106.32C231.67 105.968 232.347 105.792 233.115 105.792C233.873 105.792 234.507 105.952 235.019 106.272C235.531 106.592 235.921 107.045 236.187 107.632C236.454 108.208 236.587 108.891 236.587 109.68V110.192H230.507V109.264H235.483L235.211 109.472C235.211 108.672 235.03 108.053 234.667 107.616C234.315 107.168 233.803 106.944 233.131 106.944C232.385 106.944 231.809 107.205 231.403 107.728C230.998 108.24 230.795 108.949 230.795 109.856V110.016C230.795 110.965 231.025 111.68 231.483 112.16C231.953 112.64 232.614 112.88 233.467 112.88C233.937 112.88 234.374 112.816 234.779 112.688C235.195 112.549 235.59 112.325 235.963 112.016L236.491 113.12C236.118 113.451 235.665 113.707 235.131 113.888C234.598 114.059 234.033 114.144 233.435 114.144ZM238.91 114V107.936C238.91 107.605 238.899 107.275 238.878 106.944C238.867 106.603 238.846 106.267 238.814 105.936H240.382L240.558 108.016H240.302C240.408 107.515 240.59 107.099 240.846 106.768C241.102 106.437 241.411 106.192 241.774 106.032C242.147 105.872 242.536 105.792 242.942 105.792C243.112 105.792 243.256 105.803 243.374 105.824C243.491 105.835 243.608 105.856 243.726 105.888L243.71 107.328C243.528 107.253 243.368 107.211 243.23 107.2C243.102 107.179 242.942 107.168 242.75 107.168C242.28 107.168 241.88 107.275 241.55 107.488C241.219 107.691 240.968 107.968 240.798 108.32C240.627 108.672 240.542 109.051 240.542 109.456V114H238.91ZM249.092 114.144C247.79 114.144 246.766 113.776 246.02 113.04C245.273 112.304 244.9 111.285 244.9 109.984C244.9 109.141 245.06 108.405 245.38 107.776C245.71 107.147 246.164 106.661 246.74 106.32C247.326 105.968 248.004 105.792 248.772 105.792C249.529 105.792 250.164 105.952 250.676 106.272C251.188 106.592 251.577 107.045 251.844 107.632C252.11 108.208 252.244 108.891 252.244 109.68V110.192H246.164V109.264H251.14L250.868 109.472C250.868 108.672 250.686 108.053 250.324 107.616C249.972 107.168 249.46 106.944 248.788 106.944C248.041 106.944 247.465 107.205 247.06 107.728C246.654 108.24 246.452 108.949 246.452 109.856V110.016C246.452 110.965 246.681 111.68 247.14 112.16C247.609 112.64 248.27 112.88 249.124 112.88C249.593 112.88 250.03 112.816 250.436 112.688C250.852 112.549 251.246 112.325 251.62 112.016L252.148 113.12C251.774 113.451 251.321 113.707 250.788 113.888C250.254 114.059 249.689 114.144 249.092 114.144ZM258.34 114L263.364 102.72H264.788L269.892 114H268.18L266.788 110.8L267.492 111.248H260.66L261.412 110.8L260.02 114H258.34ZM264.052 104.544L261.62 110.288L261.236 109.92H266.916L266.596 110.288L264.116 104.544H264.052ZM271.707 114V107.936C271.707 107.605 271.696 107.275 271.675 106.944C271.664 106.603 271.643 106.267 271.611 105.936H273.179L273.355 108.016H273.099C273.205 107.515 273.387 107.099 273.643 106.768C273.899 106.437 274.208 106.192 274.571 106.032C274.944 105.872 275.333 105.792 275.739 105.792C275.909 105.792 276.053 105.803 276.171 105.824C276.288 105.835 276.405 105.856 276.523 105.888L276.507 107.328C276.325 107.253 276.165 107.211 276.027 107.2C275.899 107.179 275.739 107.168 275.547 107.168C275.077 107.168 274.677 107.275 274.347 107.488C274.016 107.691 273.765 107.968 273.595 108.32C273.424 108.672 273.339 109.051 273.339 109.456V114H271.707ZM281.843 114.144C280.969 114.144 280.307 113.909 279.859 113.44C279.411 112.96 279.187 112.245 279.187 111.296V107.184H277.619V105.936H279.187V103.808L280.803 103.376V105.936H283.043V107.184H280.803V111.152C280.803 111.749 280.91 112.176 281.123 112.432C281.337 112.688 281.646 112.816 282.051 112.816C282.254 112.816 282.43 112.8 282.579 112.768C282.739 112.725 282.883 112.677 283.011 112.624V113.936C282.851 114 282.665 114.048 282.451 114.08C282.238 114.123 282.035 114.144 281.843 114.144ZM287.788 114.144C287.116 114.144 286.497 114.059 285.932 113.888C285.367 113.717 284.897 113.477 284.524 113.168L285.02 112.064C285.415 112.363 285.852 112.587 286.332 112.736C286.812 112.885 287.303 112.96 287.804 112.96C288.391 112.96 288.833 112.859 289.132 112.656C289.431 112.443 289.58 112.155 289.58 111.792C289.58 111.515 289.484 111.291 289.292 111.12C289.111 110.949 288.807 110.821 288.38 110.736L286.844 110.432C286.161 110.283 285.644 110.027 285.292 109.664C284.94 109.301 284.764 108.837 284.764 108.272C284.764 107.792 284.892 107.365 285.148 106.992C285.415 106.619 285.788 106.325 286.268 106.112C286.759 105.899 287.329 105.792 287.98 105.792C288.577 105.792 289.132 105.877 289.644 106.048C290.156 106.219 290.583 106.464 290.924 106.784L290.412 107.856C290.081 107.579 289.708 107.365 289.292 107.216C288.876 107.056 288.455 106.976 288.028 106.976C287.431 106.976 286.988 107.088 286.7 107.312C286.412 107.536 286.268 107.829 286.268 108.192C286.268 108.469 286.353 108.699 286.524 108.88C286.705 109.051 286.988 109.184 287.372 109.28L288.908 109.584C289.633 109.733 290.177 109.979 290.54 110.32C290.903 110.661 291.084 111.12 291.084 111.696C291.084 112.197 290.945 112.635 290.668 113.008C290.391 113.381 290.007 113.664 289.516 113.856C289.025 114.048 288.449 114.144 287.788 114.144ZM307.55 114.144C307.06 113.952 306.596 113.701 306.158 113.392C305.721 113.083 305.337 112.768 305.006 112.448L305.374 112.464C304.905 112.987 304.345 113.397 303.694 113.696C303.044 113.995 302.345 114.144 301.598 114.144C300.798 114.144 300.11 114.021 299.534 113.776C298.969 113.531 298.532 113.189 298.222 112.752C297.924 112.315 297.774 111.803 297.774 111.216C297.774 110.48 297.988 109.856 298.414 109.344C298.841 108.832 299.438 108.336 300.206 107.856L300.734 107.536L300.494 107.84C300.014 107.339 299.662 106.88 299.438 106.464C299.214 106.037 299.102 105.595 299.102 105.136C299.102 104.624 299.225 104.176 299.47 103.792C299.716 103.408 300.057 103.109 300.494 102.896C300.942 102.683 301.47 102.576 302.078 102.576C302.857 102.576 303.492 102.789 303.982 103.216C304.484 103.632 304.734 104.208 304.734 104.944C304.734 105.328 304.654 105.696 304.494 106.048C304.345 106.389 304.089 106.72 303.726 107.04C303.374 107.36 302.894 107.696 302.286 108.048L302.334 107.712L305.294 110.864H304.958C305.236 110.416 305.449 109.888 305.598 109.28C305.748 108.661 305.838 108.005 305.87 107.312H307.246C307.225 108.197 307.097 109.029 306.862 109.808C306.628 110.576 306.313 111.253 305.918 111.84L305.902 111.408C306.18 111.707 306.51 111.995 306.894 112.272C307.278 112.549 307.694 112.784 308.142 112.976L307.55 114.144ZM301.662 112.864C302.26 112.864 302.788 112.752 303.246 112.528C303.716 112.293 304.121 111.952 304.462 111.504L304.43 111.92L301.006 108.352L301.646 108.368L301.166 108.656C300.761 108.912 300.425 109.168 300.158 109.424C299.892 109.669 299.694 109.925 299.566 110.192C299.438 110.459 299.374 110.768 299.374 111.12C299.374 111.664 299.566 112.091 299.95 112.4C300.345 112.709 300.916 112.864 301.662 112.864ZM302.078 103.712C301.63 103.712 301.268 103.84 300.99 104.096C300.724 104.352 300.59 104.693 300.59 105.12C300.59 105.333 300.628 105.536 300.702 105.728C300.777 105.92 300.905 106.133 301.086 106.368C301.268 106.592 301.513 106.869 301.822 107.2L301.406 107.232C302.11 106.827 302.622 106.459 302.942 106.128C303.262 105.797 303.422 105.424 303.422 105.008C303.422 104.613 303.3 104.299 303.054 104.064C302.809 103.829 302.484 103.712 302.078 103.712ZM100.767 138.144C99.6152 138.144 98.6339 137.909 97.8232 137.44C97.0125 136.971 96.3885 136.304 95.9512 135.44C95.5245 134.565 95.3112 133.536 95.3112 132.352C95.3112 131.168 95.5245 130.144 95.9512 129.28C96.3885 128.416 97.0125 127.749 97.8232 127.28C98.6339 126.811 99.6152 126.576 100.767 126.576C101.567 126.576 102.282 126.693 102.911 126.928C103.541 127.163 104.09 127.504 104.559 127.952L103.983 129.28C103.471 128.843 102.97 128.528 102.479 128.336C101.999 128.144 101.439 128.048 100.799 128.048C99.5832 128.048 98.6552 128.421 98.0152 129.168C97.3752 129.915 97.0552 130.976 97.0552 132.352C97.0552 133.728 97.3752 134.795 98.0152 135.552C98.6552 136.299 99.5832 136.672 100.799 136.672C101.439 136.672 101.999 136.576 102.479 136.384C102.97 136.192 103.471 135.872 103.983 135.424L104.559 136.752C104.09 137.2 103.541 137.547 102.911 137.792C102.282 138.027 101.567 138.144 100.767 138.144ZM109.898 138.144C109.098 138.144 108.404 137.979 107.818 137.648C107.231 137.307 106.778 136.827 106.458 136.208C106.138 135.579 105.978 134.832 105.978 133.968C105.978 133.104 106.138 132.363 106.458 131.744C106.778 131.115 107.231 130.635 107.818 130.304C108.404 129.963 109.098 129.792 109.898 129.792C110.698 129.792 111.391 129.963 111.978 130.304C112.575 130.635 113.034 131.115 113.354 131.744C113.684 132.363 113.85 133.104 113.85 133.968C113.85 134.832 113.684 135.579 113.354 136.208C113.034 136.827 112.575 137.307 111.978 137.648C111.391 137.979 110.698 138.144 109.898 138.144ZM109.898 136.88C110.602 136.88 111.162 136.635 111.578 136.144C111.994 135.653 112.202 134.928 112.202 133.968C112.202 133.008 111.994 132.288 111.578 131.808C111.162 131.317 110.602 131.072 109.898 131.072C109.204 131.072 108.65 131.317 108.234 131.808C107.818 132.288 107.61 133.008 107.61 133.968C107.61 134.928 107.812 135.653 108.218 136.144C108.634 136.635 109.194 136.88 109.898 136.88ZM116.239 138V131.872C116.239 131.563 116.223 131.248 116.191 130.928C116.169 130.597 116.143 130.267 116.111 129.936H117.679L117.823 131.632H117.631C117.855 131.045 118.196 130.592 118.655 130.272C119.124 129.952 119.684 129.792 120.335 129.792C120.996 129.792 121.535 129.952 121.951 130.272C122.377 130.581 122.671 131.061 122.831 131.712H122.575C122.788 131.125 123.151 130.661 123.663 130.32C124.175 129.968 124.767 129.792 125.439 129.792C126.335 129.792 127.007 130.053 127.455 130.576C127.903 131.099 128.127 131.909 128.127 133.008V138H126.511V133.088C126.511 132.384 126.388 131.877 126.143 131.568C125.908 131.248 125.524 131.088 124.991 131.088C124.372 131.088 123.881 131.301 123.519 131.728C123.156 132.155 122.975 132.731 122.975 133.456V138H121.359V133.088C121.359 132.384 121.236 131.877 120.991 131.568C120.756 131.248 120.372 131.088 119.839 131.088C119.22 131.088 118.735 131.301 118.383 131.728C118.031 132.155 117.855 132.731 117.855 133.456V138H116.239ZM130.942 138V131.872C130.942 131.563 130.926 131.248 130.894 130.928C130.872 130.597 130.846 130.267 130.814 129.936H132.382L132.526 131.632H132.334C132.558 131.045 132.899 130.592 133.358 130.272C133.827 129.952 134.387 129.792 135.038 129.792C135.699 129.792 136.238 129.952 136.654 130.272C137.08 130.581 137.374 131.061 137.534 131.712H137.278C137.491 131.125 137.854 130.661 138.366 130.32C138.878 129.968 139.47 129.792 140.142 129.792C141.038 129.792 141.71 130.053 142.158 130.576C142.606 131.099 142.83 131.909 142.83 133.008V138H141.214V133.088C141.214 132.384 141.091 131.877 140.846 131.568C140.611 131.248 140.227 131.088 139.694 131.088C139.075 131.088 138.584 131.301 138.222 131.728C137.859 132.155 137.678 132.731 137.678 133.456V138H136.062V133.088C136.062 132.384 135.939 131.877 135.694 131.568C135.459 131.248 135.075 131.088 134.542 131.088C133.923 131.088 133.438 131.301 133.086 131.728C132.734 132.155 132.558 132.731 132.558 133.456V138H130.942ZM148.509 138.144C147.538 138.144 146.808 137.883 146.317 137.36C145.837 136.827 145.597 136.011 145.597 134.912V129.936H147.213V134.88C147.213 135.552 147.352 136.048 147.629 136.368C147.906 136.688 148.328 136.848 148.893 136.848C149.533 136.848 150.05 136.635 150.445 136.208C150.84 135.781 151.037 135.216 151.037 134.512V129.936H152.653V138H151.085V136.272H151.293C151.069 136.869 150.712 137.333 150.221 137.664C149.73 137.984 149.16 138.144 148.509 138.144ZM155.52 138V131.872C155.52 131.563 155.504 131.248 155.472 130.928C155.451 130.597 155.424 130.267 155.392 129.936H156.96L157.104 131.632H156.912C157.157 131.035 157.536 130.581 158.048 130.272C158.56 129.952 159.152 129.792 159.824 129.792C160.773 129.792 161.488 130.053 161.968 130.576C162.459 131.099 162.704 131.909 162.704 133.008V138H161.088V133.104C161.088 132.389 160.944 131.877 160.656 131.568C160.379 131.248 159.952 131.088 159.376 131.088C158.693 131.088 158.149 131.301 157.744 131.728C157.339 132.144 157.136 132.709 157.136 133.424V138H155.52ZM165.504 138V129.936H167.12V138H165.504ZM165.376 128.256V126.576H167.248V128.256H165.376ZM173.125 138.144C172.25 138.144 171.589 137.909 171.141 137.44C170.693 136.96 170.469 136.245 170.469 135.296V131.184H168.901V129.936H170.469V127.808L172.085 127.376V129.936H174.325V131.184H172.085V135.152C172.085 135.749 172.191 136.176 172.405 136.432C172.618 136.688 172.927 136.816 173.333 136.816C173.535 136.816 173.711 136.8 173.861 136.768C174.021 136.725 174.165 136.677 174.293 136.624V137.936C174.133 138 173.946 138.048 173.733 138.08C173.519 138.123 173.317 138.144 173.125 138.144ZM176.171 141.632L175.787 140.32C176.288 140.213 176.704 140.085 177.035 139.936C177.376 139.787 177.659 139.589 177.883 139.344C178.107 139.109 178.299 138.805 178.459 138.432L178.859 137.488L178.827 138.144L175.323 129.936H177.051L179.771 136.656H179.339L182.059 129.936H183.723L180.027 138.576C179.792 139.109 179.541 139.557 179.275 139.92C179.008 140.283 178.72 140.576 178.411 140.8C178.101 141.024 177.76 141.2 177.387 141.328C177.013 141.456 176.608 141.557 176.171 141.632ZM193.982 138.144C192.681 138.144 191.657 137.776 190.91 137.04C190.164 136.304 189.79 135.285 189.79 133.984C189.79 133.141 189.95 132.405 190.27 131.776C190.601 131.147 191.054 130.661 191.63 130.32C192.217 129.968 192.894 129.792 193.662 129.792C194.42 129.792 195.054 129.952 195.566 130.272C196.078 130.592 196.468 131.045 196.734 131.632C197.001 132.208 197.134 132.891 197.134 133.68V134.192H191.054V133.264H196.03L195.758 133.472C195.758 132.672 195.577 132.053 195.214 131.616C194.862 131.168 194.35 130.944 193.678 130.944C192.932 130.944 192.356 131.205 191.95 131.728C191.545 132.24 191.342 132.949 191.342 133.856V134.016C191.342 134.965 191.572 135.68 192.03 136.16C192.5 136.64 193.161 136.88 194.014 136.88C194.484 136.88 194.921 136.816 195.326 136.688C195.742 136.549 196.137 136.325 196.51 136.016L197.038 137.12C196.665 137.451 196.212 137.707 195.678 137.888C195.145 138.059 194.58 138.144 193.982 138.144ZM199.489 138V131.872C199.489 131.563 199.473 131.248 199.441 130.928C199.419 130.597 199.393 130.267 199.361 129.936H200.929L201.073 131.632H200.881C201.126 131.035 201.505 130.581 202.017 130.272C202.529 129.952 203.121 129.792 203.793 129.792C204.742 129.792 205.457 130.053 205.937 130.576C206.427 131.099 206.673 131.909 206.673 133.008V138H205.057V133.104C205.057 132.389 204.913 131.877 204.625 131.568C204.347 131.248 203.921 131.088 203.345 131.088C202.662 131.088 202.118 131.301 201.713 131.728C201.307 132.144 201.105 132.709 201.105 133.424V138H199.489ZM213.105 141.584C212.38 141.584 211.718 141.499 211.121 141.328C210.534 141.157 210.006 140.901 209.537 140.56L209.937 139.376C210.268 139.6 210.593 139.776 210.913 139.904C211.233 140.043 211.569 140.144 211.921 140.208C212.273 140.272 212.636 140.304 213.009 140.304C213.777 140.304 214.353 140.107 214.737 139.712C215.132 139.328 215.329 138.768 215.329 138.032V135.872H215.489C215.318 136.469 214.966 136.944 214.433 137.296C213.91 137.637 213.302 137.808 212.609 137.808C211.873 137.808 211.233 137.648 210.689 137.328C210.156 136.997 209.74 136.533 209.441 135.936C209.153 135.328 209.009 134.613 209.009 133.792C209.009 132.971 209.153 132.261 209.441 131.664C209.74 131.067 210.156 130.608 210.689 130.288C211.233 129.957 211.873 129.792 212.609 129.792C213.313 129.792 213.921 129.968 214.433 130.32C214.956 130.661 215.302 131.131 215.473 131.728L215.329 131.6L215.473 129.936H217.041C216.998 130.267 216.966 130.597 216.945 130.928C216.924 131.248 216.913 131.563 216.913 131.872V137.84C216.913 139.056 216.588 139.984 215.937 140.624C215.297 141.264 214.353 141.584 213.105 141.584ZM212.993 136.544C213.697 136.544 214.257 136.304 214.673 135.824C215.1 135.344 215.313 134.667 215.313 133.792C215.313 132.917 215.1 132.245 214.673 131.776C214.257 131.307 213.697 131.072 212.993 131.072C212.268 131.072 211.692 131.307 211.265 131.776C210.849 132.245 210.641 132.917 210.641 133.792C210.641 134.667 210.849 135.344 211.265 135.824C211.692 136.304 212.268 136.544 212.993 136.544ZM222.858 138.144C222.143 138.144 221.519 137.979 220.986 137.648C220.453 137.317 220.037 136.837 219.738 136.208C219.45 135.579 219.306 134.832 219.306 133.968C219.306 133.093 219.45 132.347 219.738 131.728C220.037 131.109 220.453 130.635 220.986 130.304C221.519 129.963 222.143 129.792 222.858 129.792C223.562 129.792 224.175 129.968 224.698 130.32C225.221 130.672 225.567 131.152 225.738 131.76H225.562L225.722 129.936H227.29C227.258 130.267 227.226 130.597 227.194 130.928C227.173 131.248 227.162 131.563 227.162 131.872V138H225.546V136.208H225.722C225.551 136.805 225.199 137.28 224.666 137.632C224.143 137.973 223.541 138.144 222.858 138.144ZM223.258 136.88C223.951 136.88 224.506 136.635 224.922 136.144C225.349 135.653 225.562 134.928 225.562 133.968C225.562 133.008 225.349 132.288 224.922 131.808C224.506 131.317 223.951 131.072 223.258 131.072C222.554 131.072 221.989 131.317 221.562 131.808C221.146 132.288 220.938 133.008 220.938 133.968C220.938 134.928 221.146 135.653 221.562 136.144C221.978 136.635 222.543 136.88 223.258 136.88ZM233.652 141.584C232.927 141.584 232.265 141.499 231.668 141.328C231.081 141.157 230.553 140.901 230.084 140.56L230.484 139.376C230.815 139.6 231.14 139.776 231.46 139.904C231.78 140.043 232.116 140.144 232.468 140.208C232.82 140.272 233.183 140.304 233.556 140.304C234.324 140.304 234.9 140.107 235.284 139.712C235.679 139.328 235.876 138.768 235.876 138.032V135.872H236.036C235.865 136.469 235.513 136.944 234.98 137.296C234.457 137.637 233.849 137.808 233.156 137.808C232.42 137.808 231.78 137.648 231.236 137.328C230.703 136.997 230.287 136.533 229.988 135.936C229.7 135.328 229.556 134.613 229.556 133.792C229.556 132.971 229.7 132.261 229.988 131.664C230.287 131.067 230.703 130.608 231.236 130.288C231.78 129.957 232.42 129.792 233.156 129.792C233.86 129.792 234.468 129.968 234.98 130.32C235.503 130.661 235.849 131.131 236.02 131.728L235.876 131.6L236.02 129.936H237.588C237.545 130.267 237.513 130.597 237.492 130.928C237.471 131.248 237.46 131.563 237.46 131.872V137.84C237.46 139.056 237.135 139.984 236.484 140.624C235.844 141.264 234.9 141.584 233.652 141.584ZM233.54 136.544C234.244 136.544 234.804 136.304 235.22 135.824C235.647 135.344 235.86 134.667 235.86 133.792C235.86 132.917 235.647 132.245 235.22 131.776C234.804 131.307 234.244 131.072 233.54 131.072C232.815 131.072 232.239 131.307 231.812 131.776C231.396 132.245 231.188 132.917 231.188 133.792C231.188 134.667 231.396 135.344 231.812 135.824C232.239 136.304 232.815 136.544 233.54 136.544ZM244.045 138.144C242.743 138.144 241.719 137.776 240.973 137.04C240.226 136.304 239.853 135.285 239.853 133.984C239.853 133.141 240.013 132.405 240.333 131.776C240.663 131.147 241.117 130.661 241.693 130.32C242.279 129.968 242.957 129.792 243.725 129.792C244.482 129.792 245.117 129.952 245.629 130.272C246.141 130.592 246.53 131.045 246.797 131.632C247.063 132.208 247.197 132.891 247.197 133.68V134.192H241.117V133.264H246.093L245.821 133.472C245.821 132.672 245.639 132.053 245.277 131.616C244.925 131.168 244.413 130.944 243.741 130.944C242.994 130.944 242.418 131.205 242.013 131.728C241.607 132.24 241.405 132.949 241.405 133.856V134.016C241.405 134.965 241.634 135.68 242.093 136.16C242.562 136.64 243.223 136.88 244.077 136.88C244.546 136.88 244.983 136.816 245.389 136.688C245.805 136.549 246.199 136.325 246.573 136.016L247.101 137.12C246.727 137.451 246.274 137.707 245.741 137.888C245.207 138.059 244.642 138.144 244.045 138.144ZM249.551 138V131.872C249.551 131.563 249.535 131.248 249.503 130.928C249.482 130.597 249.455 130.267 249.423 129.936H250.991L251.135 131.632H250.943C251.167 131.045 251.509 130.592 251.967 130.272C252.437 129.952 252.997 129.792 253.647 129.792C254.309 129.792 254.847 129.952 255.263 130.272C255.69 130.581 255.983 131.061 256.143 131.712H255.887C256.101 131.125 256.463 130.661 256.975 130.32C257.487 129.968 258.079 129.792 258.751 129.792C259.647 129.792 260.319 130.053 260.767 130.576C261.215 131.099 261.439 131.909 261.439 133.008V138H259.823V133.088C259.823 132.384 259.701 131.877 259.455 131.568C259.221 131.248 258.837 131.088 258.303 131.088C257.685 131.088 257.194 131.301 256.831 131.728C256.469 132.155 256.287 132.731 256.287 133.456V138H254.671V133.088C254.671 132.384 254.549 131.877 254.303 131.568C254.069 131.248 253.685 131.088 253.151 131.088C252.533 131.088 252.047 131.301 251.695 131.728C251.343 132.155 251.167 132.731 251.167 133.456V138H249.551ZM267.982 138.144C266.681 138.144 265.657 137.776 264.91 137.04C264.164 136.304 263.79 135.285 263.79 133.984C263.79 133.141 263.95 132.405 264.27 131.776C264.601 131.147 265.054 130.661 265.63 130.32C266.217 129.968 266.894 129.792 267.662 129.792C268.42 129.792 269.054 129.952 269.566 130.272C270.078 130.592 270.468 131.045 270.734 131.632C271.001 132.208 271.134 132.891 271.134 133.68V134.192H265.054V133.264H270.03L269.758 133.472C269.758 132.672 269.577 132.053 269.214 131.616C268.862 131.168 268.35 130.944 267.678 130.944C266.932 130.944 266.356 131.205 265.95 131.728C265.545 132.24 265.342 132.949 265.342 133.856V134.016C265.342 134.965 265.572 135.68 266.03 136.16C266.5 136.64 267.161 136.88 268.014 136.88C268.484 136.88 268.921 136.816 269.326 136.688C269.742 136.549 270.137 136.325 270.51 136.016L271.038 137.12C270.665 137.451 270.212 137.707 269.678 137.888C269.145 138.059 268.58 138.144 267.982 138.144ZM273.489 138V131.872C273.489 131.563 273.473 131.248 273.441 130.928C273.419 130.597 273.393 130.267 273.361 129.936H274.929L275.073 131.632H274.881C275.126 131.035 275.505 130.581 276.017 130.272C276.529 129.952 277.121 129.792 277.793 129.792C278.742 129.792 279.457 130.053 279.937 130.576C280.427 131.099 280.673 131.909 280.673 133.008V138H279.057V133.104C279.057 132.389 278.913 131.877 278.625 131.568C278.347 131.248 277.921 131.088 277.345 131.088C276.662 131.088 276.118 131.301 275.713 131.728C275.307 132.144 275.105 132.709 275.105 133.424V138H273.489ZM286.609 138.144C285.734 138.144 285.073 137.909 284.625 137.44C284.177 136.96 283.953 136.245 283.953 135.296V131.184H282.385V129.936H283.953V127.808L285.569 127.376V129.936H287.809V131.184H285.569V135.152C285.569 135.749 285.676 136.176 285.889 136.432C286.102 136.688 286.412 136.816 286.817 136.816C287.02 136.816 287.196 136.8 287.345 136.768C287.505 136.725 287.649 136.677 287.777 136.624V137.936C287.617 138 287.43 138.048 287.217 138.08C287.004 138.123 286.801 138.144 286.609 138.144ZM294.551 138V131.872C294.551 131.563 294.535 131.248 294.503 130.928C294.482 130.597 294.455 130.267 294.423 129.936H295.991L296.135 131.632H295.943C296.167 131.045 296.509 130.592 296.967 130.272C297.437 129.952 297.997 129.792 298.647 129.792C299.309 129.792 299.847 129.952 300.263 130.272C300.69 130.581 300.983 131.061 301.143 131.712H300.887C301.101 131.125 301.463 130.661 301.975 130.32C302.487 129.968 303.079 129.792 303.751 129.792C304.647 129.792 305.319 130.053 305.767 130.576C306.215 131.099 306.439 131.909 306.439 133.008V138H304.823V133.088C304.823 132.384 304.701 131.877 304.455 131.568C304.221 131.248 303.837 131.088 303.303 131.088C302.685 131.088 302.194 131.301 301.831 131.728C301.469 132.155 301.287 132.731 301.287 133.456V138H299.671V133.088C299.671 132.384 299.549 131.877 299.303 131.568C299.069 131.248 298.685 131.088 298.151 131.088C297.533 131.088 297.047 131.301 296.695 131.728C296.343 132.155 296.167 132.731 296.167 133.456V138H294.551ZM312.982 138.144C311.681 138.144 310.657 137.776 309.91 137.04C309.164 136.304 308.79 135.285 308.79 133.984C308.79 133.141 308.95 132.405 309.27 131.776C309.601 131.147 310.054 130.661 310.63 130.32C311.217 129.968 311.894 129.792 312.662 129.792C313.42 129.792 314.054 129.952 314.566 130.272C315.078 130.592 315.468 131.045 315.734 131.632C316.001 132.208 316.134 132.891 316.134 133.68V134.192H310.054V133.264H315.03L314.758 133.472C314.758 132.672 314.577 132.053 314.214 131.616C313.862 131.168 313.35 130.944 312.678 130.944C311.932 130.944 311.356 131.205 310.95 131.728C310.545 132.24 310.342 132.949 310.342 133.856V134.016C310.342 134.965 310.572 135.68 311.03 136.16C311.5 136.64 312.161 136.88 313.014 136.88C313.484 136.88 313.921 136.816 314.326 136.688C314.742 136.549 315.137 136.325 315.51 136.016L316.038 137.12C315.665 137.451 315.212 137.707 314.678 137.888C314.145 138.059 313.58 138.144 312.982 138.144ZM322.217 138.144C320.915 138.144 319.891 137.776 319.145 137.04C318.398 136.304 318.025 135.285 318.025 133.984C318.025 133.141 318.185 132.405 318.505 131.776C318.835 131.147 319.289 130.661 319.865 130.32C320.451 129.968 321.129 129.792 321.897 129.792C322.654 129.792 323.289 129.952 323.801 130.272C324.313 130.592 324.702 131.045 324.969 131.632C325.235 132.208 325.369 132.891 325.369 133.68V134.192H319.289V133.264H324.265L323.993 133.472C323.993 132.672 323.811 132.053 323.449 131.616C323.097 131.168 322.585 130.944 321.913 130.944C321.166 130.944 320.59 131.205 320.185 131.728C319.779 132.24 319.577 132.949 319.577 133.856V134.016C319.577 134.965 319.806 135.68 320.265 136.16C320.734 136.64 321.395 136.88 322.249 136.88C322.718 136.88 323.155 136.816 323.561 136.688C323.977 136.549 324.371 136.325 324.745 136.016L325.273 137.12C324.899 137.451 324.446 137.707 323.913 137.888C323.379 138.059 322.814 138.144 322.217 138.144ZM330.843 138.144C329.969 138.144 329.307 137.909 328.859 137.44C328.411 136.96 328.187 136.245 328.187 135.296V131.184H326.619V129.936H328.187V127.808L329.803 127.376V129.936H332.043V131.184H329.803V135.152C329.803 135.749 329.91 136.176 330.123 136.432C330.337 136.688 330.646 136.816 331.051 136.816C331.254 136.816 331.43 136.8 331.579 136.768C331.739 136.725 331.883 136.677 332.011 136.624V137.936C331.851 138 331.665 138.048 331.451 138.08C331.238 138.123 331.035 138.144 330.843 138.144ZM341.922 138.144C341.047 138.144 340.386 137.909 339.938 137.44C339.49 136.96 339.266 136.245 339.266 135.296V131.184H337.698V129.936H339.266V127.808L340.882 127.376V129.936H343.122V131.184H340.882V135.152C340.882 135.749 340.988 136.176 341.202 136.432C341.415 136.688 341.724 136.816 342.13 136.816C342.332 136.816 342.508 136.8 342.658 136.768C342.818 136.725 342.962 136.677 343.09 136.624V137.936C342.93 138 342.743 138.048 342.53 138.08C342.316 138.123 342.114 138.144 341.922 138.144ZM348.476 138.144C347.676 138.144 346.983 137.979 346.396 137.648C345.809 137.307 345.356 136.827 345.036 136.208C344.716 135.579 344.556 134.832 344.556 133.968C344.556 133.104 344.716 132.363 345.036 131.744C345.356 131.115 345.809 130.635 346.396 130.304C346.983 129.963 347.676 129.792 348.476 129.792C349.276 129.792 349.969 129.963 350.556 130.304C351.153 130.635 351.612 131.115 351.932 131.744C352.263 132.363 352.428 133.104 352.428 133.968C352.428 134.832 352.263 135.579 351.932 136.208C351.612 136.827 351.153 137.307 350.556 137.648C349.969 137.979 349.276 138.144 348.476 138.144ZM348.476 136.88C349.18 136.88 349.74 136.635 350.156 136.144C350.572 135.653 350.78 134.928 350.78 133.968C350.78 133.008 350.572 132.288 350.156 131.808C349.74 131.317 349.18 131.072 348.476 131.072C347.783 131.072 347.228 131.317 346.812 131.808C346.396 132.288 346.188 133.008 346.188 133.968C346.188 134.928 346.391 135.653 346.796 136.144C347.212 136.635 347.772 136.88 348.476 136.88ZM139.215 162V153.936H140.831V162H139.215ZM139.087 152.256V150.576H140.959V152.256H139.087ZM143.7 162V155.872C143.7 155.563 143.684 155.248 143.652 154.928C143.63 154.597 143.604 154.267 143.572 153.936H145.14L145.284 155.632H145.092C145.337 155.035 145.716 154.581 146.228 154.272C146.74 153.952 147.332 153.792 148.004 153.792C148.953 153.792 149.668 154.053 150.148 154.576C150.638 155.099 150.884 155.909 150.884 157.008V162H149.268V157.104C149.268 156.389 149.124 155.877 148.836 155.568C148.558 155.248 148.132 155.088 147.556 155.088C146.873 155.088 146.329 155.301 145.924 155.728C145.518 156.144 145.316 156.709 145.316 157.424V162H143.7ZM157.22 162.144C156.409 162.144 155.7 161.979 155.092 161.648C154.495 161.307 154.031 160.821 153.7 160.192C153.38 159.552 153.22 158.795 153.22 157.92C153.22 157.056 153.385 156.315 153.716 155.696C154.047 155.077 154.511 154.608 155.108 154.288C155.705 153.957 156.409 153.792 157.22 153.792C157.743 153.792 158.249 153.883 158.74 154.064C159.231 154.235 159.636 154.48 159.956 154.8L159.428 155.936C159.129 155.648 158.793 155.435 158.42 155.296C158.047 155.147 157.684 155.072 157.332 155.072C156.564 155.072 155.961 155.317 155.524 155.808C155.087 156.299 154.868 157.008 154.868 157.936C154.868 158.875 155.087 159.595 155.524 160.096C155.961 160.597 156.564 160.848 157.332 160.848C157.673 160.848 158.031 160.784 158.404 160.656C158.777 160.517 159.119 160.299 159.428 160L159.956 161.136C159.625 161.456 159.209 161.707 158.708 161.888C158.217 162.059 157.721 162.144 157.22 162.144ZM162.136 162V155.936C162.136 155.605 162.126 155.275 162.104 154.944C162.094 154.603 162.072 154.267 162.04 153.936H163.608L163.784 156.016H163.528C163.635 155.515 163.816 155.099 164.072 154.768C164.328 154.437 164.638 154.192 165 154.032C165.374 153.872 165.763 153.792 166.168 153.792C166.339 153.792 166.483 153.803 166.6 153.824C166.718 153.835 166.835 153.856 166.952 153.888L166.936 155.328C166.755 155.253 166.595 155.211 166.456 155.2C166.328 155.179 166.168 155.168 165.976 155.168C165.507 155.168 165.107 155.275 164.776 155.488C164.446 155.691 164.195 155.968 164.024 156.32C163.854 156.672 163.768 157.051 163.768 157.456V162H162.136ZM172.318 162.144C171.017 162.144 169.993 161.776 169.246 161.04C168.5 160.304 168.126 159.285 168.126 157.984C168.126 157.141 168.286 156.405 168.606 155.776C168.937 155.147 169.39 154.661 169.966 154.32C170.553 153.968 171.23 153.792 171.998 153.792C172.756 153.792 173.39 153.952 173.902 154.272C174.414 154.592 174.804 155.045 175.07 155.632C175.337 156.208 175.47 156.891 175.47 157.68V158.192H169.39V157.264H174.366L174.094 157.472C174.094 156.672 173.913 156.053 173.55 155.616C173.198 155.168 172.686 154.944 172.014 154.944C171.268 154.944 170.692 155.205 170.286 155.728C169.881 156.24 169.678 156.949 169.678 157.856V158.016C169.678 158.965 169.908 159.68 170.366 160.16C170.836 160.64 171.497 160.88 172.35 160.88C172.82 160.88 173.257 160.816 173.662 160.688C174.078 160.549 174.473 160.325 174.846 160.016L175.374 161.12C175.001 161.451 174.548 161.707 174.014 161.888C173.481 162.059 172.916 162.144 172.318 162.144ZM180.913 162.144C180.198 162.144 179.574 161.979 179.041 161.648C178.507 161.317 178.091 160.837 177.793 160.208C177.505 159.579 177.361 158.832 177.361 157.968C177.361 157.093 177.505 156.347 177.793 155.728C178.091 155.109 178.507 154.635 179.041 154.304C179.574 153.963 180.198 153.792 180.913 153.792C181.617 153.792 182.23 153.968 182.753 154.32C183.275 154.672 183.622 155.152 183.793 155.76H183.617L183.777 153.936H185.345C185.313 154.267 185.281 154.597 185.249 154.928C185.227 155.248 185.217 155.563 185.217 155.872V162H183.601V160.208H183.777C183.606 160.805 183.254 161.28 182.721 161.632C182.198 161.973 181.595 162.144 180.913 162.144ZM181.313 160.88C182.006 160.88 182.561 160.635 182.977 160.144C183.403 159.653 183.617 158.928 183.617 157.968C183.617 157.008 183.403 156.288 182.977 155.808C182.561 155.317 182.006 155.072 181.313 155.072C180.609 155.072 180.043 155.317 179.617 155.808C179.201 156.288 178.993 157.008 178.993 157.968C178.993 158.928 179.201 159.653 179.617 160.144C180.033 160.635 180.598 160.88 181.313 160.88ZM190.843 162.144C190.171 162.144 189.552 162.059 188.987 161.888C188.421 161.717 187.952 161.477 187.579 161.168L188.075 160.064C188.469 160.363 188.907 160.587 189.387 160.736C189.867 160.885 190.357 160.96 190.859 160.96C191.445 160.96 191.888 160.859 192.187 160.656C192.485 160.443 192.635 160.155 192.635 159.792C192.635 159.515 192.539 159.291 192.347 159.12C192.165 158.949 191.861 158.821 191.435 158.736L189.899 158.432C189.216 158.283 188.699 158.027 188.347 157.664C187.995 157.301 187.819 156.837 187.819 156.272C187.819 155.792 187.947 155.365 188.203 154.992C188.469 154.619 188.843 154.325 189.323 154.112C189.813 153.899 190.384 153.792 191.035 153.792C191.632 153.792 192.187 153.877 192.699 154.048C193.211 154.219 193.637 154.464 193.979 154.784L193.467 155.856C193.136 155.579 192.763 155.365 192.347 155.216C191.931 155.056 191.509 154.976 191.083 154.976C190.485 154.976 190.043 155.088 189.755 155.312C189.467 155.536 189.323 155.829 189.323 156.192C189.323 156.469 189.408 156.699 189.579 156.88C189.76 157.051 190.043 157.184 190.427 157.28L191.963 157.584C192.688 157.733 193.232 157.979 193.595 158.32C193.957 158.661 194.139 159.12 194.139 159.696C194.139 160.197 194 160.635 193.723 161.008C193.445 161.381 193.061 161.664 192.571 161.856C192.08 162.048 191.504 162.144 190.843 162.144ZM200.271 162.144C198.97 162.144 197.946 161.776 197.199 161.04C196.453 160.304 196.079 159.285 196.079 157.984C196.079 157.141 196.239 156.405 196.559 155.776C196.89 155.147 197.343 154.661 197.919 154.32C198.506 153.968 199.183 153.792 199.951 153.792C200.709 153.792 201.343 153.952 201.855 154.272C202.367 154.592 202.757 155.045 203.023 155.632C203.29 156.208 203.423 156.891 203.423 157.68V158.192H197.343V157.264H202.319L202.047 157.472C202.047 156.672 201.866 156.053 201.503 155.616C201.151 155.168 200.639 154.944 199.967 154.944C199.221 154.944 198.645 155.205 198.239 155.728C197.834 156.24 197.631 156.949 197.631 157.856V158.016C197.631 158.965 197.861 159.68 198.319 160.16C198.789 160.64 199.45 160.88 200.303 160.88C200.773 160.88 201.21 160.816 201.615 160.688C202.031 160.549 202.426 160.325 202.799 160.016L203.327 161.12C202.954 161.451 202.501 161.707 201.967 161.888C201.434 162.059 200.869 162.144 200.271 162.144ZM213.631 162.144C212.917 162.144 212.293 161.979 211.759 161.648C211.226 161.317 210.81 160.837 210.511 160.208C210.223 159.579 210.079 158.832 210.079 157.968C210.079 157.093 210.223 156.347 210.511 155.728C210.81 155.109 211.226 154.635 211.759 154.304C212.293 153.963 212.917 153.792 213.631 153.792C214.335 153.792 214.949 153.968 215.471 154.32C215.994 154.672 216.341 155.152 216.511 155.76H216.335L216.495 153.936H218.063C218.031 154.267 217.999 154.597 217.967 154.928C217.946 155.248 217.935 155.563 217.935 155.872V162H216.319V160.208H216.495C216.325 160.805 215.973 161.28 215.439 161.632C214.917 161.973 214.314 162.144 213.631 162.144ZM214.031 160.88C214.725 160.88 215.279 160.635 215.695 160.144C216.122 159.653 216.335 158.928 216.335 157.968C216.335 157.008 216.122 156.288 215.695 155.808C215.279 155.317 214.725 155.072 214.031 155.072C213.327 155.072 212.762 155.317 212.335 155.808C211.919 156.288 211.711 157.008 211.711 157.968C211.711 158.928 211.919 159.653 212.335 160.144C212.751 160.635 213.317 160.88 214.031 160.88ZM220.761 162V155.936C220.761 155.605 220.751 155.275 220.729 154.944C220.719 154.603 220.697 154.267 220.665 153.936H222.233L222.409 156.016H222.153C222.26 155.515 222.441 155.099 222.697 154.768C222.953 154.437 223.263 154.192 223.625 154.032C223.999 153.872 224.388 153.792 224.793 153.792C224.964 153.792 225.108 153.803 225.225 153.824C225.343 153.835 225.46 153.856 225.577 153.888L225.561 155.328C225.38 155.253 225.22 155.211 225.081 155.2C224.953 155.179 224.793 155.168 224.601 155.168C224.132 155.168 223.732 155.275 223.401 155.488C223.071 155.691 222.82 155.968 222.649 156.32C222.479 156.672 222.393 157.051 222.393 157.456V162H220.761ZM230.898 162.144C230.023 162.144 229.362 161.909 228.914 161.44C228.466 160.96 228.242 160.245 228.242 159.296V155.184H226.674V153.936H228.242V151.808L229.858 151.376V153.936H232.098V155.184H229.858V159.152C229.858 159.749 229.965 160.176 230.178 160.432C230.391 160.688 230.701 160.816 231.106 160.816C231.309 160.816 231.485 160.8 231.634 160.768C231.794 160.725 231.938 160.677 232.066 160.624V161.936C231.906 162 231.719 162.048 231.506 162.08C231.293 162.123 231.09 162.144 230.898 162.144ZM241.928 162.144C241.214 162.144 240.59 161.979 240.056 161.648C239.523 161.317 239.107 160.837 238.808 160.208C238.52 159.579 238.376 158.832 238.376 157.968C238.376 157.093 238.52 156.347 238.808 155.728C239.107 155.109 239.523 154.635 240.056 154.304C240.59 153.963 241.214 153.792 241.928 153.792C242.632 153.792 243.246 153.968 243.768 154.32C244.291 154.672 244.638 155.152 244.808 155.76H244.632L244.792 153.936H246.36C246.328 154.267 246.296 154.597 246.264 154.928C246.243 155.248 246.232 155.563 246.232 155.872V162H244.616V160.208H244.792C244.622 160.805 244.27 161.28 243.736 161.632C243.214 161.973 242.611 162.144 241.928 162.144ZM242.328 160.88C243.022 160.88 243.576 160.635 243.992 160.144C244.419 159.653 244.632 158.928 244.632 157.968C244.632 157.008 244.419 156.288 243.992 155.808C243.576 155.317 243.022 155.072 242.328 155.072C241.624 155.072 241.059 155.317 240.632 155.808C240.216 156.288 240.008 157.008 240.008 157.968C240.008 158.928 240.216 159.653 240.632 160.144C241.048 160.635 241.614 160.88 242.328 160.88ZM252.626 162.144C251.816 162.144 251.106 161.979 250.498 161.648C249.901 161.307 249.437 160.821 249.106 160.192C248.786 159.552 248.626 158.795 248.626 157.92C248.626 157.056 248.792 156.315 249.122 155.696C249.453 155.077 249.917 154.608 250.514 154.288C251.112 153.957 251.816 153.792 252.626 153.792C253.149 153.792 253.656 153.883 254.146 154.064C254.637 154.235 255.042 154.48 255.362 154.8L254.834 155.936C254.536 155.648 254.2 155.435 253.826 155.296C253.453 155.147 253.09 155.072 252.738 155.072C251.97 155.072 251.368 155.317 250.93 155.808C250.493 156.299 250.274 157.008 250.274 157.936C250.274 158.875 250.493 159.595 250.93 160.096C251.368 160.597 251.97 160.848 252.738 160.848C253.08 160.848 253.437 160.784 253.81 160.656C254.184 160.517 254.525 160.299 254.834 160L255.362 161.136C255.032 161.456 254.616 161.707 254.114 161.888C253.624 162.059 253.128 162.144 252.626 162.144ZM260.954 162.144C260.144 162.144 259.434 161.979 258.826 161.648C258.229 161.307 257.765 160.821 257.434 160.192C257.114 159.552 256.954 158.795 256.954 157.92C256.954 157.056 257.12 156.315 257.45 155.696C257.781 155.077 258.245 154.608 258.842 154.288C259.44 153.957 260.144 153.792 260.954 153.792C261.477 153.792 261.984 153.883 262.474 154.064C262.965 154.235 263.37 154.48 263.69 154.8L263.162 155.936C262.864 155.648 262.528 155.435 262.154 155.296C261.781 155.147 261.418 155.072 261.066 155.072C260.298 155.072 259.696 155.317 259.258 155.808C258.821 156.299 258.602 157.008 258.602 157.936C258.602 158.875 258.821 159.595 259.258 160.096C259.696 160.597 260.298 160.848 261.066 160.848C261.408 160.848 261.765 160.784 262.138 160.656C262.512 160.517 262.853 160.299 263.162 160L263.69 161.136C263.36 161.456 262.944 161.707 262.442 161.888C261.952 162.059 261.456 162.144 260.954 162.144ZM269.475 162.144C268.173 162.144 267.149 161.776 266.403 161.04C265.656 160.304 265.283 159.285 265.283 157.984C265.283 157.141 265.443 156.405 265.763 155.776C266.093 155.147 266.547 154.661 267.123 154.32C267.709 153.968 268.387 153.792 269.155 153.792C269.912 153.792 270.547 153.952 271.059 154.272C271.571 154.592 271.96 155.045 272.227 155.632C272.493 156.208 272.627 156.891 272.627 157.68V158.192H266.547V157.264H271.523L271.251 157.472C271.251 156.672 271.069 156.053 270.707 155.616C270.355 155.168 269.843 154.944 269.171 154.944C268.424 154.944 267.848 155.205 267.443 155.728C267.037 156.24 266.835 156.949 266.835 157.856V158.016C266.835 158.965 267.064 159.68 267.523 160.16C267.992 160.64 268.653 160.88 269.507 160.88C269.976 160.88 270.413 160.816 270.819 160.688C271.235 160.549 271.629 160.325 272.003 160.016L272.531 161.12C272.157 161.451 271.704 161.707 271.171 161.888C270.637 162.059 270.072 162.144 269.475 162.144ZM277.749 162.144C277.077 162.144 276.458 162.059 275.893 161.888C275.328 161.717 274.858 161.477 274.485 161.168L274.981 160.064C275.376 160.363 275.813 160.587 276.293 160.736C276.773 160.885 277.264 160.96 277.765 160.96C278.352 160.96 278.794 160.859 279.093 160.656C279.392 160.443 279.541 160.155 279.541 159.792C279.541 159.515 279.445 159.291 279.253 159.12C279.072 158.949 278.768 158.821 278.341 158.736L276.805 158.432C276.122 158.283 275.605 158.027 275.253 157.664C274.901 157.301 274.725 156.837 274.725 156.272C274.725 155.792 274.853 155.365 275.109 154.992C275.376 154.619 275.749 154.325 276.229 154.112C276.72 153.899 277.29 153.792 277.941 153.792C278.538 153.792 279.093 153.877 279.605 154.048C280.117 154.219 280.544 154.464 280.885 154.784L280.373 155.856C280.042 155.579 279.669 155.365 279.253 155.216C278.837 155.056 278.416 154.976 277.989 154.976C277.392 154.976 276.949 155.088 276.661 155.312C276.373 155.536 276.229 155.829 276.229 156.192C276.229 156.469 276.314 156.699 276.485 156.88C276.666 157.051 276.949 157.184 277.333 157.28L278.869 157.584C279.594 157.733 280.138 157.979 280.501 158.32C280.864 158.661 281.045 159.12 281.045 159.696C281.045 160.197 280.906 160.635 280.629 161.008C280.352 161.381 279.968 161.664 279.477 161.856C278.986 162.048 278.41 162.144 277.749 162.144ZM286.218 162.144C285.546 162.144 284.927 162.059 284.362 161.888C283.796 161.717 283.327 161.477 282.954 161.168L283.45 160.064C283.844 160.363 284.282 160.587 284.762 160.736C285.242 160.885 285.732 160.96 286.234 160.96C286.82 160.96 287.263 160.859 287.562 160.656C287.86 160.443 288.01 160.155 288.01 159.792C288.01 159.515 287.914 159.291 287.722 159.12C287.54 158.949 287.236 158.821 286.81 158.736L285.274 158.432C284.591 158.283 284.074 158.027 283.722 157.664C283.37 157.301 283.194 156.837 283.194 156.272C283.194 155.792 283.322 155.365 283.578 154.992C283.844 154.619 284.218 154.325 284.698 154.112C285.188 153.899 285.759 153.792 286.41 153.792C287.007 153.792 287.562 153.877 288.074 154.048C288.586 154.219 289.012 154.464 289.354 154.784L288.842 155.856C288.511 155.579 288.138 155.365 287.722 155.216C287.306 155.056 286.884 154.976 286.458 154.976C285.86 154.976 285.418 155.088 285.13 155.312C284.842 155.536 284.698 155.829 284.698 156.192C284.698 156.469 284.783 156.699 284.954 156.88C285.135 157.051 285.418 157.184 285.802 157.28L287.338 157.584C288.063 157.733 288.607 157.979 288.97 158.32C289.332 158.661 289.514 159.12 289.514 159.696C289.514 160.197 289.375 160.635 289.098 161.008C288.82 161.381 288.436 161.664 287.946 161.856C287.455 162.048 286.879 162.144 286.218 162.144ZM296.684 162V153.936H298.3V162H296.684ZM296.556 152.256V150.576H298.428V152.256H296.556ZM301.168 162V155.872C301.168 155.563 301.152 155.248 301.12 154.928C301.099 154.597 301.072 154.267 301.04 153.936H302.608L302.752 155.632H302.56C302.806 155.035 303.184 154.581 303.696 154.272C304.208 153.952 304.8 153.792 305.472 153.792C306.422 153.792 307.136 154.053 307.616 154.576C308.107 155.099 308.352 155.909 308.352 157.008V162H306.736V157.104C306.736 156.389 306.592 155.877 306.304 155.568C306.027 155.248 305.6 155.088 305.024 155.088C304.342 155.088 303.798 155.301 303.392 155.728C302.987 156.144 302.784 156.709 302.784 157.424V162H301.168ZM160.817 186V179.872C160.817 179.563 160.801 179.248 160.769 178.928C160.747 178.597 160.721 178.267 160.689 177.936H162.257L162.401 179.632H162.209C162.454 179.035 162.833 178.581 163.345 178.272C163.857 177.952 164.449 177.792 165.121 177.792C166.07 177.792 166.785 178.053 167.265 178.576C167.755 179.099 168.001 179.909 168.001 181.008V186H166.385V181.104C166.385 180.389 166.241 179.877 165.953 179.568C165.675 179.248 165.249 179.088 164.673 179.088C163.99 179.088 163.446 179.301 163.041 179.728C162.635 180.144 162.433 180.709 162.433 181.424V186H160.817ZM174.529 186.144C173.228 186.144 172.204 185.776 171.457 185.04C170.711 184.304 170.337 183.285 170.337 181.984C170.337 181.141 170.497 180.405 170.817 179.776C171.148 179.147 171.601 178.661 172.177 178.32C172.764 177.968 173.441 177.792 174.209 177.792C174.967 177.792 175.601 177.952 176.113 178.272C176.625 178.592 177.015 179.045 177.281 179.632C177.548 180.208 177.681 180.891 177.681 181.68V182.192H171.601V181.264H176.577L176.305 181.472C176.305 180.672 176.124 180.053 175.761 179.616C175.409 179.168 174.897 178.944 174.225 178.944C173.479 178.944 172.903 179.205 172.497 179.728C172.092 180.24 171.889 180.949 171.889 181.856V182.016C171.889 182.965 172.119 183.68 172.577 184.16C173.047 184.64 173.708 184.88 174.561 184.88C175.031 184.88 175.468 184.816 175.873 184.688C176.289 184.549 176.684 184.325 177.057 184.016L177.585 185.12C177.212 185.451 176.759 185.707 176.225 185.888C175.692 186.059 175.127 186.144 174.529 186.144ZM180.036 186V177.936H181.652V186H180.036ZM179.908 176.256V174.576H181.78V176.256H179.908ZM188.152 189.584C187.427 189.584 186.765 189.499 186.168 189.328C185.581 189.157 185.053 188.901 184.584 188.56L184.984 187.376C185.315 187.6 185.64 187.776 185.96 187.904C186.28 188.043 186.616 188.144 186.968 188.208C187.32 188.272 187.683 188.304 188.056 188.304C188.824 188.304 189.4 188.107 189.784 187.712C190.179 187.328 190.376 186.768 190.376 186.032V183.872H190.536C190.365 184.469 190.013 184.944 189.48 185.296C188.957 185.637 188.349 185.808 187.656 185.808C186.92 185.808 186.28 185.648 185.736 185.328C185.203 184.997 184.787 184.533 184.488 183.936C184.2 183.328 184.056 182.613 184.056 181.792C184.056 180.971 184.2 180.261 184.488 179.664C184.787 179.067 185.203 178.608 185.736 178.288C186.28 177.957 186.92 177.792 187.656 177.792C188.36 177.792 188.968 177.968 189.48 178.32C190.003 178.661 190.349 179.131 190.52 179.728L190.376 179.6L190.52 177.936H192.088C192.045 178.267 192.013 178.597 191.992 178.928C191.971 179.248 191.96 179.563 191.96 179.872V185.84C191.96 187.056 191.635 187.984 190.984 188.624C190.344 189.264 189.4 189.584 188.152 189.584ZM188.04 184.544C188.744 184.544 189.304 184.304 189.72 183.824C190.147 183.344 190.36 182.667 190.36 181.792C190.36 180.917 190.147 180.245 189.72 179.776C189.304 179.307 188.744 179.072 188.04 179.072C187.315 179.072 186.739 179.307 186.312 179.776C185.896 180.245 185.688 180.917 185.688 181.792C185.688 182.667 185.896 183.344 186.312 183.824C186.739 184.304 187.315 184.544 188.04 184.544ZM194.817 186V174.224H196.433V179.648H196.209C196.443 179.04 196.822 178.581 197.345 178.272C197.867 177.952 198.47 177.792 199.153 177.792C200.113 177.792 200.827 178.059 201.297 178.592C201.766 179.115 202.001 179.909 202.001 180.976V186H200.385V181.072C200.385 180.379 200.246 179.877 199.969 179.568C199.702 179.248 199.275 179.088 198.689 179.088C198.006 179.088 197.457 179.301 197.041 179.728C196.635 180.144 196.433 180.699 196.433 181.392V186H194.817ZM209.105 186.144C208.401 186.144 207.788 185.968 207.265 185.616C206.743 185.264 206.396 184.784 206.225 184.176H206.401V186H204.801V174.224H206.417V179.728H206.225C206.407 179.131 206.753 178.661 207.265 178.32C207.788 177.968 208.401 177.792 209.105 177.792C209.82 177.792 210.444 177.963 210.977 178.304C211.511 178.635 211.921 179.115 212.209 179.744C212.508 180.363 212.657 181.109 212.657 181.984C212.657 182.848 212.508 183.595 212.209 184.224C211.921 184.843 211.505 185.317 210.961 185.648C210.428 185.979 209.809 186.144 209.105 186.144ZM208.705 184.88C209.399 184.88 209.959 184.64 210.385 184.16C210.812 183.669 211.025 182.944 211.025 181.984C211.025 181.013 210.812 180.288 210.385 179.808C209.959 179.317 209.399 179.072 208.705 179.072C208.001 179.072 207.436 179.317 207.009 179.808C206.593 180.288 206.385 181.008 206.385 181.968C206.385 182.928 206.593 183.653 207.009 184.144C207.436 184.635 208.001 184.88 208.705 184.88ZM218.507 186.144C217.707 186.144 217.014 185.979 216.427 185.648C215.841 185.307 215.387 184.827 215.067 184.208C214.747 183.579 214.587 182.832 214.587 181.968C214.587 181.104 214.747 180.363 215.067 179.744C215.387 179.115 215.841 178.635 216.427 178.304C217.014 177.963 217.707 177.792 218.507 177.792C219.307 177.792 220.001 177.963 220.587 178.304C221.185 178.635 221.643 179.115 221.963 179.744C222.294 180.363 222.459 181.104 222.459 181.968C222.459 182.832 222.294 183.579 221.963 184.208C221.643 184.827 221.185 185.307 220.587 185.648C220.001 185.979 219.307 186.144 218.507 186.144ZM218.507 184.88C219.211 184.88 219.771 184.635 220.187 184.144C220.603 183.653 220.811 182.928 220.811 181.968C220.811 181.008 220.603 180.288 220.187 179.808C219.771 179.317 219.211 179.072 218.507 179.072C217.814 179.072 217.259 179.317 216.843 179.808C216.427 180.288 216.219 181.008 216.219 181.968C216.219 182.928 216.422 183.653 216.827 184.144C217.243 184.635 217.803 184.88 218.507 184.88ZM227.712 186.144C226.741 186.144 226.011 185.883 225.52 185.36C225.04 184.827 224.8 184.011 224.8 182.912V177.936H226.416V182.88C226.416 183.552 226.555 184.048 226.832 184.368C227.109 184.688 227.531 184.848 228.096 184.848C228.736 184.848 229.253 184.635 229.648 184.208C230.043 183.781 230.24 183.216 230.24 182.512V177.936H231.856V186H230.288V184.272H230.496C230.272 184.869 229.915 185.333 229.424 185.664C228.933 185.984 228.363 186.144 227.712 186.144ZM234.691 186V179.936C234.691 179.605 234.68 179.275 234.659 178.944C234.648 178.603 234.627 178.267 234.595 177.936H236.163L236.339 180.016H236.083C236.19 179.515 236.371 179.099 236.627 178.768C236.883 178.437 237.192 178.192 237.555 178.032C237.928 177.872 238.318 177.792 238.723 177.792C238.894 177.792 239.038 177.803 239.155 177.824C239.272 177.835 239.39 177.856 239.507 177.888L239.491 179.328C239.31 179.253 239.15 179.211 239.011 179.2C238.883 179.179 238.723 179.168 238.531 179.168C238.062 179.168 237.662 179.275 237.331 179.488C237 179.691 236.75 179.968 236.579 180.32C236.408 180.672 236.323 181.051 236.323 181.456V186H234.691ZM241.254 186V174.224H242.87V179.648H242.646C242.881 179.04 243.26 178.581 243.782 178.272C244.305 177.952 244.908 177.792 245.59 177.792C246.55 177.792 247.265 178.059 247.734 178.592C248.204 179.115 248.438 179.909 248.438 180.976V186H246.822V181.072C246.822 180.379 246.684 179.877 246.406 179.568C246.14 179.248 245.713 179.088 245.126 179.088C244.444 179.088 243.894 179.301 243.478 179.728C243.073 180.144 242.87 180.699 242.87 181.392V186H241.254ZM254.695 186.144C253.895 186.144 253.201 185.979 252.615 185.648C252.028 185.307 251.575 184.827 251.255 184.208C250.935 183.579 250.775 182.832 250.775 181.968C250.775 181.104 250.935 180.363 251.255 179.744C251.575 179.115 252.028 178.635 252.615 178.304C253.201 177.963 253.895 177.792 254.695 177.792C255.495 177.792 256.188 177.963 256.775 178.304C257.372 178.635 257.831 179.115 258.151 179.744C258.481 180.363 258.647 181.104 258.647 181.968C258.647 182.832 258.481 183.579 258.151 184.208C257.831 184.827 257.372 185.307 256.775 185.648C256.188 185.979 255.495 186.144 254.695 186.144ZM254.695 184.88C255.399 184.88 255.959 184.635 256.375 184.144C256.791 183.653 256.999 182.928 256.999 181.968C256.999 181.008 256.791 180.288 256.375 179.808C255.959 179.317 255.399 179.072 254.695 179.072C254.001 179.072 253.447 179.317 253.031 179.808C252.615 180.288 252.407 181.008 252.407 181.968C252.407 182.928 252.609 183.653 253.015 184.144C253.431 184.635 253.991 184.88 254.695 184.88ZM264.492 186.144C263.692 186.144 262.998 185.979 262.412 185.648C261.825 185.307 261.372 184.827 261.052 184.208C260.732 183.579 260.572 182.832 260.572 181.968C260.572 181.104 260.732 180.363 261.052 179.744C261.372 179.115 261.825 178.635 262.412 178.304C262.998 177.963 263.692 177.792 264.492 177.792C265.292 177.792 265.985 177.963 266.572 178.304C267.169 178.635 267.628 179.115 267.948 179.744C268.278 180.363 268.444 181.104 268.444 181.968C268.444 182.832 268.278 183.579 267.948 184.208C267.628 184.827 267.169 185.307 266.572 185.648C265.985 185.979 265.292 186.144 264.492 186.144ZM264.492 184.88C265.196 184.88 265.756 184.635 266.172 184.144C266.588 183.653 266.796 182.928 266.796 181.968C266.796 181.008 266.588 180.288 266.172 179.808C265.756 179.317 265.196 179.072 264.492 179.072C263.798 179.072 263.244 179.317 262.828 179.808C262.412 180.288 262.204 181.008 262.204 181.968C262.204 182.928 262.406 183.653 262.812 184.144C263.228 184.635 263.788 184.88 264.492 184.88ZM273.92 186.144C273.216 186.144 272.592 185.979 272.048 185.648C271.515 185.317 271.099 184.837 270.8 184.208C270.512 183.579 270.368 182.832 270.368 181.968C270.368 181.093 270.512 180.347 270.8 179.728C271.099 179.109 271.515 178.635 272.048 178.304C272.592 177.963 273.216 177.792 273.92 177.792C274.614 177.792 275.222 177.968 275.744 178.32C276.278 178.661 276.63 179.131 276.8 179.728H276.608V174.224H278.224V186H276.624V184.176H276.816C276.635 184.784 276.283 185.264 275.76 185.616C275.238 185.968 274.624 186.144 273.92 186.144ZM274.32 184.88C275.014 184.88 275.574 184.635 276 184.144C276.427 183.653 276.64 182.928 276.64 181.968C276.64 181.008 276.427 180.288 276 179.808C275.574 179.317 275.014 179.072 274.32 179.072C273.616 179.072 273.051 179.317 272.624 179.808C272.208 180.288 272 181.008 272 181.968C272 182.928 272.208 183.653 272.624 184.144C273.051 184.635 273.616 184.88 274.32 184.88ZM283.85 186.144C283.178 186.144 282.56 186.059 281.994 185.888C281.429 185.717 280.96 185.477 280.586 185.168L281.082 184.064C281.477 184.363 281.914 184.587 282.394 184.736C282.874 184.885 283.365 184.96 283.866 184.96C284.453 184.96 284.896 184.859 285.194 184.656C285.493 184.443 285.642 184.155 285.642 183.792C285.642 183.515 285.546 183.291 285.354 183.12C285.173 182.949 284.869 182.821 284.442 182.736L282.906 182.432C282.224 182.283 281.706 182.027 281.354 181.664C281.002 181.301 280.826 180.837 280.826 180.272C280.826 179.792 280.954 179.365 281.21 178.992C281.477 178.619 281.85 178.325 282.33 178.112C282.821 177.899 283.392 177.792 284.042 177.792C284.64 177.792 285.194 177.877 285.706 178.048C286.218 178.219 286.645 178.464 286.986 178.784L286.474 179.856C286.144 179.579 285.77 179.365 285.354 179.216C284.938 179.056 284.517 178.976 284.09 178.976C283.493 178.976 283.05 179.088 282.762 179.312C282.474 179.536 282.33 179.829 282.33 180.192C282.33 180.469 282.416 180.699 282.586 180.88C282.768 181.051 283.05 181.184 283.434 181.28L284.97 181.584C285.696 181.733 286.24 181.979 286.602 182.32C286.965 182.661 287.146 183.12 287.146 183.696C287.146 184.197 287.008 184.635 286.73 185.008C286.453 185.381 286.069 185.664 285.578 185.856C285.088 186.048 284.512 186.144 283.85 186.144Z" fill="#FF891C"/>
</svg>
