<svg width="449" height="249" viewBox="0 0 449 249" fill="none" xmlns="http://www.w3.org/2000/svg">
<rect width="449" height="249" fill="#09D9AC"/>
<path d="M118.64 70L110.64 47.44H115.792L121.52 64.848H120.144L126.384 47.44H130.032L135.76 64.848H134.48L140.56 47.44H145.392L137.328 70H133.264L127.728 53.968H128.464L122.736 70H118.64ZM147.07 58.704C147.07 56.3573 147.507 54.32 148.382 52.592C149.278 50.8427 150.558 49.488 152.222 48.528C153.886 47.568 155.859 47.088 158.142 47.088C160.424 47.088 162.398 47.568 164.062 48.528C165.726 49.488 167.006 50.8427 167.902 52.592C168.819 54.32 169.278 56.3467 169.278 58.672C169.278 61.04 168.819 63.0987 167.902 64.848C167.006 66.576 165.726 67.9307 164.062 68.912C162.398 69.872 160.424 70.352 158.142 70.352C155.859 70.352 153.886 69.872 152.222 68.912C150.579 67.9307 149.31 66.5653 148.414 64.816C147.518 63.0667 147.07 61.0293 147.07 58.704ZM152.286 58.704C152.286 61.0293 152.766 62.8533 153.726 64.176C154.707 65.4773 156.179 66.128 158.142 66.128C160.062 66.128 161.523 65.4773 162.526 64.176C163.528 62.8533 164.03 61.0293 164.03 58.704C164.03 56.3573 163.528 54.544 162.526 53.264C161.544 51.9627 160.083 51.312 158.142 51.312C156.179 51.312 154.707 51.9627 153.726 53.264C152.766 54.544 152.286 56.3573 152.286 58.704ZM174.685 57.168L172.797 55.664C173.544 54.896 174.067 54.1813 174.365 53.52C174.685 52.8587 174.845 52.1547 174.845 51.408L175.965 52.56H172.349V47.44H177.565V50.736C177.565 51.952 177.352 53.0613 176.925 54.064C176.499 55.0667 175.752 56.1013 174.685 57.168ZM181.43 70V47.44H185.814L193.654 65.04H192.63L200.47 47.44H204.822V70H200.278V54.672H201.558L194.55 70H191.67L184.63 54.672H185.974V70H181.43ZM206.804 70L217.172 47.44H221.3L231.796 70H226.74L224.02 63.728L225.972 65.104H212.564L214.548 63.728L211.828 70H206.804ZM219.22 52.688L215.092 62.48L214.228 61.264H224.308L223.572 62.48L219.348 52.688H219.22ZM233.742 70V47.44H237.454L249.71 63.024H248.846V47.44H253.486V70H249.774L237.55 54.416H238.382V70H233.742ZM259.654 57.168L257.766 55.664C258.513 54.896 259.035 54.1813 259.334 53.52C259.654 52.8587 259.814 52.1547 259.814 51.408L260.934 52.56H257.318V47.44H262.534V50.736C262.534 51.952 262.321 53.0613 261.894 54.064C261.467 55.0667 260.721 56.1013 259.654 57.168ZM272.742 70L283.11 47.44H287.238L297.734 70H292.678L289.958 63.728L291.91 65.104H278.502L280.486 63.728L277.766 70H272.742ZM285.158 52.688L281.03 62.48L280.166 61.264H290.246L289.51 62.48L285.286 52.688H285.158ZM299.679 70V47.44H309.919C312.458 47.44 314.42 48.048 315.807 49.264C317.194 50.4587 317.887 52.1333 317.887 54.288C317.887 55.696 317.567 56.912 316.927 57.936C316.308 58.9387 315.412 59.7173 314.239 60.272C313.087 60.8053 311.7 61.072 310.079 61.072L310.463 60.368H311.775C312.692 60.368 313.503 60.6133 314.207 61.104C314.932 61.5947 315.53 62.3093 315.999 63.248L319.359 70H313.855L310.367 62.736C310.111 62.1173 309.706 61.712 309.151 61.52C308.618 61.3067 307.999 61.2 307.295 61.2H304.671V70H299.679ZM304.671 57.616H309.055C310.356 57.616 311.348 57.3493 312.031 56.816C312.714 56.2827 313.055 55.4933 313.055 54.448C313.055 53.4027 312.714 52.624 312.031 52.112C311.348 51.5787 310.356 51.312 309.055 51.312H304.671V57.616ZM326.926 70V51.504H319.758V47.44H339.086V51.504H331.918V70H326.926Z" fill="#024436"/>
<path d="M99.2836 112L95.3316 100.72H97.0596L100.34 110.464H99.7476L103.22 100.72H104.484L107.748 110.464H107.204L110.596 100.72H112.228L108.244 112H106.82L103.652 102.72H103.988L100.692 112H99.2836ZM116.882 112.144C116.082 112.144 115.389 111.979 114.802 111.648C114.216 111.307 113.762 110.827 113.442 110.208C113.122 109.579 112.962 108.832 112.962 107.968C112.962 107.104 113.122 106.363 113.442 105.744C113.762 105.115 114.216 104.635 114.802 104.304C115.389 103.963 116.082 103.792 116.882 103.792C117.682 103.792 118.376 103.963 118.962 104.304C119.56 104.635 120.018 105.115 120.338 105.744C120.669 106.363 120.834 107.104 120.834 107.968C120.834 108.832 120.669 109.579 120.338 110.208C120.018 110.827 119.56 111.307 118.962 111.648C118.376 111.979 117.682 112.144 116.882 112.144ZM116.882 110.88C117.586 110.88 118.146 110.635 118.562 110.144C118.978 109.653 119.186 108.928 119.186 107.968C119.186 107.008 118.978 106.288 118.562 105.808C118.146 105.317 117.586 105.072 116.882 105.072C116.189 105.072 115.634 105.317 115.218 105.808C114.802 106.288 114.594 107.008 114.594 107.968C114.594 108.928 114.797 109.653 115.202 110.144C115.618 110.635 116.178 110.88 116.882 110.88ZM123.237 104.576L122.533 104.032C122.842 103.712 123.05 103.413 123.157 103.136C123.274 102.848 123.333 102.56 123.333 102.272L123.765 102.608H122.421V100.72H124.325V102.016C124.325 102.496 124.245 102.944 124.085 103.36C123.925 103.765 123.642 104.171 123.237 104.576ZM127.102 112V100.72H128.558L132.91 110.528H132.43L136.782 100.72H138.222V112H136.718V102.976H137.246L133.182 112H132.142L128.078 102.976H128.622V112H127.102ZM144.358 112.144C143.643 112.144 143.019 111.979 142.486 111.648C141.953 111.317 141.537 110.837 141.238 110.208C140.95 109.579 140.806 108.832 140.806 107.968C140.806 107.093 140.95 106.347 141.238 105.728C141.537 105.109 141.953 104.635 142.486 104.304C143.019 103.963 143.643 103.792 144.358 103.792C145.062 103.792 145.675 103.968 146.198 104.32C146.721 104.672 147.067 105.152 147.238 105.76H147.062L147.222 103.936H148.79C148.758 104.267 148.726 104.597 148.694 104.928C148.673 105.248 148.662 105.563 148.662 105.872V112H147.046V110.208H147.222C147.051 110.805 146.699 111.28 146.166 111.632C145.643 111.973 145.041 112.144 144.358 112.144ZM144.758 110.88C145.451 110.88 146.006 110.635 146.422 110.144C146.849 109.653 147.062 108.928 147.062 107.968C147.062 107.008 146.849 106.288 146.422 105.808C146.006 105.317 145.451 105.072 144.758 105.072C144.054 105.072 143.489 105.317 143.062 105.808C142.646 106.288 142.438 107.008 142.438 107.968C142.438 108.928 142.646 109.653 143.062 110.144C143.478 110.635 144.043 110.88 144.758 110.88ZM151.52 112V105.872C151.52 105.563 151.504 105.248 151.472 104.928C151.451 104.597 151.424 104.267 151.392 103.936H152.96L153.104 105.632H152.912C153.157 105.035 153.536 104.581 154.048 104.272C154.56 103.952 155.152 103.792 155.824 103.792C156.773 103.792 157.488 104.053 157.968 104.576C158.459 105.099 158.704 105.909 158.704 107.008V112H157.088V107.104C157.088 106.389 156.944 105.877 156.656 105.568C156.379 105.248 155.952 105.088 155.376 105.088C154.693 105.088 154.149 105.301 153.744 105.728C153.339 106.144 153.136 106.709 153.136 107.424V112H151.52ZM161.44 108.256V106.96H166.128V108.256H161.44ZM167.605 112L172.629 100.72H174.053L179.157 112H177.445L176.053 108.8L176.757 109.248H169.925L170.677 108.8L169.285 112H167.605ZM173.317 102.544L170.885 108.288L170.501 107.92H176.181L175.861 108.288L173.381 102.544H173.317ZM180.972 112V105.936C180.972 105.605 180.962 105.275 180.94 104.944C180.93 104.603 180.908 104.267 180.876 103.936H182.444L182.62 106.016H182.364C182.471 105.515 182.652 105.099 182.908 104.768C183.164 104.437 183.474 104.192 183.836 104.032C184.21 103.872 184.599 103.792 185.004 103.792C185.175 103.792 185.319 103.803 185.436 103.824C185.554 103.835 185.671 103.856 185.788 103.888L185.772 105.328C185.591 105.253 185.431 105.211 185.292 105.2C185.164 105.179 185.004 105.168 184.812 105.168C184.343 105.168 183.943 105.275 183.612 105.488C183.282 105.691 183.031 105.968 182.86 106.32C182.69 106.672 182.604 107.051 182.604 107.456V112H180.972ZM191.109 112.144C190.234 112.144 189.573 111.909 189.125 111.44C188.677 110.96 188.453 110.245 188.453 109.296V105.184H186.885V103.936H188.453V101.808L190.069 101.376V103.936H192.309V105.184H190.069V109.152C190.069 109.749 190.176 110.176 190.389 110.432C190.602 110.688 190.912 110.816 191.317 110.816C191.52 110.816 191.696 110.8 191.845 110.768C192.005 110.725 192.149 110.677 192.277 110.624V111.936C192.117 112 191.93 112.048 191.717 112.08C191.504 112.123 191.301 112.144 191.109 112.144ZM194.097 108.256V106.96H198.785V108.256H194.097ZM201.726 112V100.72H206.494C207.7 100.72 208.633 101.008 209.294 101.584C209.956 102.149 210.286 102.944 210.286 103.968C210.286 104.64 210.137 105.216 209.838 105.696C209.54 106.176 209.118 106.544 208.574 106.8C208.03 107.045 207.39 107.168 206.654 107.168L206.91 106.912H207.342C207.78 106.912 208.169 107.024 208.51 107.248C208.862 107.472 209.15 107.829 209.374 108.32L210.99 112H209.166L207.566 108.304C207.406 107.867 207.156 107.584 206.814 107.456C206.484 107.328 206.073 107.264 205.582 107.264H203.39V112H201.726ZM203.39 106H206.222C207.022 106 207.625 105.829 208.03 105.488C208.446 105.147 208.654 104.656 208.654 104.016C208.654 103.365 208.446 102.875 208.03 102.544C207.625 102.213 207.022 102.048 206.222 102.048H203.39V106ZM216.779 112.144C215.478 112.144 214.454 111.776 213.707 111.04C212.961 110.304 212.587 109.285 212.587 107.984C212.587 107.141 212.747 106.405 213.067 105.776C213.398 105.147 213.851 104.661 214.427 104.32C215.014 103.968 215.691 103.792 216.459 103.792C217.217 103.792 217.851 103.952 218.363 104.272C218.875 104.592 219.265 105.045 219.531 105.632C219.798 106.208 219.931 106.891 219.931 107.68V108.192H213.851V107.264H218.827L218.555 107.472C218.555 106.672 218.374 106.053 218.011 105.616C217.659 105.168 217.147 104.944 216.475 104.944C215.729 104.944 215.153 105.205 214.747 105.728C214.342 106.24 214.139 106.949 214.139 107.856V108.016C214.139 108.965 214.369 109.68 214.827 110.16C215.297 110.64 215.958 110.88 216.811 110.88C217.281 110.88 217.718 110.816 218.123 110.688C218.539 110.549 218.934 110.325 219.307 110.016L219.835 111.12C219.462 111.451 219.009 111.707 218.475 111.888C217.942 112.059 217.377 112.144 216.779 112.144ZM225.054 112.144C224.382 112.144 223.763 112.059 223.198 111.888C222.632 111.717 222.163 111.477 221.79 111.168L222.286 110.064C222.68 110.363 223.118 110.587 223.598 110.736C224.078 110.885 224.568 110.96 225.07 110.96C225.656 110.96 226.099 110.859 226.398 110.656C226.696 110.443 226.846 110.155 226.846 109.792C226.846 109.515 226.75 109.291 226.558 109.12C226.376 108.949 226.072 108.821 225.646 108.736L224.11 108.432C223.427 108.283 222.91 108.027 222.558 107.664C222.206 107.301 222.03 106.837 222.03 106.272C222.03 105.792 222.158 105.365 222.414 104.992C222.68 104.619 223.054 104.325 223.534 104.112C224.024 103.899 224.595 103.792 225.246 103.792C225.843 103.792 226.398 103.877 226.91 104.048C227.422 104.219 227.848 104.464 228.19 104.784L227.678 105.856C227.347 105.579 226.974 105.365 226.558 105.216C226.142 105.056 225.72 104.976 225.294 104.976C224.696 104.976 224.254 105.088 223.966 105.312C223.678 105.536 223.534 105.829 223.534 106.192C223.534 106.469 223.619 106.699 223.79 106.88C223.971 107.051 224.254 107.184 224.638 107.28L226.174 107.584C226.899 107.733 227.443 107.979 227.806 108.32C228.168 108.661 228.35 109.12 228.35 109.696C228.35 110.197 228.211 110.635 227.934 111.008C227.656 111.381 227.272 111.664 226.782 111.856C226.291 112.048 225.715 112.144 225.054 112.144ZM230.754 112V103.936H232.37V112H230.754ZM230.626 102.256V100.576H232.498V102.256H230.626ZM238.327 112.144C237.623 112.144 236.999 111.979 236.455 111.648C235.921 111.317 235.505 110.837 235.207 110.208C234.919 109.579 234.775 108.832 234.775 107.968C234.775 107.093 234.919 106.347 235.207 105.728C235.505 105.109 235.921 104.635 236.455 104.304C236.999 103.963 237.623 103.792 238.327 103.792C239.02 103.792 239.628 103.968 240.151 104.32C240.684 104.661 241.036 105.131 241.207 105.728H241.015V100.224H242.631V112H241.031V110.176H241.223C241.041 110.784 240.689 111.264 240.167 111.616C239.644 111.968 239.031 112.144 238.327 112.144ZM238.727 110.88C239.42 110.88 239.98 110.635 240.407 110.144C240.833 109.653 241.047 108.928 241.047 107.968C241.047 107.008 240.833 106.288 240.407 105.808C239.98 105.317 239.42 105.072 238.727 105.072C238.023 105.072 237.457 105.317 237.031 105.808C236.615 106.288 236.407 107.008 236.407 107.968C236.407 108.928 236.615 109.653 237.031 110.144C237.457 110.635 238.023 110.88 238.727 110.88ZM249.217 112.144C247.915 112.144 246.891 111.776 246.145 111.04C245.398 110.304 245.025 109.285 245.025 107.984C245.025 107.141 245.185 106.405 245.505 105.776C245.835 105.147 246.289 104.661 246.865 104.32C247.451 103.968 248.129 103.792 248.897 103.792C249.654 103.792 250.289 103.952 250.801 104.272C251.313 104.592 251.702 105.045 251.969 105.632C252.235 106.208 252.369 106.891 252.369 107.68V108.192H246.289V107.264H251.265L250.993 107.472C250.993 106.672 250.811 106.053 250.449 105.616C250.097 105.168 249.585 104.944 248.913 104.944C248.166 104.944 247.59 105.205 247.185 105.728C246.779 106.24 246.577 106.949 246.577 107.856V108.016C246.577 108.965 246.806 109.68 247.265 110.16C247.734 110.64 248.395 110.88 249.249 110.88C249.718 110.88 250.155 110.816 250.561 110.688C250.977 110.549 251.371 110.325 251.745 110.016L252.273 111.12C251.899 111.451 251.446 111.707 250.913 111.888C250.379 112.059 249.814 112.144 249.217 112.144ZM254.723 112V105.872C254.723 105.563 254.707 105.248 254.675 104.928C254.654 104.597 254.627 104.267 254.595 103.936H256.163L256.307 105.632H256.115C256.36 105.035 256.739 104.581 257.251 104.272C257.763 103.952 258.355 103.792 259.027 103.792C259.976 103.792 260.691 104.053 261.171 104.576C261.662 105.099 261.907 105.909 261.907 107.008V112H260.291V107.104C260.291 106.389 260.147 105.877 259.859 105.568C259.582 105.248 259.155 105.088 258.579 105.088C257.896 105.088 257.352 105.301 256.947 105.728C256.542 106.144 256.339 106.709 256.339 107.424V112H254.723ZM268.243 112.144C267.433 112.144 266.723 111.979 266.115 111.648C265.518 111.307 265.054 110.821 264.723 110.192C264.403 109.552 264.243 108.795 264.243 107.92C264.243 107.056 264.409 106.315 264.739 105.696C265.07 105.077 265.534 104.608 266.131 104.288C266.729 103.957 267.433 103.792 268.243 103.792C268.766 103.792 269.273 103.883 269.763 104.064C270.254 104.235 270.659 104.48 270.979 104.8L270.451 105.936C270.153 105.648 269.817 105.435 269.443 105.296C269.07 105.147 268.707 105.072 268.355 105.072C267.587 105.072 266.985 105.317 266.547 105.808C266.11 106.299 265.891 107.008 265.891 107.936C265.891 108.875 266.11 109.595 266.547 110.096C266.985 110.597 267.587 110.848 268.355 110.848C268.697 110.848 269.054 110.784 269.427 110.656C269.801 110.517 270.142 110.299 270.451 110L270.979 111.136C270.649 111.456 270.233 111.707 269.731 111.888C269.241 112.059 268.745 112.144 268.243 112.144ZM276.764 112.144C275.462 112.144 274.438 111.776 273.692 111.04C272.945 110.304 272.572 109.285 272.572 107.984C272.572 107.141 272.732 106.405 273.052 105.776C273.382 105.147 273.836 104.661 274.412 104.32C274.998 103.968 275.676 103.792 276.444 103.792C277.201 103.792 277.836 103.952 278.348 104.272C278.86 104.592 279.249 105.045 279.516 105.632C279.782 106.208 279.916 106.891 279.916 107.68V108.192H273.836V107.264H278.812L278.54 107.472C278.54 106.672 278.358 106.053 277.996 105.616C277.644 105.168 277.132 104.944 276.46 104.944C275.713 104.944 275.137 105.205 274.732 105.728C274.326 106.24 274.124 106.949 274.124 107.856V108.016C274.124 108.965 274.353 109.68 274.812 110.16C275.281 110.64 275.942 110.88 276.796 110.88C277.265 110.88 277.702 110.816 278.108 110.688C278.524 110.549 278.918 110.325 279.292 110.016L279.82 111.12C279.446 111.451 278.993 111.707 278.46 111.888C277.926 112.059 277.361 112.144 276.764 112.144ZM287.18 112V100.72H291.964C293.169 100.72 294.092 101.013 294.732 101.6C295.382 102.176 295.708 102.976 295.708 104C295.708 105.024 295.382 105.829 294.732 106.416C294.092 107.003 293.169 107.296 291.964 107.296H288.844V112H287.18ZM288.844 105.968H291.788C292.545 105.968 293.116 105.797 293.5 105.456C293.884 105.115 294.076 104.629 294.076 104C294.076 103.381 293.884 102.901 293.5 102.56C293.116 102.219 292.545 102.048 291.788 102.048H288.844V105.968ZM297.879 112V105.936C297.879 105.605 297.868 105.275 297.847 104.944C297.836 104.603 297.815 104.267 297.783 103.936H299.351L299.527 106.016H299.271C299.377 105.515 299.559 105.099 299.815 104.768C300.071 104.437 300.38 104.192 300.743 104.032C301.116 103.872 301.505 103.792 301.911 103.792C302.081 103.792 302.225 103.803 302.343 103.824C302.46 103.835 302.577 103.856 302.695 103.888L302.679 105.328C302.497 105.253 302.337 105.211 302.199 105.2C302.071 105.179 301.911 105.168 301.719 105.168C301.249 105.168 300.849 105.275 300.519 105.488C300.188 105.691 299.937 105.968 299.767 106.32C299.596 106.672 299.511 107.051 299.511 107.456V112H297.879ZM307.788 112.144C306.988 112.144 306.295 111.979 305.708 111.648C305.122 111.307 304.668 110.827 304.348 110.208C304.028 109.579 303.868 108.832 303.868 107.968C303.868 107.104 304.028 106.363 304.348 105.744C304.668 105.115 305.122 104.635 305.708 104.304C306.295 103.963 306.988 103.792 307.788 103.792C308.588 103.792 309.282 103.963 309.868 104.304C310.466 104.635 310.924 105.115 311.244 105.744C311.575 106.363 311.74 107.104 311.74 107.968C311.74 108.832 311.575 109.579 311.244 110.208C310.924 110.827 310.466 111.307 309.868 111.648C309.282 111.979 308.588 112.144 307.788 112.144ZM307.788 110.88C308.492 110.88 309.052 110.635 309.468 110.144C309.884 109.653 310.092 108.928 310.092 107.968C310.092 107.008 309.884 106.288 309.468 105.808C309.052 105.317 308.492 105.072 307.788 105.072C307.095 105.072 306.54 105.317 306.124 105.808C305.708 106.288 305.5 107.008 305.5 107.968C305.5 108.928 305.703 109.653 306.108 110.144C306.524 110.635 307.084 110.88 307.788 110.88ZM317.761 115.584C317.036 115.584 316.375 115.499 315.777 115.328C315.191 115.157 314.663 114.901 314.193 114.56L314.593 113.376C314.924 113.6 315.249 113.776 315.569 113.904C315.889 114.043 316.225 114.144 316.577 114.208C316.929 114.272 317.292 114.304 317.665 114.304C318.433 114.304 319.009 114.107 319.393 113.712C319.788 113.328 319.985 112.768 319.985 112.032V109.872H320.145C319.975 110.469 319.623 110.944 319.089 111.296C318.567 111.637 317.959 111.808 317.265 111.808C316.529 111.808 315.889 111.648 315.345 111.328C314.812 110.997 314.396 110.533 314.097 109.936C313.809 109.328 313.665 108.613 313.665 107.792C313.665 106.971 313.809 106.261 314.097 105.664C314.396 105.067 314.812 104.608 315.345 104.288C315.889 103.957 316.529 103.792 317.265 103.792C317.969 103.792 318.577 103.968 319.089 104.32C319.612 104.661 319.959 105.131 320.129 105.728L319.985 105.6L320.129 103.936H321.697C321.655 104.267 321.623 104.597 321.601 104.928C321.58 105.248 321.569 105.563 321.569 105.872V111.84C321.569 113.056 321.244 113.984 320.593 114.624C319.953 115.264 319.009 115.584 317.761 115.584ZM317.649 110.544C318.353 110.544 318.913 110.304 319.329 109.824C319.756 109.344 319.969 108.667 319.969 107.792C319.969 106.917 319.756 106.245 319.329 105.776C318.913 105.307 318.353 105.072 317.649 105.072C316.924 105.072 316.348 105.307 315.921 105.776C315.505 106.245 315.297 106.917 315.297 107.792C315.297 108.667 315.505 109.344 315.921 109.824C316.348 110.304 316.924 110.544 317.649 110.544ZM324.394 112V105.936C324.394 105.605 324.384 105.275 324.362 104.944C324.352 104.603 324.33 104.267 324.298 103.936H325.866L326.042 106.016H325.786C325.893 105.515 326.074 105.099 326.33 104.768C326.586 104.437 326.896 104.192 327.258 104.032C327.632 103.872 328.021 103.792 328.426 103.792C328.597 103.792 328.741 103.803 328.858 103.824C328.976 103.835 329.093 103.856 329.21 103.888L329.194 105.328C329.013 105.253 328.853 105.211 328.714 105.2C328.586 105.179 328.426 105.168 328.234 105.168C327.765 105.168 327.365 105.275 327.034 105.488C326.704 105.691 326.453 105.968 326.282 106.32C326.112 106.672 326.026 107.051 326.026 107.456V112H324.394ZM333.967 112.144C333.253 112.144 332.629 111.979 332.095 111.648C331.562 111.317 331.146 110.837 330.847 110.208C330.559 109.579 330.415 108.832 330.415 107.968C330.415 107.093 330.559 106.347 330.847 105.728C331.146 105.109 331.562 104.635 332.095 104.304C332.629 103.963 333.253 103.792 333.967 103.792C334.671 103.792 335.285 103.968 335.807 104.32C336.33 104.672 336.677 105.152 336.847 105.76H336.671L336.831 103.936H338.399C338.367 104.267 338.335 104.597 338.303 104.928C338.282 105.248 338.271 105.563 338.271 105.872V112H336.655V110.208H336.831C336.661 110.805 336.309 111.28 335.775 111.632C335.253 111.973 334.65 112.144 333.967 112.144ZM334.367 110.88C335.061 110.88 335.615 110.635 336.031 110.144C336.458 109.653 336.671 108.928 336.671 107.968C336.671 107.008 336.458 106.288 336.031 105.808C335.615 105.317 335.061 105.072 334.367 105.072C333.663 105.072 333.098 105.317 332.671 105.808C332.255 106.288 332.047 107.008 332.047 107.968C332.047 108.928 332.255 109.653 332.671 110.144C333.087 110.635 333.653 110.88 334.367 110.88ZM341.129 112V105.872C341.129 105.563 341.113 105.248 341.081 104.928C341.06 104.597 341.033 104.267 341.001 103.936H342.569L342.713 105.632H342.521C342.745 105.045 343.087 104.592 343.545 104.272C344.015 103.952 344.575 103.792 345.225 103.792C345.887 103.792 346.425 103.952 346.841 104.272C347.268 104.581 347.561 105.061 347.721 105.712H347.465C347.679 105.125 348.041 104.661 348.553 104.32C349.065 103.968 349.657 103.792 350.329 103.792C351.225 103.792 351.897 104.053 352.345 104.576C352.793 105.099 353.017 105.909 353.017 107.008V112H351.401V107.088C351.401 106.384 351.279 105.877 351.033 105.568C350.799 105.248 350.415 105.088 349.881 105.088C349.263 105.088 348.772 105.301 348.409 105.728C348.047 106.155 347.865 106.731 347.865 107.456V112H346.249V107.088C346.249 106.384 346.127 105.877 345.881 105.568C345.647 105.248 345.263 105.088 344.729 105.088C344.111 105.088 343.625 105.301 343.273 105.728C342.921 106.155 342.745 106.731 342.745 107.456V112H341.129Z" fill="#1C1C1C"/>
<path d="M121.412 171L128.948 154.08H131.084L138.74 171H136.172L134.084 166.2L135.14 166.872H124.892L126.02 166.2L123.932 171H121.412ZM129.98 156.816L126.332 165.432L125.756 164.88H134.276L133.796 165.432L130.076 156.816H129.98ZM141.212 171V161.904C141.212 161.408 141.196 160.912 141.164 160.416C141.148 159.904 141.116 159.4 141.068 158.904H143.42L143.684 162.024H143.3C143.46 161.272 143.732 160.648 144.116 160.152C144.5 159.656 144.964 159.288 145.508 159.048C146.068 158.808 146.652 158.688 147.26 158.688C147.516 158.688 147.732 158.704 147.908 158.736C148.084 158.752 148.26 158.784 148.436 158.832L148.412 160.992C148.14 160.88 147.9 160.816 147.692 160.8C147.5 160.768 147.26 160.752 146.972 160.752C146.268 160.752 145.668 160.912 145.172 161.232C144.676 161.536 144.3 161.952 144.044 162.48C143.788 163.008 143.66 163.576 143.66 164.184V171H141.212ZM156.168 171.216C154.856 171.216 153.864 170.864 153.192 170.16C152.52 169.44 152.184 168.368 152.184 166.944V160.776H149.832V158.904H152.184V155.712L154.608 155.064V158.904H157.968V160.776H154.608V166.728C154.608 167.624 154.768 168.264 155.088 168.648C155.408 169.032 155.872 169.224 156.48 169.224C156.784 169.224 157.048 169.2 157.272 169.152C157.512 169.088 157.728 169.016 157.92 168.936V170.904C157.68 171 157.4 171.072 157.08 171.12C156.76 171.184 156.456 171.216 156.168 171.216ZM167.797 171V154.08H178.645V156.072H170.293V161.496H178.093V163.488H170.293V171H167.797ZM189.53 171.216C187.658 171.216 186.082 170.872 184.802 170.184C183.538 169.48 182.586 168.48 181.946 167.184C181.306 165.888 180.986 164.344 180.986 162.552C180.986 160.76 181.322 159.216 181.994 157.92C182.682 156.624 183.658 155.624 184.922 154.92C186.202 154.216 187.738 153.864 189.53 153.864C190.762 153.864 191.834 154.04 192.746 154.392C193.658 154.728 194.474 155.224 195.194 155.88L194.306 157.824C193.794 157.392 193.298 157.048 192.818 156.792C192.338 156.536 191.842 156.352 191.33 156.24C190.818 156.112 190.218 156.048 189.53 156.048C187.594 156.048 186.122 156.616 185.114 157.752C184.106 158.888 183.602 160.496 183.602 162.576C183.602 164.688 184.082 166.296 185.042 167.4C186.018 168.504 187.546 169.056 189.626 169.056C190.346 169.056 191.058 168.992 191.762 168.864C192.466 168.72 193.146 168.512 193.802 168.24L193.322 169.416V163.872H189.146V162H195.41V169.992C194.674 170.36 193.77 170.656 192.698 170.88C191.642 171.104 190.586 171.216 189.53 171.216ZM199.735 171V154.08H201.919L208.447 168.792H207.727L214.255 154.08H216.415V171H214.159V157.464H214.951L208.855 171H207.295L201.199 157.464H202.015V171H199.735ZM227.851 171V154.08H230.347V171H227.851ZM234.604 171V161.808C234.604 161.344 234.58 160.872 234.532 160.392C234.5 159.896 234.46 159.4 234.412 158.904H236.764L236.98 161.448H236.692C237.06 160.552 237.628 159.872 238.396 159.408C239.164 158.928 240.052 158.688 241.06 158.688C242.484 158.688 243.556 159.08 244.276 159.864C245.012 160.648 245.38 161.864 245.38 163.512V171H242.956V163.656C242.956 162.584 242.74 161.816 242.308 161.352C241.892 160.872 241.252 160.632 240.388 160.632C239.364 160.632 238.548 160.952 237.94 161.592C237.332 162.216 237.028 163.064 237.028 164.136V171H234.604ZM249.331 171V158.904H251.755V171H249.331ZM249.139 156.384V153.864H251.947V156.384H249.139ZM260.511 171.216C259.199 171.216 258.207 170.864 257.535 170.16C256.863 169.44 256.527 168.368 256.527 166.944V160.776H254.175V158.904H256.527V155.712L258.951 155.064V158.904H262.311V160.776H258.951V166.728C258.951 167.624 259.111 168.264 259.431 168.648C259.751 169.032 260.215 169.224 260.823 169.224C261.127 169.224 261.391 169.2 261.615 169.152C261.855 169.088 262.071 169.016 262.263 168.936V170.904C262.023 171 261.743 171.072 261.423 171.12C261.103 171.184 260.799 171.216 260.511 171.216ZM265.026 171V158.904H267.45V171H265.026ZM264.834 156.384V153.864H267.642V156.384H264.834ZM276.135 171.216C275.063 171.216 274.127 170.968 273.327 170.472C272.527 169.976 271.903 169.256 271.455 168.312C271.023 167.368 270.807 166.248 270.807 164.952C270.807 163.64 271.023 162.52 271.455 161.592C271.903 160.664 272.527 159.952 273.327 159.456C274.127 158.944 275.063 158.688 276.135 158.688C277.191 158.688 278.111 158.952 278.895 159.48C279.679 160.008 280.199 160.728 280.455 161.64H280.191L280.431 158.904H282.783C282.735 159.4 282.687 159.896 282.639 160.392C282.607 160.872 282.591 161.344 282.591 161.808V171H280.167V168.312H280.431C280.175 169.208 279.647 169.92 278.847 170.448C278.063 170.96 277.159 171.216 276.135 171.216ZM276.735 169.32C277.775 169.32 278.607 168.952 279.231 168.216C279.871 167.48 280.191 166.392 280.191 164.952C280.191 163.512 279.871 162.432 279.231 161.712C278.607 160.976 277.775 160.608 276.735 160.608C275.679 160.608 274.831 160.976 274.191 161.712C273.567 162.432 273.255 163.512 273.255 164.952C273.255 166.392 273.567 167.48 274.191 168.216C274.815 168.952 275.663 169.32 276.735 169.32ZM291.332 171.216C290.02 171.216 289.028 170.864 288.356 170.16C287.684 169.44 287.348 168.368 287.348 166.944V160.776H284.996V158.904H287.348V155.712L289.772 155.064V158.904H293.132V160.776H289.772V166.728C289.772 167.624 289.932 168.264 290.252 168.648C290.572 169.032 291.036 169.224 291.644 169.224C291.948 169.224 292.212 169.2 292.436 169.152C292.676 169.088 292.892 169.016 293.084 168.936V170.904C292.844 171 292.564 171.072 292.244 171.12C291.924 171.184 291.62 171.216 291.332 171.216ZM295.846 171V158.904H298.27V171H295.846ZM295.654 156.384V153.864H298.462V156.384H295.654ZM305.875 171L300.691 158.904H303.283L307.363 169.008H306.667L310.819 158.904H313.291L308.083 171H305.875ZM321.095 171.216C319.143 171.216 317.607 170.664 316.487 169.56C315.367 168.456 314.807 166.928 314.807 164.976C314.807 163.712 315.047 162.608 315.527 161.664C316.023 160.72 316.703 159.992 317.567 159.48C318.447 158.952 319.463 158.688 320.615 158.688C321.751 158.688 322.703 158.928 323.471 159.408C324.239 159.888 324.823 160.568 325.223 161.448C325.623 162.312 325.823 163.336 325.823 164.52V165.288H316.703V163.896H324.167L323.759 164.208C323.759 163.008 323.487 162.08 322.943 161.424C322.415 160.752 321.647 160.416 320.639 160.416C319.519 160.416 318.655 160.808 318.047 161.592C317.439 162.36 317.135 163.424 317.135 164.784V165.024C317.135 166.448 317.479 167.52 318.167 168.24C318.871 168.96 319.863 169.32 321.143 169.32C321.847 169.32 322.503 169.224 323.111 169.032C323.735 168.824 324.327 168.488 324.887 168.024L325.679 169.68C325.119 170.176 324.439 170.56 323.639 170.832C322.839 171.088 321.991 171.216 321.095 171.216Z" fill="#2D2C2C"/>
<path d="M69.0149 203V195.488H66.0869V194.54H73.0829V195.488H70.1429V203H69.0149ZM75.4851 203.108C74.7571 203.108 74.2091 202.912 73.8411 202.52C73.4811 202.128 73.3011 201.524 73.3011 200.708V196.964H74.3931V200.684C74.3931 201.212 74.5011 201.6 74.7171 201.848C74.9331 202.096 75.2691 202.22 75.7251 202.22C76.2211 202.22 76.6211 202.056 76.9251 201.728C77.2371 201.392 77.3931 200.948 77.3931 200.396V196.964H78.4851V203H77.4291V201.668H77.5851C77.4171 202.124 77.1491 202.48 76.7811 202.736C76.4131 202.984 75.9811 203.108 75.4851 203.108ZM80.3695 203V198.44C80.3695 198.2 80.3615 197.956 80.3455 197.708C80.3375 197.452 80.3175 197.204 80.2855 196.964H81.3415L81.4735 198.476L81.2935 198.488C81.3735 198.12 81.5095 197.816 81.7015 197.576C81.9015 197.328 82.1375 197.148 82.4095 197.036C82.6895 196.916 82.9775 196.856 83.2735 196.856C83.4015 196.856 83.5095 196.86 83.5975 196.868C83.6855 196.876 83.7735 196.896 83.8615 196.928L83.8375 197.9C83.7175 197.852 83.6055 197.824 83.5015 197.816C83.4055 197.8 83.2855 197.792 83.1415 197.792C82.7895 197.792 82.4855 197.872 82.2295 198.032C81.9815 198.192 81.7895 198.404 81.6535 198.668C81.5255 198.932 81.4615 199.216 81.4615 199.52V203H80.3695ZM84.8829 203V194.168H85.9749V199.628H85.9989L88.7229 196.964H90.0789L86.8389 200.132L86.8509 199.616L90.3669 203H88.9749L85.9989 200.192H85.9749V203H84.8829ZM93.4695 203.108C92.9415 203.108 92.4775 202.984 92.0775 202.736C91.6775 202.488 91.3655 202.128 91.1415 201.656C90.9175 201.184 90.8055 200.624 90.8055 199.976C90.8055 199.328 90.9175 198.772 91.1415 198.308C91.3655 197.836 91.6775 197.476 92.0775 197.228C92.4775 196.98 92.9415 196.856 93.4695 196.856C94.0055 196.856 94.4695 196.992 94.8615 197.264C95.2615 197.528 95.5255 197.892 95.6535 198.356H95.5095L95.6415 196.964H96.6975C96.6735 197.204 96.6495 197.444 96.6255 197.684C96.6095 197.924 96.6015 198.16 96.6015 198.392V203H95.5095V201.62H95.6415C95.5135 202.076 95.2495 202.44 94.8495 202.712C94.4575 202.976 93.9975 203.108 93.4695 203.108ZM93.7215 202.244C94.2655 202.244 94.7015 202.052 95.0295 201.668C95.3575 201.284 95.5215 200.72 95.5215 199.976C95.5215 199.232 95.3575 198.672 95.0295 198.296C94.7015 197.92 94.2655 197.732 93.7215 197.732C93.1775 197.732 92.7375 197.92 92.4015 198.296C92.0735 198.672 91.9095 199.232 91.9095 199.976C91.9095 200.72 92.0735 201.284 92.4015 201.668C92.7295 202.052 93.1695 202.244 93.7215 202.244ZM98.4911 203V198.392C98.4911 198.16 98.4831 197.924 98.4671 197.684C98.4511 197.444 98.4271 197.204 98.3951 196.964H99.4511L99.5711 198.26H99.4271C99.6111 197.804 99.8951 197.456 100.279 197.216C100.663 196.976 101.111 196.856 101.623 196.856C102.335 196.856 102.871 197.052 103.231 197.444C103.591 197.828 103.771 198.428 103.771 199.244V203H102.679V199.304C102.679 198.752 102.571 198.356 102.355 198.116C102.139 197.868 101.803 197.744 101.347 197.744C100.803 197.744 100.371 197.908 100.051 198.236C99.7391 198.564 99.5831 199.008 99.5831 199.568V203H98.4911ZM107.922 203.108C107.394 203.108 106.93 202.984 106.53 202.736C106.13 202.488 105.818 202.128 105.594 201.656C105.37 201.184 105.258 200.624 105.258 199.976C105.258 199.328 105.37 198.772 105.594 198.308C105.818 197.836 106.13 197.476 106.53 197.228C106.93 196.98 107.394 196.856 107.922 196.856C108.458 196.856 108.922 196.992 109.314 197.264C109.714 197.528 109.978 197.892 110.106 198.356H109.962L110.094 196.964H111.15C111.126 197.204 111.102 197.444 111.078 197.684C111.062 197.924 111.054 198.16 111.054 198.392V203H109.962V201.62H110.094C109.966 202.076 109.702 202.44 109.302 202.712C108.91 202.976 108.45 203.108 107.922 203.108ZM108.174 202.244C108.718 202.244 109.154 202.052 109.482 201.668C109.81 201.284 109.974 200.72 109.974 199.976C109.974 199.232 109.81 198.672 109.482 198.296C109.154 197.92 108.718 197.732 108.174 197.732C107.63 197.732 107.19 197.92 106.854 198.296C106.526 198.672 106.362 199.232 106.362 199.976C106.362 200.72 106.526 201.284 106.854 201.668C107.182 202.052 107.622 202.244 108.174 202.244ZM113.315 204.428L112.823 204.044C113.047 203.812 113.199 203.592 113.279 203.384C113.359 203.184 113.399 202.976 113.399 202.76L113.639 203H112.763V201.668H114.095V202.592C114.095 202.936 114.039 203.252 113.927 203.54C113.815 203.836 113.611 204.132 113.315 204.428ZM119.148 203V194.54H120.132L123.468 202.052H123.108L126.444 194.54H127.416V203H126.396V196.028H126.768L123.636 203H122.928L119.796 196.028H120.168V203H119.148ZM131.728 203.108C131.2 203.108 130.736 202.984 130.336 202.736C129.936 202.488 129.624 202.128 129.4 201.656C129.176 201.184 129.064 200.624 129.064 199.976C129.064 199.328 129.176 198.772 129.4 198.308C129.624 197.836 129.936 197.476 130.336 197.228C130.736 196.98 131.2 196.856 131.728 196.856C132.264 196.856 132.728 196.992 133.12 197.264C133.52 197.528 133.784 197.892 133.912 198.356H133.768L133.9 196.964H134.956C134.932 197.204 134.908 197.444 134.884 197.684C134.868 197.924 134.86 198.16 134.86 198.392V203H133.768V201.62H133.9C133.772 202.076 133.508 202.44 133.108 202.712C132.716 202.976 132.256 203.108 131.728 203.108ZM131.98 202.244C132.524 202.244 132.96 202.052 133.288 201.668C133.616 201.284 133.78 200.72 133.78 199.976C133.78 199.232 133.616 198.672 133.288 198.296C132.96 197.92 132.524 197.732 131.98 197.732C131.436 197.732 130.996 197.92 130.66 198.296C130.332 198.672 130.168 199.232 130.168 199.976C130.168 200.72 130.332 201.284 130.66 201.668C130.988 202.052 131.428 202.244 131.98 202.244ZM136.738 203V198.44C136.738 198.2 136.73 197.956 136.714 197.708C136.706 197.452 136.686 197.204 136.654 196.964H137.71L137.842 198.476L137.662 198.488C137.742 198.12 137.878 197.816 138.07 197.576C138.27 197.328 138.506 197.148 138.778 197.036C139.058 196.916 139.346 196.856 139.642 196.856C139.77 196.856 139.878 196.86 139.966 196.868C140.054 196.876 140.142 196.896 140.23 196.928L140.206 197.9C140.086 197.852 139.974 197.824 139.87 197.816C139.774 197.8 139.654 197.792 139.51 197.792C139.158 197.792 138.854 197.872 138.598 198.032C138.35 198.192 138.158 198.404 138.022 198.668C137.894 198.932 137.83 199.216 137.83 199.52V203H136.738ZM143.232 203.108C142.744 203.108 142.288 203.044 141.864 202.916C141.448 202.788 141.104 202.604 140.832 202.364L141.18 201.608C141.476 201.832 141.8 202.004 142.152 202.124C142.512 202.236 142.88 202.292 143.256 202.292C143.712 202.292 144.056 202.208 144.288 202.04C144.528 201.872 144.648 201.648 144.648 201.368C144.648 201.144 144.572 200.964 144.42 200.828C144.268 200.692 144.028 200.592 143.7 200.528L142.56 200.3C142.048 200.18 141.66 199.988 141.396 199.724C141.14 199.452 141.012 199.104 141.012 198.68C141.012 198.328 141.108 198.016 141.3 197.744C141.492 197.464 141.764 197.248 142.116 197.096C142.476 196.936 142.896 196.856 143.376 196.856C143.816 196.856 144.224 196.92 144.6 197.048C144.984 197.176 145.3 197.364 145.548 197.612L145.188 198.344C144.94 198.128 144.66 197.964 144.348 197.852C144.044 197.732 143.732 197.672 143.412 197.672C142.948 197.672 142.604 197.764 142.38 197.948C142.156 198.124 142.044 198.356 142.044 198.644C142.044 198.86 142.112 199.04 142.248 199.184C142.384 199.32 142.604 199.424 142.908 199.496L144.048 199.724C144.584 199.836 144.988 200.02 145.26 200.276C145.532 200.532 145.668 200.872 145.668 201.296C145.668 201.672 145.564 201.996 145.356 202.268C145.156 202.54 144.872 202.748 144.504 202.892C144.144 203.036 143.72 203.108 143.232 203.108ZM149.521 203.108C148.993 203.108 148.529 202.984 148.129 202.736C147.729 202.488 147.417 202.128 147.193 201.656C146.969 201.184 146.857 200.624 146.857 199.976C146.857 199.328 146.969 198.772 147.193 198.308C147.417 197.836 147.729 197.476 148.129 197.228C148.529 196.98 148.993 196.856 149.521 196.856C150.057 196.856 150.521 196.992 150.913 197.264C151.313 197.528 151.577 197.892 151.705 198.356H151.561L151.693 196.964H152.749C152.725 197.204 152.701 197.444 152.677 197.684C152.661 197.924 152.653 198.16 152.653 198.392V203H151.561V201.62H151.693C151.565 202.076 151.301 202.44 150.901 202.712C150.509 202.976 150.049 203.108 149.521 203.108ZM149.773 202.244C150.317 202.244 150.753 202.052 151.081 201.668C151.409 201.284 151.573 200.72 151.573 199.976C151.573 199.232 151.409 198.672 151.081 198.296C150.753 197.92 150.317 197.732 149.773 197.732C149.229 197.732 148.789 197.92 148.453 198.296C148.125 198.672 147.961 199.232 147.961 199.976C147.961 200.72 148.125 201.284 148.453 201.668C148.781 202.052 149.221 202.244 149.773 202.244ZM157.675 203.108C157.139 203.108 156.675 202.976 156.283 202.712C155.891 202.44 155.631 202.068 155.503 201.596H155.635V203H154.543V194.168H155.635V198.344H155.503C155.639 197.88 155.899 197.516 156.283 197.252C156.675 196.988 157.139 196.856 157.675 196.856C158.211 196.856 158.679 196.984 159.079 197.24C159.479 197.488 159.787 197.844 160.003 198.308C160.227 198.772 160.339 199.332 160.339 199.988C160.339 200.636 160.227 201.196 160.003 201.668C159.787 202.132 159.475 202.488 159.067 202.736C158.667 202.984 158.203 203.108 157.675 203.108ZM157.423 202.244C157.967 202.244 158.403 202.056 158.731 201.68C159.067 201.296 159.235 200.732 159.235 199.988C159.235 199.244 159.067 198.684 158.731 198.308C158.403 197.924 157.967 197.732 157.423 197.732C156.871 197.732 156.431 197.92 156.103 198.296C155.783 198.672 155.623 199.232 155.623 199.976C155.623 200.72 155.783 201.284 156.103 201.668C156.431 202.052 156.871 202.244 157.423 202.244ZM161.868 203V196.964H162.96V203H161.868ZM161.772 195.644V194.468H163.068V195.644H161.772ZM167.102 203.108C166.47 203.108 165.99 202.936 165.662 202.592C165.342 202.24 165.182 201.712 165.182 201.008V197.804H164.006V196.964H165.182V195.344L166.274 195.044V196.964H167.978V197.804H166.274V200.912C166.274 201.376 166.354 201.708 166.514 201.908C166.682 202.1 166.922 202.196 167.234 202.196C167.394 202.196 167.53 202.184 167.642 202.16C167.762 202.128 167.87 202.092 167.966 202.052V202.952C167.846 203 167.706 203.036 167.546 203.06C167.394 203.092 167.246 203.108 167.102 203.108ZM169.732 204.428L169.24 204.044C169.464 203.812 169.616 203.592 169.696 203.384C169.776 203.184 169.816 202.976 169.816 202.76L170.056 203H169.18V201.668H170.512V202.592C170.512 202.936 170.456 203.252 170.344 203.54C170.232 203.836 170.028 204.132 169.732 204.428ZM178.36 203.108C177.68 203.108 177.068 203.02 176.524 202.844C175.98 202.668 175.508 202.42 175.108 202.1L175.492 201.212C175.772 201.42 176.056 201.596 176.344 201.74C176.632 201.876 176.94 201.98 177.268 202.052C177.604 202.116 177.968 202.148 178.36 202.148C179.056 202.148 179.568 202.024 179.896 201.776C180.232 201.52 180.4 201.184 180.4 200.768C180.4 200.408 180.284 200.132 180.052 199.94C179.82 199.748 179.416 199.596 178.84 199.484L177.556 199.22C176.78 199.06 176.2 198.8 175.816 198.44C175.44 198.072 175.252 197.576 175.252 196.952C175.252 196.448 175.384 196.008 175.648 195.632C175.92 195.248 176.292 194.952 176.764 194.744C177.244 194.536 177.804 194.432 178.444 194.432C179.036 194.432 179.584 194.52 180.088 194.696C180.592 194.872 181.016 195.132 181.36 195.476L180.976 196.328C180.616 196 180.228 195.764 179.812 195.62C179.404 195.468 178.94 195.392 178.42 195.392C177.788 195.392 177.288 195.528 176.92 195.8C176.552 196.072 176.368 196.44 176.368 196.904C176.368 197.272 176.484 197.564 176.716 197.78C176.948 197.988 177.332 198.148 177.868 198.26L179.152 198.512C179.968 198.672 180.564 198.924 180.94 199.268C181.324 199.612 181.516 200.088 181.516 200.696C181.516 201.176 181.388 201.6 181.132 201.968C180.876 202.328 180.512 202.608 180.04 202.808C179.568 203.008 179.008 203.108 178.36 203.108ZM185.344 203.108C184.816 203.108 184.352 202.984 183.952 202.736C183.552 202.488 183.24 202.128 183.016 201.656C182.792 201.184 182.68 200.624 182.68 199.976C182.68 199.328 182.792 198.772 183.016 198.308C183.24 197.836 183.552 197.476 183.952 197.228C184.352 196.98 184.816 196.856 185.344 196.856C185.88 196.856 186.344 196.992 186.736 197.264C187.136 197.528 187.4 197.892 187.528 198.356H187.384L187.516 196.964H188.572C188.548 197.204 188.524 197.444 188.5 197.684C188.484 197.924 188.476 198.16 188.476 198.392V203H187.384V201.62H187.516C187.388 202.076 187.124 202.44 186.724 202.712C186.332 202.976 185.872 203.108 185.344 203.108ZM185.596 202.244C186.14 202.244 186.576 202.052 186.904 201.668C187.232 201.284 187.396 200.72 187.396 199.976C187.396 199.232 187.232 198.672 186.904 198.296C186.576 197.92 186.14 197.732 185.596 197.732C185.052 197.732 184.612 197.92 184.276 198.296C183.948 198.672 183.784 199.232 183.784 199.976C183.784 200.72 183.948 201.284 184.276 201.668C184.604 202.052 185.044 202.244 185.596 202.244ZM190.365 203V198.392C190.365 198.16 190.357 197.924 190.341 197.684C190.325 197.444 190.301 197.204 190.269 196.964H191.325L191.445 198.26H191.301C191.461 197.812 191.717 197.468 192.069 197.228C192.421 196.98 192.841 196.856 193.329 196.856C193.825 196.856 194.233 196.976 194.553 197.216C194.873 197.448 195.089 197.816 195.201 198.32H195.021C195.173 197.872 195.441 197.516 195.825 197.252C196.209 196.988 196.657 196.856 197.169 196.856C197.833 196.856 198.333 197.052 198.669 197.444C199.005 197.828 199.173 198.428 199.173 199.244V203H198.081V199.304C198.081 198.752 197.985 198.356 197.793 198.116C197.601 197.868 197.297 197.744 196.881 197.744C196.393 197.744 196.009 197.912 195.729 198.248C195.449 198.576 195.309 199.024 195.309 199.592V203H194.217V199.304C194.217 198.752 194.121 198.356 193.929 198.116C193.745 197.868 193.441 197.744 193.017 197.744C192.529 197.744 192.145 197.912 191.865 198.248C191.593 198.576 191.457 199.024 191.457 199.592V203H190.365ZM204.151 203.108C203.615 203.108 203.151 202.976 202.759 202.712C202.367 202.44 202.107 202.068 201.979 201.596H202.111V203H201.019V194.168H202.111V198.344H201.979C202.115 197.88 202.375 197.516 202.759 197.252C203.151 196.988 203.615 196.856 204.151 196.856C204.687 196.856 205.155 196.984 205.555 197.24C205.955 197.488 206.263 197.844 206.479 198.308C206.703 198.772 206.815 199.332 206.815 199.988C206.815 200.636 206.703 201.196 206.479 201.668C206.263 202.132 205.951 202.488 205.543 202.736C205.143 202.984 204.679 203.108 204.151 203.108ZM203.899 202.244C204.443 202.244 204.879 202.056 205.207 201.68C205.543 201.296 205.711 200.732 205.711 199.988C205.711 199.244 205.543 198.684 205.207 198.308C204.879 197.924 204.443 197.732 203.899 197.732C203.347 197.732 202.907 197.92 202.579 198.296C202.259 198.672 202.099 199.232 202.099 199.976C202.099 200.72 202.259 201.284 202.579 201.668C202.907 202.052 203.347 202.244 203.899 202.244ZM210.493 203.108C209.765 203.108 209.217 202.912 208.849 202.52C208.489 202.128 208.309 201.524 208.309 200.708V196.964H209.401V200.684C209.401 201.212 209.509 201.6 209.725 201.848C209.941 202.096 210.277 202.22 210.733 202.22C211.229 202.22 211.629 202.056 211.933 201.728C212.245 201.392 212.401 200.948 212.401 200.396V196.964H213.493V203H212.437V201.668H212.593C212.425 202.124 212.157 202.48 211.789 202.736C211.421 202.984 210.989 203.108 210.493 203.108ZM215.377 203V198.44C215.377 198.2 215.369 197.956 215.353 197.708C215.345 197.452 215.325 197.204 215.293 196.964H216.349L216.481 198.476L216.301 198.488C216.381 198.12 216.517 197.816 216.709 197.576C216.909 197.328 217.145 197.148 217.417 197.036C217.697 196.916 217.985 196.856 218.281 196.856C218.409 196.856 218.517 196.86 218.605 196.868C218.693 196.876 218.781 196.896 218.869 196.928L218.845 197.9C218.725 197.852 218.613 197.824 218.509 197.816C218.413 197.8 218.293 197.792 218.149 197.792C217.797 197.792 217.493 197.872 217.237 198.032C216.989 198.192 216.797 198.404 216.661 198.668C216.533 198.932 216.469 199.216 216.469 199.52V203H215.377ZM222.038 203.108C221.31 203.108 220.762 202.912 220.394 202.52C220.034 202.128 219.854 201.524 219.854 200.708V196.964H220.946V200.684C220.946 201.212 221.054 201.6 221.27 201.848C221.486 202.096 221.822 202.22 222.278 202.22C222.774 202.22 223.174 202.056 223.478 201.728C223.79 201.392 223.946 200.948 223.946 200.396V196.964H225.038V203H223.982V201.668H224.138C223.97 202.124 223.702 202.48 223.334 202.736C222.966 202.984 222.534 203.108 222.038 203.108ZM227.307 204.428L226.815 204.044C227.039 203.812 227.191 203.592 227.271 203.384C227.351 203.184 227.391 202.976 227.391 202.76L227.631 203H226.755V201.668H228.087V202.592C228.087 202.936 228.031 203.252 227.919 203.54C227.807 203.836 227.603 204.132 227.307 204.428ZM233.14 203V194.54H236.584C237.496 194.54 238.196 194.732 238.684 195.116C239.172 195.5 239.416 196.04 239.416 196.736C239.416 197.264 239.256 197.704 238.936 198.056C238.624 198.408 238.196 198.644 237.652 198.764V198.584C238.276 198.656 238.76 198.872 239.104 199.232C239.456 199.592 239.632 200.068 239.632 200.66C239.632 201.412 239.38 201.992 238.876 202.4C238.372 202.8 237.66 203 236.74 203H233.14ZM234.22 202.112H236.632C237.224 202.112 237.688 202 238.024 201.776C238.368 201.544 238.54 201.164 238.54 200.636C238.54 200.1 238.368 199.72 238.024 199.496C237.688 199.272 237.224 199.16 236.632 199.16H234.22V202.112ZM234.22 198.272H236.428C237.06 198.272 237.532 198.152 237.844 197.912C238.156 197.664 238.312 197.308 238.312 196.844C238.312 196.38 238.156 196.028 237.844 195.788C237.532 195.54 237.06 195.416 236.428 195.416H234.22V198.272ZM243.575 203.108C243.047 203.108 242.583 202.984 242.183 202.736C241.783 202.488 241.471 202.128 241.247 201.656C241.023 201.184 240.911 200.624 240.911 199.976C240.911 199.328 241.023 198.772 241.247 198.308C241.471 197.836 241.783 197.476 242.183 197.228C242.583 196.98 243.047 196.856 243.575 196.856C244.111 196.856 244.575 196.992 244.967 197.264C245.367 197.528 245.631 197.892 245.759 198.356H245.615L245.747 196.964H246.803C246.779 197.204 246.755 197.444 246.731 197.684C246.715 197.924 246.707 198.16 246.707 198.392V203H245.615V201.62H245.747C245.619 202.076 245.355 202.44 244.955 202.712C244.563 202.976 244.103 203.108 243.575 203.108ZM243.827 202.244C244.371 202.244 244.807 202.052 245.135 201.668C245.463 201.284 245.627 200.72 245.627 199.976C245.627 199.232 245.463 198.672 245.135 198.296C244.807 197.92 244.371 197.732 243.827 197.732C243.283 197.732 242.843 197.92 242.507 198.296C242.179 198.672 242.015 199.232 242.015 199.976C242.015 200.72 242.179 201.284 242.507 201.668C242.835 202.052 243.275 202.244 243.827 202.244ZM248.585 203V198.44C248.585 198.2 248.577 197.956 248.561 197.708C248.553 197.452 248.533 197.204 248.501 196.964H249.557L249.689 198.476L249.509 198.488C249.589 198.12 249.725 197.816 249.917 197.576C250.117 197.328 250.353 197.148 250.625 197.036C250.905 196.916 251.193 196.856 251.489 196.856C251.617 196.856 251.725 196.86 251.813 196.868C251.901 196.876 251.989 196.896 252.077 196.928L252.053 197.9C251.933 197.852 251.821 197.824 251.717 197.816C251.621 197.8 251.501 197.792 251.357 197.792C251.005 197.792 250.701 197.872 250.445 198.032C250.197 198.192 250.005 198.404 249.869 198.668C249.741 198.932 249.677 199.216 249.677 199.52V203H248.585ZM253.098 203V196.964H254.19V203H253.098ZM253.002 195.644V194.468H254.298V195.644H253.002ZM256.076 203V198.392C256.076 198.16 256.068 197.924 256.052 197.684C256.036 197.444 256.012 197.204 255.98 196.964H257.036L257.156 198.26H257.012C257.196 197.804 257.48 197.456 257.864 197.216C258.248 196.976 258.696 196.856 259.208 196.856C259.92 196.856 260.456 197.052 260.816 197.444C261.176 197.828 261.356 198.428 261.356 199.244V203H260.264V199.304C260.264 198.752 260.156 198.356 259.94 198.116C259.724 197.868 259.388 197.744 258.932 197.744C258.388 197.744 257.956 197.908 257.636 198.236C257.324 198.564 257.168 199.008 257.168 199.568V203H256.076ZM265.89 205.688C265.362 205.688 264.878 205.624 264.438 205.496C263.998 205.368 263.602 205.172 263.25 204.908L263.538 204.104C263.786 204.272 264.03 204.408 264.27 204.512C264.51 204.616 264.758 204.692 265.014 204.74C265.278 204.788 265.55 204.812 265.83 204.812C266.422 204.812 266.866 204.66 267.162 204.356C267.458 204.052 267.606 203.62 267.606 203.06V201.368H267.726C267.598 201.824 267.334 202.188 266.934 202.46C266.542 202.724 266.078 202.856 265.542 202.856C264.998 202.856 264.522 202.736 264.114 202.496C263.714 202.248 263.402 201.9 263.178 201.452C262.954 200.996 262.842 200.464 262.842 199.856C262.842 199.24 262.954 198.708 263.178 198.26C263.402 197.812 263.714 197.468 264.114 197.228C264.522 196.98 264.998 196.856 265.542 196.856C266.078 196.856 266.542 196.988 266.934 197.252C267.326 197.516 267.586 197.88 267.714 198.344L267.606 198.236L267.714 196.964H268.77C268.746 197.204 268.722 197.444 268.698 197.684C268.682 197.924 268.674 198.16 268.674 198.392V202.928C268.674 203.824 268.438 204.508 267.966 204.98C267.502 205.452 266.81 205.688 265.89 205.688ZM265.782 201.992C266.334 201.992 266.774 201.804 267.102 201.428C267.43 201.052 267.594 200.528 267.594 199.856C267.594 199.176 267.43 198.652 267.102 198.284C266.774 197.916 266.334 197.732 265.782 197.732C265.222 197.732 264.774 197.916 264.438 198.284C264.11 198.652 263.946 199.176 263.946 199.856C263.946 200.528 264.11 201.052 264.438 201.428C264.774 201.804 265.222 201.992 265.782 201.992ZM273.107 203.108C272.515 203.108 272.003 202.984 271.571 202.736C271.139 202.48 270.803 202.12 270.563 201.656C270.323 201.184 270.203 200.624 270.203 199.976C270.203 199.336 270.323 198.784 270.563 198.32C270.803 197.848 271.139 197.488 271.571 197.24C272.003 196.984 272.515 196.856 273.107 196.856C273.699 196.856 274.211 196.984 274.643 197.24C275.083 197.488 275.419 197.848 275.651 198.32C275.891 198.784 276.011 199.336 276.011 199.976C276.011 200.624 275.891 201.184 275.651 201.656C275.419 202.12 275.083 202.48 274.643 202.736C274.211 202.984 273.699 203.108 273.107 203.108ZM273.107 202.244C273.651 202.244 274.087 202.052 274.415 201.668C274.743 201.284 274.907 200.72 274.907 199.976C274.907 199.232 274.743 198.672 274.415 198.296C274.087 197.92 273.651 197.732 273.107 197.732C272.555 197.732 272.115 197.92 271.787 198.296C271.467 198.672 271.307 199.232 271.307 199.976C271.307 200.72 271.467 201.284 271.787 201.668C272.115 202.052 272.555 202.244 273.107 202.244ZM277.651 204.428L277.159 204.044C277.383 203.812 277.535 203.592 277.615 203.384C277.695 203.184 277.735 202.976 277.735 202.76L277.975 203H277.099V201.668H278.431V202.592C278.431 202.936 278.375 203.252 278.263 203.54C278.151 203.836 277.947 204.132 277.651 204.428ZM283.484 203V194.54H288.956V195.452H284.564V198.248H288.68V199.16H284.564V202.088H288.956V203H283.484ZM290.502 203V194.168H291.594V203H290.502ZM296.168 205.688C295.64 205.688 295.156 205.624 294.716 205.496C294.276 205.368 293.88 205.172 293.528 204.908L293.816 204.104C294.064 204.272 294.308 204.408 294.548 204.512C294.788 204.616 295.036 204.692 295.292 204.74C295.556 204.788 295.828 204.812 296.108 204.812C296.7 204.812 297.144 204.66 297.44 204.356C297.736 204.052 297.884 203.62 297.884 203.06V201.368H298.004C297.876 201.824 297.612 202.188 297.212 202.46C296.82 202.724 296.356 202.856 295.82 202.856C295.276 202.856 294.8 202.736 294.392 202.496C293.992 202.248 293.68 201.9 293.456 201.452C293.232 200.996 293.12 200.464 293.12 199.856C293.12 199.24 293.232 198.708 293.456 198.26C293.68 197.812 293.992 197.468 294.392 197.228C294.8 196.98 295.276 196.856 295.82 196.856C296.356 196.856 296.82 196.988 297.212 197.252C297.604 197.516 297.864 197.88 297.992 198.344L297.884 198.236L297.992 196.964H299.048C299.024 197.204 299 197.444 298.976 197.684C298.96 197.924 298.952 198.16 298.952 198.392V202.928C298.952 203.824 298.716 204.508 298.244 204.98C297.78 205.452 297.088 205.688 296.168 205.688ZM296.06 201.992C296.612 201.992 297.052 201.804 297.38 201.428C297.708 201.052 297.872 200.528 297.872 199.856C297.872 199.176 297.708 198.652 297.38 198.284C297.052 197.916 296.612 197.732 296.06 197.732C295.5 197.732 295.052 197.916 294.716 198.284C294.388 198.652 294.224 199.176 294.224 199.856C294.224 200.528 294.388 201.052 294.716 201.428C295.052 201.804 295.5 201.992 296.06 201.992ZM303.589 203.108C302.629 203.108 301.869 202.832 301.309 202.28C300.757 201.728 300.481 200.968 300.481 200C300.481 199.36 300.601 198.808 300.841 198.344C301.089 197.872 301.429 197.508 301.861 197.252C302.293 196.988 302.797 196.856 303.373 196.856C303.925 196.856 304.393 196.976 304.777 197.216C305.161 197.448 305.453 197.78 305.653 198.212C305.853 198.644 305.953 199.156 305.953 199.748V200.108H301.333V199.46H305.209L305.005 199.616C305.005 198.992 304.865 198.508 304.585 198.164C304.313 197.82 303.909 197.648 303.373 197.648C302.789 197.648 302.337 197.852 302.017 198.26C301.697 198.66 301.537 199.208 301.537 199.904V200.012C301.537 200.748 301.717 201.304 302.077 201.68C302.445 202.056 302.953 202.244 303.601 202.244C303.961 202.244 304.297 202.192 304.609 202.088C304.921 201.984 305.221 201.812 305.509 201.572L305.869 202.328C305.597 202.576 305.257 202.768 304.849 202.904C304.449 203.04 304.029 203.108 303.589 203.108ZM307.154 205.724L306.902 204.836C307.278 204.748 307.59 204.644 307.838 204.524C308.086 204.412 308.294 204.264 308.462 204.08C308.63 203.896 308.778 203.664 308.906 203.384L309.206 202.664L309.182 203.12L306.554 196.964H307.73L309.83 202.136H309.518L311.618 196.964H312.746L309.974 203.468C309.806 203.86 309.622 204.188 309.422 204.452C309.23 204.716 309.018 204.932 308.786 205.1C308.562 205.268 308.314 205.4 308.042 205.496C307.77 205.592 307.474 205.668 307.154 205.724ZM316.279 203.108C315.687 203.108 315.175 202.984 314.743 202.736C314.311 202.48 313.975 202.12 313.735 201.656C313.495 201.184 313.375 200.624 313.375 199.976C313.375 199.336 313.495 198.784 313.735 198.32C313.975 197.848 314.311 197.488 314.743 197.24C315.175 196.984 315.687 196.856 316.279 196.856C316.871 196.856 317.383 196.984 317.815 197.24C318.255 197.488 318.591 197.848 318.823 198.32C319.063 198.784 319.183 199.336 319.183 199.976C319.183 200.624 319.063 201.184 318.823 201.656C318.591 202.12 318.255 202.48 317.815 202.736C317.383 202.984 316.871 203.108 316.279 203.108ZM316.279 202.244C316.823 202.244 317.259 202.052 317.587 201.668C317.915 201.284 318.079 200.72 318.079 199.976C318.079 199.232 317.915 198.672 317.587 198.296C317.259 197.92 316.823 197.732 316.279 197.732C315.727 197.732 315.287 197.92 314.959 198.296C314.639 198.672 314.479 199.232 314.479 199.976C314.479 200.72 314.639 201.284 314.959 201.668C315.287 202.052 315.727 202.244 316.279 202.244ZM324.053 203V194.54H325.037L328.373 202.052H328.013L331.349 194.54H332.321V203H331.301V196.028H331.673L328.541 203H327.833L324.701 196.028H325.073V203H324.053ZM336.633 203.108C336.105 203.108 335.641 202.984 335.241 202.736C334.841 202.488 334.529 202.128 334.305 201.656C334.081 201.184 333.969 200.624 333.969 199.976C333.969 199.328 334.081 198.772 334.305 198.308C334.529 197.836 334.841 197.476 335.241 197.228C335.641 196.98 336.105 196.856 336.633 196.856C337.169 196.856 337.633 196.992 338.025 197.264C338.425 197.528 338.689 197.892 338.817 198.356H338.673L338.805 196.964H339.861C339.837 197.204 339.813 197.444 339.789 197.684C339.773 197.924 339.765 198.16 339.765 198.392V203H338.673V201.62H338.805C338.677 202.076 338.413 202.44 338.013 202.712C337.621 202.976 337.161 203.108 336.633 203.108ZM336.885 202.244C337.429 202.244 337.865 202.052 338.193 201.668C338.521 201.284 338.685 200.72 338.685 199.976C338.685 199.232 338.521 198.672 338.193 198.296C337.865 197.92 337.429 197.732 336.885 197.732C336.341 197.732 335.901 197.92 335.565 198.296C335.237 198.672 335.073 199.232 335.073 199.976C335.073 200.72 335.237 201.284 335.565 201.668C335.893 202.052 336.333 202.244 336.885 202.244ZM341.642 203V198.44C341.642 198.2 341.634 197.956 341.618 197.708C341.61 197.452 341.59 197.204 341.558 196.964H342.614L342.746 198.476L342.566 198.488C342.646 198.12 342.782 197.816 342.974 197.576C343.174 197.328 343.41 197.148 343.682 197.036C343.962 196.916 344.25 196.856 344.546 196.856C344.674 196.856 344.782 196.86 344.87 196.868C344.958 196.876 345.046 196.896 345.134 196.928L345.11 197.9C344.99 197.852 344.878 197.824 344.774 197.816C344.678 197.8 344.558 197.792 344.414 197.792C344.062 197.792 343.758 197.872 343.502 198.032C343.254 198.192 343.062 198.404 342.926 198.668C342.798 198.932 342.734 199.216 342.734 199.52V203H341.642ZM348.401 203.108C347.873 203.108 347.409 202.984 347.009 202.736C346.609 202.488 346.297 202.128 346.073 201.656C345.849 201.184 345.737 200.624 345.737 199.976C345.737 199.328 345.849 198.772 346.073 198.308C346.297 197.836 346.609 197.476 347.009 197.228C347.409 196.98 347.873 196.856 348.401 196.856C348.937 196.856 349.401 196.992 349.793 197.264C350.193 197.528 350.457 197.892 350.585 198.356H350.441L350.573 196.964H351.629C351.605 197.204 351.581 197.444 351.557 197.684C351.541 197.924 351.533 198.16 351.533 198.392V203H350.441V201.62H350.573C350.445 202.076 350.181 202.44 349.781 202.712C349.389 202.976 348.929 203.108 348.401 203.108ZM348.653 202.244C349.197 202.244 349.633 202.052 349.961 201.668C350.289 201.284 350.453 200.72 350.453 199.976C350.453 199.232 350.289 198.672 349.961 198.296C349.633 197.92 349.197 197.732 348.653 197.732C348.109 197.732 347.669 197.92 347.333 198.296C347.005 198.672 346.841 199.232 346.841 199.976C346.841 200.72 347.005 201.284 347.333 201.668C347.661 202.052 348.101 202.244 348.653 202.244ZM353.423 203V194.168H354.515V199.628H354.539L357.263 196.964H358.619L355.379 200.132L355.391 199.616L358.907 203H357.515L354.539 200.192H354.515V203H353.423ZM361.197 203L358.941 196.964H360.081L361.905 202.136H361.593L363.465 196.964H364.353L366.213 202.136H365.913L367.749 196.964H368.841L366.573 203H365.541L363.621 197.744H364.149L362.241 203H361.197ZM372.744 203.108C371.784 203.108 371.024 202.832 370.464 202.28C369.912 201.728 369.636 200.968 369.636 200C369.636 199.36 369.756 198.808 369.996 198.344C370.244 197.872 370.584 197.508 371.016 197.252C371.448 196.988 371.952 196.856 372.528 196.856C373.08 196.856 373.548 196.976 373.932 197.216C374.316 197.448 374.608 197.78 374.808 198.212C375.008 198.644 375.108 199.156 375.108 199.748V200.108H370.488V199.46H374.364L374.16 199.616C374.16 198.992 374.02 198.508 373.74 198.164C373.468 197.82 373.064 197.648 372.528 197.648C371.944 197.648 371.492 197.852 371.172 198.26C370.852 198.66 370.692 199.208 370.692 199.904V200.012C370.692 200.748 370.872 201.304 371.232 201.68C371.6 202.056 372.108 202.244 372.756 202.244C373.116 202.244 373.452 202.192 373.764 202.088C374.076 201.984 374.376 201.812 374.664 201.572L375.024 202.328C374.752 202.576 374.412 202.768 374.004 202.904C373.604 203.04 373.184 203.108 372.744 203.108ZM378.839 203.108C378.207 203.108 377.727 202.936 377.399 202.592C377.079 202.24 376.919 201.712 376.919 201.008V197.804H375.743V196.964H376.919V195.344L378.011 195.044V196.964H379.715V197.804H378.011V200.912C378.011 201.376 378.091 201.708 378.251 201.908C378.419 202.1 378.659 202.196 378.971 202.196C379.131 202.196 379.267 202.184 379.379 202.16C379.499 202.128 379.607 202.092 379.703 202.052V202.952C379.583 203 379.443 203.036 379.283 203.06C379.131 203.092 378.983 203.108 378.839 203.108ZM381.468 204.428L380.976 204.044C381.2 203.812 381.352 203.592 381.432 203.384C381.512 203.184 381.552 202.976 381.552 202.76L381.792 203H380.916V201.668H382.248V202.592C382.248 202.936 382.192 203.252 382.08 203.54C381.968 203.836 381.764 204.132 381.468 204.428ZM173.542 219L170.578 210.54H171.754L174.262 218.004H173.83L176.494 210.54H177.37L179.866 218.004H179.482L182.074 210.54H183.178L180.19 219H179.218L176.782 211.86H177.034L174.502 219H173.542ZM186.571 219.108C185.611 219.108 184.851 218.832 184.291 218.28C183.739 217.728 183.463 216.968 183.463 216C183.463 215.36 183.583 214.808 183.823 214.344C184.071 213.872 184.411 213.508 184.843 213.252C185.275 212.988 185.779 212.856 186.355 212.856C186.907 212.856 187.375 212.976 187.759 213.216C188.143 213.448 188.435 213.78 188.635 214.212C188.835 214.644 188.935 215.156 188.935 215.748V216.108H184.315V215.46H188.191L187.987 215.616C187.987 214.992 187.847 214.508 187.567 214.164C187.295 213.82 186.891 213.648 186.355 213.648C185.771 213.648 185.319 213.852 184.999 214.26C184.679 214.66 184.519 215.208 184.519 215.904V216.012C184.519 216.748 184.699 217.304 185.059 217.68C185.427 218.056 185.935 218.244 186.583 218.244C186.943 218.244 187.279 218.192 187.591 218.088C187.903 217.984 188.203 217.812 188.491 217.572L188.851 218.328C188.579 218.576 188.239 218.768 187.831 218.904C187.431 219.04 187.011 219.108 186.571 219.108ZM192.462 219.108C191.974 219.108 191.518 219.044 191.094 218.916C190.678 218.788 190.334 218.604 190.062 218.364L190.41 217.608C190.706 217.832 191.03 218.004 191.382 218.124C191.742 218.236 192.11 218.292 192.486 218.292C192.942 218.292 193.286 218.208 193.518 218.04C193.758 217.872 193.878 217.648 193.878 217.368C193.878 217.144 193.802 216.964 193.65 216.828C193.498 216.692 193.258 216.592 192.93 216.528L191.79 216.3C191.278 216.18 190.89 215.988 190.626 215.724C190.37 215.452 190.242 215.104 190.242 214.68C190.242 214.328 190.338 214.016 190.53 213.744C190.722 213.464 190.994 213.248 191.346 213.096C191.706 212.936 192.126 212.856 192.606 212.856C193.046 212.856 193.454 212.92 193.83 213.048C194.214 213.176 194.53 213.364 194.778 213.612L194.418 214.344C194.17 214.128 193.89 213.964 193.578 213.852C193.274 213.732 192.962 213.672 192.642 213.672C192.178 213.672 191.834 213.764 191.61 213.948C191.386 214.124 191.274 214.356 191.274 214.644C191.274 214.86 191.342 215.04 191.478 215.184C191.614 215.32 191.834 215.424 192.138 215.496L193.278 215.724C193.814 215.836 194.218 216.02 194.49 216.276C194.762 216.532 194.898 216.872 194.898 217.296C194.898 217.672 194.794 217.996 194.586 218.268C194.386 218.54 194.102 218.748 193.734 218.892C193.374 219.036 192.95 219.108 192.462 219.108ZM198.644 219.108C198.012 219.108 197.532 218.936 197.204 218.592C196.884 218.24 196.724 217.712 196.724 217.008V213.804H195.548V212.964H196.724V211.344L197.816 211.044V212.964H199.52V213.804H197.816V216.912C197.816 217.376 197.896 217.708 198.056 217.908C198.224 218.1 198.464 218.196 198.776 218.196C198.936 218.196 199.072 218.184 199.184 218.16C199.304 218.128 199.412 218.092 199.508 218.052V218.952C199.388 219 199.248 219.036 199.088 219.06C198.936 219.092 198.788 219.108 198.644 219.108ZM204.069 219V210.54H207.573C208.477 210.54 209.169 210.756 209.649 211.188C210.129 211.62 210.369 212.216 210.369 212.976C210.369 213.736 210.129 214.336 209.649 214.776C209.169 215.208 208.477 215.424 207.573 215.424H205.185V219H204.069ZM205.185 214.512H207.465C208.057 214.512 208.505 214.38 208.809 214.116C209.113 213.844 209.265 213.464 209.265 212.976C209.265 212.488 209.113 212.112 208.809 211.848C208.505 211.584 208.057 211.452 207.465 211.452H205.185V214.512ZM214.147 219.108C213.555 219.108 213.043 218.984 212.611 218.736C212.179 218.48 211.843 218.12 211.603 217.656C211.363 217.184 211.243 216.624 211.243 215.976C211.243 215.336 211.363 214.784 211.603 214.32C211.843 213.848 212.179 213.488 212.611 213.24C213.043 212.984 213.555 212.856 214.147 212.856C214.739 212.856 215.251 212.984 215.683 213.24C216.123 213.488 216.459 213.848 216.691 214.32C216.931 214.784 217.051 215.336 217.051 215.976C217.051 216.624 216.931 217.184 216.691 217.656C216.459 218.12 216.123 218.48 215.683 218.736C215.251 218.984 214.739 219.108 214.147 219.108ZM214.147 218.244C214.691 218.244 215.127 218.052 215.455 217.668C215.783 217.284 215.947 216.72 215.947 215.976C215.947 215.232 215.783 214.672 215.455 214.296C215.127 213.92 214.691 213.732 214.147 213.732C213.595 213.732 213.155 213.92 212.827 214.296C212.507 214.672 212.347 215.232 212.347 215.976C212.347 216.72 212.507 217.284 212.827 217.668C213.155 218.052 213.595 218.244 214.147 218.244ZM218.577 219V210.168H219.669V215.628H219.693L222.417 212.964H223.773L220.533 216.132L220.545 215.616L224.061 219H222.669L219.693 216.192H219.669V219H218.577ZM227.322 219.108C226.73 219.108 226.218 218.984 225.786 218.736C225.354 218.48 225.018 218.12 224.778 217.656C224.538 217.184 224.418 216.624 224.418 215.976C224.418 215.336 224.538 214.784 224.778 214.32C225.018 213.848 225.354 213.488 225.786 213.24C226.218 212.984 226.73 212.856 227.322 212.856C227.914 212.856 228.426 212.984 228.858 213.24C229.298 213.488 229.634 213.848 229.866 214.32C230.106 214.784 230.226 215.336 230.226 215.976C230.226 216.624 230.106 217.184 229.866 217.656C229.634 218.12 229.298 218.48 228.858 218.736C228.426 218.984 227.914 219.108 227.322 219.108ZM227.322 218.244C227.866 218.244 228.302 218.052 228.63 217.668C228.958 217.284 229.122 216.72 229.122 215.976C229.122 215.232 228.958 214.672 228.63 214.296C228.302 213.92 227.866 213.732 227.322 213.732C226.77 213.732 226.33 213.92 226.002 214.296C225.682 214.672 225.522 215.232 225.522 215.976C225.522 216.72 225.682 217.284 226.002 217.668C226.33 218.052 226.77 218.244 227.322 218.244ZM233.949 219.108C233.317 219.108 232.837 218.936 232.509 218.592C232.189 218.24 232.029 217.712 232.029 217.008V213.804H230.853V212.964H232.029V211.344L233.121 211.044V212.964H234.825V213.804H233.121V216.912C233.121 217.376 233.201 217.708 233.361 217.908C233.529 218.1 233.769 218.196 234.081 218.196C234.241 218.196 234.377 218.184 234.489 218.16C234.609 218.128 234.717 218.092 234.813 218.052V218.952C234.693 219 234.553 219.036 234.393 219.06C234.241 219.092 234.093 219.108 233.949 219.108ZM246.179 219.108C245.811 218.948 245.467 218.752 245.147 218.52C244.827 218.28 244.547 218.044 244.307 217.812H244.571C244.219 218.22 243.799 218.54 243.311 218.772C242.823 218.996 242.295 219.108 241.727 219.108C241.143 219.108 240.639 219.02 240.215 218.844C239.791 218.66 239.467 218.408 239.243 218.088C239.019 217.76 238.907 217.376 238.907 216.936C238.907 216.392 239.067 215.928 239.387 215.544C239.707 215.152 240.159 214.772 240.743 214.404L241.139 214.164L240.983 214.356C240.615 213.972 240.343 213.624 240.167 213.312C239.999 212.992 239.915 212.66 239.915 212.316C239.915 211.94 240.003 211.612 240.179 211.332C240.363 211.052 240.619 210.832 240.947 210.672C241.275 210.512 241.659 210.432 242.099 210.432C242.667 210.432 243.131 210.588 243.491 210.9C243.859 211.212 244.043 211.636 244.043 212.172C244.043 212.468 243.983 212.744 243.863 213C243.751 213.248 243.559 213.496 243.287 213.744C243.023 213.984 242.663 214.24 242.207 214.512L242.231 214.272L244.511 216.72H244.271C244.479 216.384 244.639 215.984 244.751 215.52C244.871 215.048 244.939 214.548 244.955 214.02H245.903C245.879 214.684 245.783 215.304 245.615 215.88C245.447 216.456 245.215 216.96 244.919 217.392L244.907 217.092C245.115 217.316 245.363 217.54 245.651 217.764C245.947 217.98 246.263 218.164 246.599 218.316L246.179 219.108ZM241.775 218.232C242.231 218.232 242.639 218.14 242.999 217.956C243.367 217.772 243.683 217.504 243.947 217.152L243.923 217.452L241.331 214.728H241.763L241.403 214.956C241.083 215.164 240.819 215.364 240.611 215.556C240.403 215.748 240.247 215.948 240.143 216.156C240.047 216.364 239.999 216.604 239.999 216.876C239.999 217.3 240.147 217.632 240.443 217.872C240.747 218.112 241.191 218.232 241.775 218.232ZM242.099 211.224C241.747 211.224 241.463 211.324 241.247 211.524C241.039 211.724 240.935 211.988 240.935 212.316C240.935 212.484 240.963 212.644 241.019 212.796C241.083 212.94 241.183 213.1 241.319 213.276C241.463 213.444 241.651 213.66 241.883 213.924L241.595 213.96C242.139 213.632 242.531 213.34 242.771 213.084C243.019 212.828 243.143 212.544 243.143 212.232C243.143 211.92 243.047 211.676 242.855 211.5C242.671 211.316 242.419 211.224 242.099 211.224ZM250.745 219V210.54H251.861V219H250.745ZM255.889 219.108C255.401 219.108 254.945 219.044 254.521 218.916C254.105 218.788 253.761 218.604 253.489 218.364L253.837 217.608C254.133 217.832 254.457 218.004 254.809 218.124C255.169 218.236 255.537 218.292 255.913 218.292C256.369 218.292 256.713 218.208 256.945 218.04C257.185 217.872 257.305 217.648 257.305 217.368C257.305 217.144 257.229 216.964 257.077 216.828C256.925 216.692 256.685 216.592 256.357 216.528L255.217 216.3C254.705 216.18 254.317 215.988 254.053 215.724C253.797 215.452 253.669 215.104 253.669 214.68C253.669 214.328 253.765 214.016 253.957 213.744C254.149 213.464 254.421 213.248 254.773 213.096C255.133 212.936 255.553 212.856 256.033 212.856C256.473 212.856 256.881 212.92 257.257 213.048C257.641 213.176 257.957 213.364 258.205 213.612L257.845 214.344C257.597 214.128 257.317 213.964 257.005 213.852C256.701 213.732 256.389 213.672 256.069 213.672C255.605 213.672 255.261 213.764 255.037 213.948C254.813 214.124 254.701 214.356 254.701 214.644C254.701 214.86 254.769 215.04 254.905 215.184C255.041 215.32 255.261 215.424 255.565 215.496L256.705 215.724C257.241 215.836 257.645 216.02 257.917 216.276C258.189 216.532 258.325 216.872 258.325 217.296C258.325 217.672 258.221 217.996 258.013 218.268C257.813 218.54 257.529 218.748 257.161 218.892C256.801 219.036 256.377 219.108 255.889 219.108ZM259.874 219V212.964H260.966V219H259.874ZM259.778 211.644V210.468H261.074V211.644H259.778ZM265.396 219.108C264.804 219.108 264.292 218.984 263.86 218.736C263.428 218.48 263.092 218.12 262.852 217.656C262.612 217.184 262.492 216.624 262.492 215.976C262.492 215.336 262.612 214.784 262.852 214.32C263.092 213.848 263.428 213.488 263.86 213.24C264.292 212.984 264.804 212.856 265.396 212.856C265.988 212.856 266.5 212.984 266.932 213.24C267.372 213.488 267.708 213.848 267.94 214.32C268.18 214.784 268.3 215.336 268.3 215.976C268.3 216.624 268.18 217.184 267.94 217.656C267.708 218.12 267.372 218.48 266.932 218.736C266.5 218.984 265.988 219.108 265.396 219.108ZM265.396 218.244C265.94 218.244 266.376 218.052 266.704 217.668C267.032 217.284 267.196 216.72 267.196 215.976C267.196 215.232 267.032 214.672 266.704 214.296C266.376 213.92 265.94 213.732 265.396 213.732C264.844 213.732 264.404 213.92 264.076 214.296C263.756 214.672 263.596 215.232 263.596 215.976C263.596 216.72 263.756 217.284 264.076 217.668C264.404 218.052 264.844 218.244 265.396 218.244ZM269.826 219V210.168H270.918V219H269.826ZM275.348 219.108C274.756 219.108 274.244 218.984 273.812 218.736C273.38 218.48 273.044 218.12 272.804 217.656C272.564 217.184 272.444 216.624 272.444 215.976C272.444 215.336 272.564 214.784 272.804 214.32C273.044 213.848 273.38 213.488 273.812 213.24C274.244 212.984 274.756 212.856 275.348 212.856C275.94 212.856 276.452 212.984 276.884 213.24C277.324 213.488 277.66 213.848 277.892 214.32C278.132 214.784 278.252 215.336 278.252 215.976C278.252 216.624 278.132 217.184 277.892 217.656C277.66 218.12 277.324 218.48 276.884 218.736C276.452 218.984 275.94 219.108 275.348 219.108ZM275.348 218.244C275.892 218.244 276.328 218.052 276.656 217.668C276.984 217.284 277.148 216.72 277.148 215.976C277.148 215.232 276.984 214.672 276.656 214.296C276.328 213.92 275.892 213.732 275.348 213.732C274.796 213.732 274.356 213.92 274.028 214.296C273.708 214.672 273.548 215.232 273.548 215.976C273.548 216.72 273.708 217.284 274.028 217.668C274.356 218.052 274.796 218.244 275.348 218.244Z" fill="black"/>
</svg>
