<svg width="448" height="250" viewBox="0 0 448 250" fill="none" xmlns="http://www.w3.org/2000/svg">
<rect width="448" height="249" transform="translate(0 0.5)" fill="#633001"/>
<path d="M143 57.5L150.656 40.58H153.248L161 57.5H157.856L155.792 52.748L157.04 53.588H146.888L148.184 52.748L146.12 57.5H143ZM151.928 43.892L148.544 51.908L147.92 51.164H155.984L155.48 51.908L152.024 43.892H151.928ZM162.608 57.5V48.476C162.608 47.964 162.592 47.444 162.56 46.916C162.544 46.388 162.504 45.876 162.44 45.38H165.344L165.68 48.692H165.2C165.36 47.892 165.624 47.228 165.992 46.7C166.376 46.172 166.84 45.78 167.384 45.524C167.928 45.268 168.52 45.14 169.16 45.14C169.448 45.14 169.68 45.156 169.856 45.188C170.032 45.204 170.208 45.244 170.384 45.308L170.36 47.948C170.056 47.82 169.792 47.74 169.568 47.708C169.36 47.676 169.096 47.66 168.776 47.66C168.088 47.66 167.504 47.804 167.024 48.092C166.56 48.38 166.208 48.78 165.968 49.292C165.744 49.804 165.632 50.388 165.632 51.044V57.5H162.608ZM177.918 57.74C176.478 57.74 175.39 57.364 174.654 56.612C173.918 55.86 173.55 54.732 173.55 53.228V47.636H171.222V45.38H173.55V42.284L176.55 41.516V45.38H179.79V47.636H176.55V53.036C176.55 53.868 176.71 54.452 177.03 54.788C177.35 55.124 177.79 55.292 178.35 55.292C178.654 55.292 178.91 55.268 179.118 55.22C179.342 55.172 179.558 55.108 179.766 55.028V57.404C179.494 57.516 179.19 57.596 178.854 57.644C178.534 57.708 178.222 57.74 177.918 57.74ZM181.686 52.076V49.7H188.982V52.076H181.686ZM192.474 57.5V40.58H195.57V54.884H203.538V57.5H192.474ZM205.663 57.5V45.38H208.663V57.5H205.663ZM205.495 43.1V40.172H208.831V43.1H205.495ZM212.737 57.5V47.636H210.409V45.38H213.577L212.737 46.148V44.3C212.737 42.796 213.121 41.66 213.889 40.892C214.673 40.124 215.817 39.74 217.321 39.74C217.673 39.74 218.041 39.764 218.425 39.812C218.825 39.86 219.169 39.948 219.457 40.076V42.428C219.249 42.348 219.001 42.284 218.713 42.236C218.425 42.188 218.145 42.164 217.873 42.164C217.457 42.164 217.081 42.244 216.745 42.404C216.425 42.564 216.169 42.812 215.977 43.148C215.801 43.468 215.713 43.9 215.713 44.444V45.908L215.281 45.38H218.905V47.636H215.737V57.5H212.737ZM226.308 57.74C224.276 57.74 222.684 57.18 221.532 56.06C220.38 54.94 219.804 53.404 219.804 51.452C219.804 50.188 220.052 49.084 220.548 48.14C221.044 47.196 221.732 46.46 222.612 45.932C223.508 45.404 224.548 45.14 225.732 45.14C226.9 45.14 227.876 45.388 228.66 45.884C229.444 46.38 230.036 47.076 230.436 47.972C230.852 48.868 231.06 49.916 231.06 51.116V51.908H222.228V50.324H228.924L228.516 50.66C228.516 49.54 228.276 48.684 227.796 48.092C227.332 47.5 226.652 47.204 225.756 47.204C224.764 47.204 223.996 47.556 223.452 48.26C222.924 48.964 222.66 49.948 222.66 51.212V51.524C222.66 52.836 222.98 53.82 223.62 54.476C224.276 55.116 225.196 55.436 226.38 55.436C227.068 55.436 227.708 55.348 228.3 55.172C228.908 54.98 229.484 54.676 230.028 54.26L230.916 56.276C230.34 56.74 229.652 57.1 228.852 57.356C228.052 57.612 227.204 57.74 226.308 57.74ZM233.881 52.076V49.7H241.177V52.076H233.881ZM244.669 57.5V40.58H247.765V47.636H256.429V40.58H259.525V57.5H256.429V50.204H247.765V57.5H244.669ZM268.487 57.74C267.239 57.74 266.159 57.484 265.247 56.972C264.335 56.46 263.623 55.732 263.111 54.788C262.615 53.844 262.367 52.724 262.367 51.428C262.367 50.132 262.615 49.02 263.111 48.092C263.623 47.148 264.335 46.42 265.247 45.908C266.159 45.396 267.239 45.14 268.487 45.14C269.735 45.14 270.815 45.396 271.727 45.908C272.655 46.42 273.367 47.148 273.863 48.092C274.375 49.02 274.631 50.132 274.631 51.428C274.631 52.724 274.375 53.844 273.863 54.788C273.367 55.732 272.655 56.46 271.727 56.972C270.815 57.484 269.735 57.74 268.487 57.74ZM268.487 55.436C269.431 55.436 270.183 55.108 270.743 54.452C271.303 53.78 271.583 52.772 271.583 51.428C271.583 50.084 271.303 49.084 270.743 48.428C270.183 47.772 269.431 47.444 268.487 47.444C267.543 47.444 266.791 47.772 266.231 48.428C265.671 49.084 265.391 50.084 265.391 51.428C265.391 52.772 265.671 53.78 266.231 54.452C266.791 55.108 267.543 55.436 268.487 55.436ZM282.69 57.74C281.442 57.74 280.362 57.484 279.45 56.972C278.538 56.46 277.826 55.732 277.314 54.788C276.818 53.844 276.57 52.724 276.57 51.428C276.57 50.132 276.818 49.02 277.314 48.092C277.826 47.148 278.538 46.42 279.45 45.908C280.362 45.396 281.442 45.14 282.69 45.14C283.938 45.14 285.018 45.396 285.93 45.908C286.858 46.42 287.57 47.148 288.066 48.092C288.578 49.02 288.834 50.132 288.834 51.428C288.834 52.724 288.578 53.844 288.066 54.788C287.57 55.732 286.858 56.46 285.93 56.972C285.018 57.484 283.938 57.74 282.69 57.74ZM282.69 55.436C283.634 55.436 284.386 55.108 284.946 54.452C285.506 53.78 285.786 52.772 285.786 51.428C285.786 50.084 285.506 49.084 284.946 48.428C284.386 47.772 283.634 47.444 282.69 47.444C281.746 47.444 280.994 47.772 280.434 48.428C279.874 49.084 279.594 50.084 279.594 51.428C279.594 52.772 279.874 53.78 280.434 54.452C280.994 55.108 281.746 55.436 282.69 55.436ZM296.125 57.74C295.069 57.74 294.133 57.492 293.317 56.996C292.517 56.484 291.893 55.756 291.445 54.812C290.997 53.868 290.773 52.74 290.773 51.428C290.773 50.116 290.997 48.996 291.445 48.068C291.893 47.124 292.517 46.404 293.317 45.908C294.133 45.396 295.069 45.14 296.125 45.14C297.133 45.14 298.021 45.388 298.789 45.884C299.573 46.364 300.093 47.02 300.349 47.852H300.037V39.836H303.037V57.5H300.085V54.932H300.373C300.117 55.796 299.597 56.484 298.813 56.996C298.045 57.492 297.149 57.74 296.125 57.74ZM296.965 55.436C297.909 55.436 298.669 55.108 299.245 54.452C299.821 53.78 300.109 52.772 300.109 51.428C300.109 50.084 299.821 49.084 299.245 48.428C298.669 47.772 297.909 47.444 296.965 47.444C296.021 47.444 295.253 47.772 294.661 48.428C294.085 49.084 293.797 50.084 293.797 51.428C293.797 52.772 294.085 53.78 294.661 54.452C295.253 55.108 296.021 55.436 296.965 55.436Z" fill="#FFFCFC"/>
<path d="M139.746 114.5L144.77 103.22H146.194L151.298 114.5H149.586L148.194 111.3L148.898 111.748H142.066L142.818 111.3L141.426 114.5H139.746ZM145.458 105.044L143.026 110.788L142.642 110.42H148.322L148.002 110.788L145.522 105.044H145.458ZM157.911 117.956V108.372C157.911 108.063 157.895 107.748 157.863 107.428C157.841 107.097 157.815 106.767 157.783 106.436H159.351L159.511 108.26H159.335C159.505 107.652 159.847 107.172 160.359 106.82C160.881 106.468 161.5 106.292 162.215 106.292C162.929 106.292 163.553 106.463 164.087 106.804C164.62 107.135 165.031 107.609 165.319 108.228C165.617 108.847 165.767 109.593 165.767 110.468C165.767 111.332 165.617 112.079 165.319 112.708C165.031 113.337 164.62 113.817 164.087 114.148C163.553 114.479 162.929 114.644 162.215 114.644C161.511 114.644 160.897 114.473 160.375 114.132C159.863 113.78 159.521 113.305 159.351 112.708H159.527V117.956H157.911ZM161.815 113.38C162.519 113.38 163.079 113.135 163.495 112.644C163.921 112.153 164.135 111.428 164.135 110.468C164.135 109.508 163.921 108.788 163.495 108.308C163.079 107.817 162.519 107.572 161.815 107.572C161.111 107.572 160.545 107.817 160.119 108.308C159.703 108.788 159.495 109.508 159.495 110.468C159.495 111.428 159.703 112.153 160.119 112.644C160.545 113.135 161.111 113.38 161.815 113.38ZM168.161 114.5V102.724H169.777V114.5H168.161ZM175.733 114.644C175.018 114.644 174.394 114.479 173.861 114.148C173.328 113.817 172.912 113.337 172.613 112.708C172.325 112.079 172.181 111.332 172.181 110.468C172.181 109.593 172.325 108.847 172.613 108.228C172.912 107.609 173.328 107.135 173.861 106.804C174.394 106.463 175.018 106.292 175.733 106.292C176.437 106.292 177.05 106.468 177.573 106.82C178.096 107.172 178.442 107.652 178.613 108.26H178.437L178.597 106.436H180.165C180.133 106.767 180.101 107.097 180.069 107.428C180.048 107.748 180.037 108.063 180.037 108.372V114.5H178.421V112.708H178.597C178.426 113.305 178.074 113.78 177.541 114.132C177.018 114.473 176.416 114.644 175.733 114.644ZM176.133 113.38C176.826 113.38 177.381 113.135 177.797 112.644C178.224 112.153 178.437 111.428 178.437 110.468C178.437 109.508 178.224 108.788 177.797 108.308C177.381 107.817 176.826 107.572 176.133 107.572C175.429 107.572 174.864 107.817 174.437 108.308C174.021 108.788 173.813 109.508 173.813 110.468C173.813 111.428 174.021 112.153 174.437 112.644C174.853 113.135 175.418 113.38 176.133 113.38ZM186.431 114.644C185.62 114.644 184.911 114.479 184.303 114.148C183.706 113.807 183.242 113.321 182.911 112.692C182.591 112.052 182.431 111.295 182.431 110.42C182.431 109.556 182.596 108.815 182.927 108.196C183.258 107.577 183.722 107.108 184.319 106.788C184.916 106.457 185.62 106.292 186.431 106.292C186.954 106.292 187.46 106.383 187.951 106.564C188.442 106.735 188.847 106.98 189.167 107.3L188.639 108.436C188.34 108.148 188.004 107.935 187.631 107.796C187.258 107.647 186.895 107.572 186.543 107.572C185.775 107.572 185.172 107.817 184.735 108.308C184.298 108.799 184.079 109.508 184.079 110.436C184.079 111.375 184.298 112.095 184.735 112.596C185.172 113.097 185.775 113.348 186.543 113.348C186.884 113.348 187.242 113.284 187.615 113.156C187.988 113.017 188.33 112.799 188.639 112.5L189.167 113.636C188.836 113.956 188.42 114.207 187.919 114.388C187.428 114.559 186.932 114.644 186.431 114.644ZM194.951 114.644C193.65 114.644 192.626 114.276 191.879 113.54C191.132 112.804 190.759 111.785 190.759 110.484C190.759 109.641 190.919 108.905 191.239 108.276C191.57 107.647 192.023 107.161 192.599 106.82C193.186 106.468 193.863 106.292 194.631 106.292C195.388 106.292 196.023 106.452 196.535 106.772C197.047 107.092 197.436 107.545 197.703 108.132C197.97 108.708 198.103 109.391 198.103 110.18V110.692H192.023V109.764H196.999L196.727 109.972C196.727 109.172 196.546 108.553 196.183 108.116C195.831 107.668 195.319 107.444 194.647 107.444C193.9 107.444 193.324 107.705 192.919 108.228C192.514 108.74 192.311 109.449 192.311 110.356V110.516C192.311 111.465 192.54 112.18 192.999 112.66C193.468 113.14 194.13 113.38 194.983 113.38C195.452 113.38 195.89 113.316 196.295 113.188C196.711 113.049 197.106 112.825 197.479 112.516L198.007 113.62C197.634 113.951 197.18 114.207 196.647 114.388C196.114 114.559 195.548 114.644 194.951 114.644ZM207.415 114.5L204.359 106.436H206.039L208.423 113.156H208.007L210.455 106.436H211.703L214.135 113.156H213.735L216.119 106.436H217.735L214.663 114.5H213.191L210.663 107.652H211.415L208.919 114.5H207.415ZM219.723 114.5V102.724H221.339V108.148H221.115C221.35 107.54 221.728 107.081 222.251 106.772C222.774 106.452 223.376 106.292 224.059 106.292C225.019 106.292 225.734 106.559 226.203 107.092C226.672 107.615 226.907 108.409 226.907 109.476V114.5H225.291V109.572C225.291 108.879 225.152 108.377 224.875 108.068C224.608 107.748 224.182 107.588 223.595 107.588C222.912 107.588 222.363 107.801 221.947 108.228C221.542 108.644 221.339 109.199 221.339 109.892V114.5H219.723ZM233.435 114.644C232.134 114.644 231.11 114.276 230.363 113.54C229.617 112.804 229.243 111.785 229.243 110.484C229.243 109.641 229.403 108.905 229.723 108.276C230.054 107.647 230.507 107.161 231.083 106.82C231.67 106.468 232.347 106.292 233.115 106.292C233.873 106.292 234.507 106.452 235.019 106.772C235.531 107.092 235.921 107.545 236.187 108.132C236.454 108.708 236.587 109.391 236.587 110.18V110.692H230.507V109.764H235.483L235.211 109.972C235.211 109.172 235.03 108.553 234.667 108.116C234.315 107.668 233.803 107.444 233.131 107.444C232.385 107.444 231.809 107.705 231.403 108.228C230.998 108.74 230.795 109.449 230.795 110.356V110.516C230.795 111.465 231.025 112.18 231.483 112.66C231.953 113.14 232.614 113.38 233.467 113.38C233.937 113.38 234.374 113.316 234.779 113.188C235.195 113.049 235.59 112.825 235.963 112.516L236.491 113.62C236.118 113.951 235.665 114.207 235.131 114.388C234.598 114.559 234.033 114.644 233.435 114.644ZM238.91 114.5V108.436C238.91 108.105 238.899 107.775 238.878 107.444C238.867 107.103 238.846 106.767 238.814 106.436H240.382L240.558 108.516H240.302C240.408 108.015 240.59 107.599 240.846 107.268C241.102 106.937 241.411 106.692 241.774 106.532C242.147 106.372 242.536 106.292 242.942 106.292C243.112 106.292 243.256 106.303 243.374 106.324C243.491 106.335 243.608 106.356 243.726 106.388L243.71 107.828C243.528 107.753 243.368 107.711 243.23 107.7C243.102 107.679 242.942 107.668 242.75 107.668C242.28 107.668 241.88 107.775 241.55 107.988C241.219 108.191 240.968 108.468 240.798 108.82C240.627 109.172 240.542 109.551 240.542 109.956V114.5H238.91ZM249.092 114.644C247.79 114.644 246.766 114.276 246.02 113.54C245.273 112.804 244.9 111.785 244.9 110.484C244.9 109.641 245.06 108.905 245.38 108.276C245.71 107.647 246.164 107.161 246.74 106.82C247.326 106.468 248.004 106.292 248.772 106.292C249.529 106.292 250.164 106.452 250.676 106.772C251.188 107.092 251.577 107.545 251.844 108.132C252.11 108.708 252.244 109.391 252.244 110.18V110.692H246.164V109.764H251.14L250.868 109.972C250.868 109.172 250.686 108.553 250.324 108.116C249.972 107.668 249.46 107.444 248.788 107.444C248.041 107.444 247.465 107.705 247.06 108.228C246.654 108.74 246.452 109.449 246.452 110.356V110.516C246.452 111.465 246.681 112.18 247.14 112.66C247.609 113.14 248.27 113.38 249.124 113.38C249.593 113.38 250.03 113.316 250.436 113.188C250.852 113.049 251.246 112.825 251.62 112.516L252.148 113.62C251.774 113.951 251.321 114.207 250.788 114.388C250.254 114.559 249.689 114.644 249.092 114.644ZM258.34 114.5L263.364 103.22H264.788L269.892 114.5H268.18L266.788 111.3L267.492 111.748H260.66L261.412 111.3L260.02 114.5H258.34ZM264.052 105.044L261.62 110.788L261.236 110.42H266.916L266.596 110.788L264.116 105.044H264.052ZM271.707 114.5V108.436C271.707 108.105 271.696 107.775 271.675 107.444C271.664 107.103 271.643 106.767 271.611 106.436H273.179L273.355 108.516H273.099C273.205 108.015 273.387 107.599 273.643 107.268C273.899 106.937 274.208 106.692 274.571 106.532C274.944 106.372 275.333 106.292 275.739 106.292C275.909 106.292 276.053 106.303 276.171 106.324C276.288 106.335 276.405 106.356 276.523 106.388L276.507 107.828C276.325 107.753 276.165 107.711 276.027 107.7C275.899 107.679 275.739 107.668 275.547 107.668C275.077 107.668 274.677 107.775 274.347 107.988C274.016 108.191 273.765 108.468 273.595 108.82C273.424 109.172 273.339 109.551 273.339 109.956V114.5H271.707ZM281.843 114.644C280.969 114.644 280.307 114.409 279.859 113.94C279.411 113.46 279.187 112.745 279.187 111.796V107.684H277.619V106.436H279.187V104.308L280.803 103.876V106.436H283.043V107.684H280.803V111.652C280.803 112.249 280.91 112.676 281.123 112.932C281.337 113.188 281.646 113.316 282.051 113.316C282.254 113.316 282.43 113.3 282.579 113.268C282.739 113.225 282.883 113.177 283.011 113.124V114.436C282.851 114.5 282.665 114.548 282.451 114.58C282.238 114.623 282.035 114.644 281.843 114.644ZM287.788 114.644C287.116 114.644 286.497 114.559 285.932 114.388C285.367 114.217 284.897 113.977 284.524 113.668L285.02 112.564C285.415 112.863 285.852 113.087 286.332 113.236C286.812 113.385 287.303 113.46 287.804 113.46C288.391 113.46 288.833 113.359 289.132 113.156C289.431 112.943 289.58 112.655 289.58 112.292C289.58 112.015 289.484 111.791 289.292 111.62C289.111 111.449 288.807 111.321 288.38 111.236L286.844 110.932C286.161 110.783 285.644 110.527 285.292 110.164C284.94 109.801 284.764 109.337 284.764 108.772C284.764 108.292 284.892 107.865 285.148 107.492C285.415 107.119 285.788 106.825 286.268 106.612C286.759 106.399 287.329 106.292 287.98 106.292C288.577 106.292 289.132 106.377 289.644 106.548C290.156 106.719 290.583 106.964 290.924 107.284L290.412 108.356C290.081 108.079 289.708 107.865 289.292 107.716C288.876 107.556 288.455 107.476 288.028 107.476C287.431 107.476 286.988 107.588 286.7 107.812C286.412 108.036 286.268 108.329 286.268 108.692C286.268 108.969 286.353 109.199 286.524 109.38C286.705 109.551 286.988 109.684 287.372 109.78L288.908 110.084C289.633 110.233 290.177 110.479 290.54 110.82C290.903 111.161 291.084 111.62 291.084 112.196C291.084 112.697 290.945 113.135 290.668 113.508C290.391 113.881 290.007 114.164 289.516 114.356C289.025 114.548 288.449 114.644 287.788 114.644ZM307.55 114.644C307.06 114.452 306.596 114.201 306.158 113.892C305.721 113.583 305.337 113.268 305.006 112.948L305.374 112.964C304.905 113.487 304.345 113.897 303.694 114.196C303.044 114.495 302.345 114.644 301.598 114.644C300.798 114.644 300.11 114.521 299.534 114.276C298.969 114.031 298.532 113.689 298.222 113.252C297.924 112.815 297.774 112.303 297.774 111.716C297.774 110.98 297.988 110.356 298.414 109.844C298.841 109.332 299.438 108.836 300.206 108.356L300.734 108.036L300.494 108.34C300.014 107.839 299.662 107.38 299.438 106.964C299.214 106.537 299.102 106.095 299.102 105.636C299.102 105.124 299.225 104.676 299.47 104.292C299.716 103.908 300.057 103.609 300.494 103.396C300.942 103.183 301.47 103.076 302.078 103.076C302.857 103.076 303.492 103.289 303.982 103.716C304.484 104.132 304.734 104.708 304.734 105.444C304.734 105.828 304.654 106.196 304.494 106.548C304.345 106.889 304.089 107.22 303.726 107.54C303.374 107.86 302.894 108.196 302.286 108.548L302.334 108.212L305.294 111.364H304.958C305.236 110.916 305.449 110.388 305.598 109.78C305.748 109.161 305.838 108.505 305.87 107.812H307.246C307.225 108.697 307.097 109.529 306.862 110.308C306.628 111.076 306.313 111.753 305.918 112.34L305.902 111.908C306.18 112.207 306.51 112.495 306.894 112.772C307.278 113.049 307.694 113.284 308.142 113.476L307.55 114.644ZM301.662 113.364C302.26 113.364 302.788 113.252 303.246 113.028C303.716 112.793 304.121 112.452 304.462 112.004L304.43 112.42L301.006 108.852L301.646 108.868L301.166 109.156C300.761 109.412 300.425 109.668 300.158 109.924C299.892 110.169 299.694 110.425 299.566 110.692C299.438 110.959 299.374 111.268 299.374 111.62C299.374 112.164 299.566 112.591 299.95 112.9C300.345 113.209 300.916 113.364 301.662 113.364ZM302.078 104.212C301.63 104.212 301.268 104.34 300.99 104.596C300.724 104.852 300.59 105.193 300.59 105.62C300.59 105.833 300.628 106.036 300.702 106.228C300.777 106.42 300.905 106.633 301.086 106.868C301.268 107.092 301.513 107.369 301.822 107.7L301.406 107.732C302.11 107.327 302.622 106.959 302.942 106.628C303.262 106.297 303.422 105.924 303.422 105.508C303.422 105.113 303.3 104.799 303.054 104.564C302.809 104.329 302.484 104.212 302.078 104.212ZM100.767 138.644C99.6152 138.644 98.6339 138.409 97.8232 137.94C97.0125 137.471 96.3885 136.804 95.9512 135.94C95.5245 135.065 95.3112 134.036 95.3112 132.852C95.3112 131.668 95.5245 130.644 95.9512 129.78C96.3885 128.916 97.0125 128.249 97.8232 127.78C98.6339 127.311 99.6152 127.076 100.767 127.076C101.567 127.076 102.282 127.193 102.911 127.428C103.541 127.663 104.09 128.004 104.559 128.452L103.983 129.78C103.471 129.343 102.97 129.028 102.479 128.836C101.999 128.644 101.439 128.548 100.799 128.548C99.5832 128.548 98.6552 128.921 98.0152 129.668C97.3752 130.415 97.0552 131.476 97.0552 132.852C97.0552 134.228 97.3752 135.295 98.0152 136.052C98.6552 136.799 99.5832 137.172 100.799 137.172C101.439 137.172 101.999 137.076 102.479 136.884C102.97 136.692 103.471 136.372 103.983 135.924L104.559 137.252C104.09 137.7 103.541 138.047 102.911 138.292C102.282 138.527 101.567 138.644 100.767 138.644ZM109.898 138.644C109.098 138.644 108.404 138.479 107.818 138.148C107.231 137.807 106.778 137.327 106.458 136.708C106.138 136.079 105.978 135.332 105.978 134.468C105.978 133.604 106.138 132.863 106.458 132.244C106.778 131.615 107.231 131.135 107.818 130.804C108.404 130.463 109.098 130.292 109.898 130.292C110.698 130.292 111.391 130.463 111.978 130.804C112.575 131.135 113.034 131.615 113.354 132.244C113.684 132.863 113.85 133.604 113.85 134.468C113.85 135.332 113.684 136.079 113.354 136.708C113.034 137.327 112.575 137.807 111.978 138.148C111.391 138.479 110.698 138.644 109.898 138.644ZM109.898 137.38C110.602 137.38 111.162 137.135 111.578 136.644C111.994 136.153 112.202 135.428 112.202 134.468C112.202 133.508 111.994 132.788 111.578 132.308C111.162 131.817 110.602 131.572 109.898 131.572C109.204 131.572 108.65 131.817 108.234 132.308C107.818 132.788 107.61 133.508 107.61 134.468C107.61 135.428 107.812 136.153 108.218 136.644C108.634 137.135 109.194 137.38 109.898 137.38ZM116.239 138.5V132.372C116.239 132.063 116.223 131.748 116.191 131.428C116.169 131.097 116.143 130.767 116.111 130.436H117.679L117.823 132.132H117.631C117.855 131.545 118.196 131.092 118.655 130.772C119.124 130.452 119.684 130.292 120.335 130.292C120.996 130.292 121.535 130.452 121.951 130.772C122.377 131.081 122.671 131.561 122.831 132.212H122.575C122.788 131.625 123.151 131.161 123.663 130.82C124.175 130.468 124.767 130.292 125.439 130.292C126.335 130.292 127.007 130.553 127.455 131.076C127.903 131.599 128.127 132.409 128.127 133.508V138.5H126.511V133.588C126.511 132.884 126.388 132.377 126.143 132.068C125.908 131.748 125.524 131.588 124.991 131.588C124.372 131.588 123.881 131.801 123.519 132.228C123.156 132.655 122.975 133.231 122.975 133.956V138.5H121.359V133.588C121.359 132.884 121.236 132.377 120.991 132.068C120.756 131.748 120.372 131.588 119.839 131.588C119.22 131.588 118.735 131.801 118.383 132.228C118.031 132.655 117.855 133.231 117.855 133.956V138.5H116.239ZM130.942 138.5V132.372C130.942 132.063 130.926 131.748 130.894 131.428C130.872 131.097 130.846 130.767 130.814 130.436H132.382L132.526 132.132H132.334C132.558 131.545 132.899 131.092 133.358 130.772C133.827 130.452 134.387 130.292 135.038 130.292C135.699 130.292 136.238 130.452 136.654 130.772C137.08 131.081 137.374 131.561 137.534 132.212H137.278C137.491 131.625 137.854 131.161 138.366 130.82C138.878 130.468 139.47 130.292 140.142 130.292C141.038 130.292 141.71 130.553 142.158 131.076C142.606 131.599 142.83 132.409 142.83 133.508V138.5H141.214V133.588C141.214 132.884 141.091 132.377 140.846 132.068C140.611 131.748 140.227 131.588 139.694 131.588C139.075 131.588 138.584 131.801 138.222 132.228C137.859 132.655 137.678 133.231 137.678 133.956V138.5H136.062V133.588C136.062 132.884 135.939 132.377 135.694 132.068C135.459 131.748 135.075 131.588 134.542 131.588C133.923 131.588 133.438 131.801 133.086 132.228C132.734 132.655 132.558 133.231 132.558 133.956V138.5H130.942ZM148.509 138.644C147.538 138.644 146.808 138.383 146.317 137.86C145.837 137.327 145.597 136.511 145.597 135.412V130.436H147.213V135.38C147.213 136.052 147.352 136.548 147.629 136.868C147.906 137.188 148.328 137.348 148.893 137.348C149.533 137.348 150.05 137.135 150.445 136.708C150.84 136.281 151.037 135.716 151.037 135.012V130.436H152.653V138.5H151.085V136.772H151.293C151.069 137.369 150.712 137.833 150.221 138.164C149.73 138.484 149.16 138.644 148.509 138.644ZM155.52 138.5V132.372C155.52 132.063 155.504 131.748 155.472 131.428C155.451 131.097 155.424 130.767 155.392 130.436H156.96L157.104 132.132H156.912C157.157 131.535 157.536 131.081 158.048 130.772C158.56 130.452 159.152 130.292 159.824 130.292C160.773 130.292 161.488 130.553 161.968 131.076C162.459 131.599 162.704 132.409 162.704 133.508V138.5H161.088V133.604C161.088 132.889 160.944 132.377 160.656 132.068C160.379 131.748 159.952 131.588 159.376 131.588C158.693 131.588 158.149 131.801 157.744 132.228C157.339 132.644 157.136 133.209 157.136 133.924V138.5H155.52ZM165.504 138.5V130.436H167.12V138.5H165.504ZM165.376 128.756V127.076H167.248V128.756H165.376ZM173.125 138.644C172.25 138.644 171.589 138.409 171.141 137.94C170.693 137.46 170.469 136.745 170.469 135.796V131.684H168.901V130.436H170.469V128.308L172.085 127.876V130.436H174.325V131.684H172.085V135.652C172.085 136.249 172.191 136.676 172.405 136.932C172.618 137.188 172.927 137.316 173.333 137.316C173.535 137.316 173.711 137.3 173.861 137.268C174.021 137.225 174.165 137.177 174.293 137.124V138.436C174.133 138.5 173.946 138.548 173.733 138.58C173.519 138.623 173.317 138.644 173.125 138.644ZM176.171 142.132L175.787 140.82C176.288 140.713 176.704 140.585 177.035 140.436C177.376 140.287 177.659 140.089 177.883 139.844C178.107 139.609 178.299 139.305 178.459 138.932L178.859 137.988L178.827 138.644L175.323 130.436H177.051L179.771 137.156H179.339L182.059 130.436H183.723L180.027 139.076C179.792 139.609 179.541 140.057 179.275 140.42C179.008 140.783 178.72 141.076 178.411 141.3C178.101 141.524 177.76 141.7 177.387 141.828C177.013 141.956 176.608 142.057 176.171 142.132ZM193.982 138.644C192.681 138.644 191.657 138.276 190.91 137.54C190.164 136.804 189.79 135.785 189.79 134.484C189.79 133.641 189.95 132.905 190.27 132.276C190.601 131.647 191.054 131.161 191.63 130.82C192.217 130.468 192.894 130.292 193.662 130.292C194.42 130.292 195.054 130.452 195.566 130.772C196.078 131.092 196.468 131.545 196.734 132.132C197.001 132.708 197.134 133.391 197.134 134.18V134.692H191.054V133.764H196.03L195.758 133.972C195.758 133.172 195.577 132.553 195.214 132.116C194.862 131.668 194.35 131.444 193.678 131.444C192.932 131.444 192.356 131.705 191.95 132.228C191.545 132.74 191.342 133.449 191.342 134.356V134.516C191.342 135.465 191.572 136.18 192.03 136.66C192.5 137.14 193.161 137.38 194.014 137.38C194.484 137.38 194.921 137.316 195.326 137.188C195.742 137.049 196.137 136.825 196.51 136.516L197.038 137.62C196.665 137.951 196.212 138.207 195.678 138.388C195.145 138.559 194.58 138.644 193.982 138.644ZM199.489 138.5V132.372C199.489 132.063 199.473 131.748 199.441 131.428C199.419 131.097 199.393 130.767 199.361 130.436H200.929L201.073 132.132H200.881C201.126 131.535 201.505 131.081 202.017 130.772C202.529 130.452 203.121 130.292 203.793 130.292C204.742 130.292 205.457 130.553 205.937 131.076C206.427 131.599 206.673 132.409 206.673 133.508V138.5H205.057V133.604C205.057 132.889 204.913 132.377 204.625 132.068C204.347 131.748 203.921 131.588 203.345 131.588C202.662 131.588 202.118 131.801 201.713 132.228C201.307 132.644 201.105 133.209 201.105 133.924V138.5H199.489ZM213.105 142.084C212.38 142.084 211.718 141.999 211.121 141.828C210.534 141.657 210.006 141.401 209.537 141.06L209.937 139.876C210.268 140.1 210.593 140.276 210.913 140.404C211.233 140.543 211.569 140.644 211.921 140.708C212.273 140.772 212.636 140.804 213.009 140.804C213.777 140.804 214.353 140.607 214.737 140.212C215.132 139.828 215.329 139.268 215.329 138.532V136.372H215.489C215.318 136.969 214.966 137.444 214.433 137.796C213.91 138.137 213.302 138.308 212.609 138.308C211.873 138.308 211.233 138.148 210.689 137.828C210.156 137.497 209.74 137.033 209.441 136.436C209.153 135.828 209.009 135.113 209.009 134.292C209.009 133.471 209.153 132.761 209.441 132.164C209.74 131.567 210.156 131.108 210.689 130.788C211.233 130.457 211.873 130.292 212.609 130.292C213.313 130.292 213.921 130.468 214.433 130.82C214.956 131.161 215.302 131.631 215.473 132.228L215.329 132.1L215.473 130.436H217.041C216.998 130.767 216.966 131.097 216.945 131.428C216.924 131.748 216.913 132.063 216.913 132.372V138.34C216.913 139.556 216.588 140.484 215.937 141.124C215.297 141.764 214.353 142.084 213.105 142.084ZM212.993 137.044C213.697 137.044 214.257 136.804 214.673 136.324C215.1 135.844 215.313 135.167 215.313 134.292C215.313 133.417 215.1 132.745 214.673 132.276C214.257 131.807 213.697 131.572 212.993 131.572C212.268 131.572 211.692 131.807 211.265 132.276C210.849 132.745 210.641 133.417 210.641 134.292C210.641 135.167 210.849 135.844 211.265 136.324C211.692 136.804 212.268 137.044 212.993 137.044ZM222.858 138.644C222.143 138.644 221.519 138.479 220.986 138.148C220.453 137.817 220.037 137.337 219.738 136.708C219.45 136.079 219.306 135.332 219.306 134.468C219.306 133.593 219.45 132.847 219.738 132.228C220.037 131.609 220.453 131.135 220.986 130.804C221.519 130.463 222.143 130.292 222.858 130.292C223.562 130.292 224.175 130.468 224.698 130.82C225.221 131.172 225.567 131.652 225.738 132.26H225.562L225.722 130.436H227.29C227.258 130.767 227.226 131.097 227.194 131.428C227.173 131.748 227.162 132.063 227.162 132.372V138.5H225.546V136.708H225.722C225.551 137.305 225.199 137.78 224.666 138.132C224.143 138.473 223.541 138.644 222.858 138.644ZM223.258 137.38C223.951 137.38 224.506 137.135 224.922 136.644C225.349 136.153 225.562 135.428 225.562 134.468C225.562 133.508 225.349 132.788 224.922 132.308C224.506 131.817 223.951 131.572 223.258 131.572C222.554 131.572 221.989 131.817 221.562 132.308C221.146 132.788 220.938 133.508 220.938 134.468C220.938 135.428 221.146 136.153 221.562 136.644C221.978 137.135 222.543 137.38 223.258 137.38ZM233.652 142.084C232.927 142.084 232.265 141.999 231.668 141.828C231.081 141.657 230.553 141.401 230.084 141.06L230.484 139.876C230.815 140.1 231.14 140.276 231.46 140.404C231.78 140.543 232.116 140.644 232.468 140.708C232.82 140.772 233.183 140.804 233.556 140.804C234.324 140.804 234.9 140.607 235.284 140.212C235.679 139.828 235.876 139.268 235.876 138.532V136.372H236.036C235.865 136.969 235.513 137.444 234.98 137.796C234.457 138.137 233.849 138.308 233.156 138.308C232.42 138.308 231.78 138.148 231.236 137.828C230.703 137.497 230.287 137.033 229.988 136.436C229.7 135.828 229.556 135.113 229.556 134.292C229.556 133.471 229.7 132.761 229.988 132.164C230.287 131.567 230.703 131.108 231.236 130.788C231.78 130.457 232.42 130.292 233.156 130.292C233.86 130.292 234.468 130.468 234.98 130.82C235.503 131.161 235.849 131.631 236.02 132.228L235.876 132.1L236.02 130.436H237.588C237.545 130.767 237.513 131.097 237.492 131.428C237.471 131.748 237.46 132.063 237.46 132.372V138.34C237.46 139.556 237.135 140.484 236.484 141.124C235.844 141.764 234.9 142.084 233.652 142.084ZM233.54 137.044C234.244 137.044 234.804 136.804 235.22 136.324C235.647 135.844 235.86 135.167 235.86 134.292C235.86 133.417 235.647 132.745 235.22 132.276C234.804 131.807 234.244 131.572 233.54 131.572C232.815 131.572 232.239 131.807 231.812 132.276C231.396 132.745 231.188 133.417 231.188 134.292C231.188 135.167 231.396 135.844 231.812 136.324C232.239 136.804 232.815 137.044 233.54 137.044ZM244.045 138.644C242.743 138.644 241.719 138.276 240.973 137.54C240.226 136.804 239.853 135.785 239.853 134.484C239.853 133.641 240.013 132.905 240.333 132.276C240.663 131.647 241.117 131.161 241.693 130.82C242.279 130.468 242.957 130.292 243.725 130.292C244.482 130.292 245.117 130.452 245.629 130.772C246.141 131.092 246.53 131.545 246.797 132.132C247.063 132.708 247.197 133.391 247.197 134.18V134.692H241.117V133.764H246.093L245.821 133.972C245.821 133.172 245.639 132.553 245.277 132.116C244.925 131.668 244.413 131.444 243.741 131.444C242.994 131.444 242.418 131.705 242.013 132.228C241.607 132.74 241.405 133.449 241.405 134.356V134.516C241.405 135.465 241.634 136.18 242.093 136.66C242.562 137.14 243.223 137.38 244.077 137.38C244.546 137.38 244.983 137.316 245.389 137.188C245.805 137.049 246.199 136.825 246.573 136.516L247.101 137.62C246.727 137.951 246.274 138.207 245.741 138.388C245.207 138.559 244.642 138.644 244.045 138.644ZM249.551 138.5V132.372C249.551 132.063 249.535 131.748 249.503 131.428C249.482 131.097 249.455 130.767 249.423 130.436H250.991L251.135 132.132H250.943C251.167 131.545 251.509 131.092 251.967 130.772C252.437 130.452 252.997 130.292 253.647 130.292C254.309 130.292 254.847 130.452 255.263 130.772C255.69 131.081 255.983 131.561 256.143 132.212H255.887C256.101 131.625 256.463 131.161 256.975 130.82C257.487 130.468 258.079 130.292 258.751 130.292C259.647 130.292 260.319 130.553 260.767 131.076C261.215 131.599 261.439 132.409 261.439 133.508V138.5H259.823V133.588C259.823 132.884 259.701 132.377 259.455 132.068C259.221 131.748 258.837 131.588 258.303 131.588C257.685 131.588 257.194 131.801 256.831 132.228C256.469 132.655 256.287 133.231 256.287 133.956V138.5H254.671V133.588C254.671 132.884 254.549 132.377 254.303 132.068C254.069 131.748 253.685 131.588 253.151 131.588C252.533 131.588 252.047 131.801 251.695 132.228C251.343 132.655 251.167 133.231 251.167 133.956V138.5H249.551ZM267.982 138.644C266.681 138.644 265.657 138.276 264.91 137.54C264.164 136.804 263.79 135.785 263.79 134.484C263.79 133.641 263.95 132.905 264.27 132.276C264.601 131.647 265.054 131.161 265.63 130.82C266.217 130.468 266.894 130.292 267.662 130.292C268.42 130.292 269.054 130.452 269.566 130.772C270.078 131.092 270.468 131.545 270.734 132.132C271.001 132.708 271.134 133.391 271.134 134.18V134.692H265.054V133.764H270.03L269.758 133.972C269.758 133.172 269.577 132.553 269.214 132.116C268.862 131.668 268.35 131.444 267.678 131.444C266.932 131.444 266.356 131.705 265.95 132.228C265.545 132.74 265.342 133.449 265.342 134.356V134.516C265.342 135.465 265.572 136.18 266.03 136.66C266.5 137.14 267.161 137.38 268.014 137.38C268.484 137.38 268.921 137.316 269.326 137.188C269.742 137.049 270.137 136.825 270.51 136.516L271.038 137.62C270.665 137.951 270.212 138.207 269.678 138.388C269.145 138.559 268.58 138.644 267.982 138.644ZM273.489 138.5V132.372C273.489 132.063 273.473 131.748 273.441 131.428C273.419 131.097 273.393 130.767 273.361 130.436H274.929L275.073 132.132H274.881C275.126 131.535 275.505 131.081 276.017 130.772C276.529 130.452 277.121 130.292 277.793 130.292C278.742 130.292 279.457 130.553 279.937 131.076C280.427 131.599 280.673 132.409 280.673 133.508V138.5H279.057V133.604C279.057 132.889 278.913 132.377 278.625 132.068C278.347 131.748 277.921 131.588 277.345 131.588C276.662 131.588 276.118 131.801 275.713 132.228C275.307 132.644 275.105 133.209 275.105 133.924V138.5H273.489ZM286.609 138.644C285.734 138.644 285.073 138.409 284.625 137.94C284.177 137.46 283.953 136.745 283.953 135.796V131.684H282.385V130.436H283.953V128.308L285.569 127.876V130.436H287.809V131.684H285.569V135.652C285.569 136.249 285.676 136.676 285.889 136.932C286.102 137.188 286.412 137.316 286.817 137.316C287.02 137.316 287.196 137.3 287.345 137.268C287.505 137.225 287.649 137.177 287.777 137.124V138.436C287.617 138.5 287.43 138.548 287.217 138.58C287.004 138.623 286.801 138.644 286.609 138.644ZM294.551 138.5V132.372C294.551 132.063 294.535 131.748 294.503 131.428C294.482 131.097 294.455 130.767 294.423 130.436H295.991L296.135 132.132H295.943C296.167 131.545 296.509 131.092 296.967 130.772C297.437 130.452 297.997 130.292 298.647 130.292C299.309 130.292 299.847 130.452 300.263 130.772C300.69 131.081 300.983 131.561 301.143 132.212H300.887C301.101 131.625 301.463 131.161 301.975 130.82C302.487 130.468 303.079 130.292 303.751 130.292C304.647 130.292 305.319 130.553 305.767 131.076C306.215 131.599 306.439 132.409 306.439 133.508V138.5H304.823V133.588C304.823 132.884 304.701 132.377 304.455 132.068C304.221 131.748 303.837 131.588 303.303 131.588C302.685 131.588 302.194 131.801 301.831 132.228C301.469 132.655 301.287 133.231 301.287 133.956V138.5H299.671V133.588C299.671 132.884 299.549 132.377 299.303 132.068C299.069 131.748 298.685 131.588 298.151 131.588C297.533 131.588 297.047 131.801 296.695 132.228C296.343 132.655 296.167 133.231 296.167 133.956V138.5H294.551ZM312.982 138.644C311.681 138.644 310.657 138.276 309.91 137.54C309.164 136.804 308.79 135.785 308.79 134.484C308.79 133.641 308.95 132.905 309.27 132.276C309.601 131.647 310.054 131.161 310.63 130.82C311.217 130.468 311.894 130.292 312.662 130.292C313.42 130.292 314.054 130.452 314.566 130.772C315.078 131.092 315.468 131.545 315.734 132.132C316.001 132.708 316.134 133.391 316.134 134.18V134.692H310.054V133.764H315.03L314.758 133.972C314.758 133.172 314.577 132.553 314.214 132.116C313.862 131.668 313.35 131.444 312.678 131.444C311.932 131.444 311.356 131.705 310.95 132.228C310.545 132.74 310.342 133.449 310.342 134.356V134.516C310.342 135.465 310.572 136.18 311.03 136.66C311.5 137.14 312.161 137.38 313.014 137.38C313.484 137.38 313.921 137.316 314.326 137.188C314.742 137.049 315.137 136.825 315.51 136.516L316.038 137.62C315.665 137.951 315.212 138.207 314.678 138.388C314.145 138.559 313.58 138.644 312.982 138.644ZM322.217 138.644C320.915 138.644 319.891 138.276 319.145 137.54C318.398 136.804 318.025 135.785 318.025 134.484C318.025 133.641 318.185 132.905 318.505 132.276C318.835 131.647 319.289 131.161 319.865 130.82C320.451 130.468 321.129 130.292 321.897 130.292C322.654 130.292 323.289 130.452 323.801 130.772C324.313 131.092 324.702 131.545 324.969 132.132C325.235 132.708 325.369 133.391 325.369 134.18V134.692H319.289V133.764H324.265L323.993 133.972C323.993 133.172 323.811 132.553 323.449 132.116C323.097 131.668 322.585 131.444 321.913 131.444C321.166 131.444 320.59 131.705 320.185 132.228C319.779 132.74 319.577 133.449 319.577 134.356V134.516C319.577 135.465 319.806 136.18 320.265 136.66C320.734 137.14 321.395 137.38 322.249 137.38C322.718 137.38 323.155 137.316 323.561 137.188C323.977 137.049 324.371 136.825 324.745 136.516L325.273 137.62C324.899 137.951 324.446 138.207 323.913 138.388C323.379 138.559 322.814 138.644 322.217 138.644ZM330.843 138.644C329.969 138.644 329.307 138.409 328.859 137.94C328.411 137.46 328.187 136.745 328.187 135.796V131.684H326.619V130.436H328.187V128.308L329.803 127.876V130.436H332.043V131.684H329.803V135.652C329.803 136.249 329.91 136.676 330.123 136.932C330.337 137.188 330.646 137.316 331.051 137.316C331.254 137.316 331.43 137.3 331.579 137.268C331.739 137.225 331.883 137.177 332.011 137.124V138.436C331.851 138.5 331.665 138.548 331.451 138.58C331.238 138.623 331.035 138.644 330.843 138.644ZM341.922 138.644C341.047 138.644 340.386 138.409 339.938 137.94C339.49 137.46 339.266 136.745 339.266 135.796V131.684H337.698V130.436H339.266V128.308L340.882 127.876V130.436H343.122V131.684H340.882V135.652C340.882 136.249 340.988 136.676 341.202 136.932C341.415 137.188 341.724 137.316 342.13 137.316C342.332 137.316 342.508 137.3 342.658 137.268C342.818 137.225 342.962 137.177 343.09 137.124V138.436C342.93 138.5 342.743 138.548 342.53 138.58C342.316 138.623 342.114 138.644 341.922 138.644ZM348.476 138.644C347.676 138.644 346.983 138.479 346.396 138.148C345.809 137.807 345.356 137.327 345.036 136.708C344.716 136.079 344.556 135.332 344.556 134.468C344.556 133.604 344.716 132.863 345.036 132.244C345.356 131.615 345.809 131.135 346.396 130.804C346.983 130.463 347.676 130.292 348.476 130.292C349.276 130.292 349.969 130.463 350.556 130.804C351.153 131.135 351.612 131.615 351.932 132.244C352.263 132.863 352.428 133.604 352.428 134.468C352.428 135.332 352.263 136.079 351.932 136.708C351.612 137.327 351.153 137.807 350.556 138.148C349.969 138.479 349.276 138.644 348.476 138.644ZM348.476 137.38C349.18 137.38 349.74 137.135 350.156 136.644C350.572 136.153 350.78 135.428 350.78 134.468C350.78 133.508 350.572 132.788 350.156 132.308C349.74 131.817 349.18 131.572 348.476 131.572C347.783 131.572 347.228 131.817 346.812 132.308C346.396 132.788 346.188 133.508 346.188 134.468C346.188 135.428 346.391 136.153 346.796 136.644C347.212 137.135 347.772 137.38 348.476 137.38ZM139.215 162.5V154.436H140.831V162.5H139.215ZM139.087 152.756V151.076H140.959V152.756H139.087ZM143.7 162.5V156.372C143.7 156.063 143.684 155.748 143.652 155.428C143.63 155.097 143.604 154.767 143.572 154.436H145.14L145.284 156.132H145.092C145.337 155.535 145.716 155.081 146.228 154.772C146.74 154.452 147.332 154.292 148.004 154.292C148.953 154.292 149.668 154.553 150.148 155.076C150.638 155.599 150.884 156.409 150.884 157.508V162.5H149.268V157.604C149.268 156.889 149.124 156.377 148.836 156.068C148.558 155.748 148.132 155.588 147.556 155.588C146.873 155.588 146.329 155.801 145.924 156.228C145.518 156.644 145.316 157.209 145.316 157.924V162.5H143.7ZM157.22 162.644C156.409 162.644 155.7 162.479 155.092 162.148C154.495 161.807 154.031 161.321 153.7 160.692C153.38 160.052 153.22 159.295 153.22 158.42C153.22 157.556 153.385 156.815 153.716 156.196C154.047 155.577 154.511 155.108 155.108 154.788C155.705 154.457 156.409 154.292 157.22 154.292C157.743 154.292 158.249 154.383 158.74 154.564C159.231 154.735 159.636 154.98 159.956 155.3L159.428 156.436C159.129 156.148 158.793 155.935 158.42 155.796C158.047 155.647 157.684 155.572 157.332 155.572C156.564 155.572 155.961 155.817 155.524 156.308C155.087 156.799 154.868 157.508 154.868 158.436C154.868 159.375 155.087 160.095 155.524 160.596C155.961 161.097 156.564 161.348 157.332 161.348C157.673 161.348 158.031 161.284 158.404 161.156C158.777 161.017 159.119 160.799 159.428 160.5L159.956 161.636C159.625 161.956 159.209 162.207 158.708 162.388C158.217 162.559 157.721 162.644 157.22 162.644ZM162.136 162.5V156.436C162.136 156.105 162.126 155.775 162.104 155.444C162.094 155.103 162.072 154.767 162.04 154.436H163.608L163.784 156.516H163.528C163.635 156.015 163.816 155.599 164.072 155.268C164.328 154.937 164.638 154.692 165 154.532C165.374 154.372 165.763 154.292 166.168 154.292C166.339 154.292 166.483 154.303 166.6 154.324C166.718 154.335 166.835 154.356 166.952 154.388L166.936 155.828C166.755 155.753 166.595 155.711 166.456 155.7C166.328 155.679 166.168 155.668 165.976 155.668C165.507 155.668 165.107 155.775 164.776 155.988C164.446 156.191 164.195 156.468 164.024 156.82C163.854 157.172 163.768 157.551 163.768 157.956V162.5H162.136ZM172.318 162.644C171.017 162.644 169.993 162.276 169.246 161.54C168.5 160.804 168.126 159.785 168.126 158.484C168.126 157.641 168.286 156.905 168.606 156.276C168.937 155.647 169.39 155.161 169.966 154.82C170.553 154.468 171.23 154.292 171.998 154.292C172.756 154.292 173.39 154.452 173.902 154.772C174.414 155.092 174.804 155.545 175.07 156.132C175.337 156.708 175.47 157.391 175.47 158.18V158.692H169.39V157.764H174.366L174.094 157.972C174.094 157.172 173.913 156.553 173.55 156.116C173.198 155.668 172.686 155.444 172.014 155.444C171.268 155.444 170.692 155.705 170.286 156.228C169.881 156.74 169.678 157.449 169.678 158.356V158.516C169.678 159.465 169.908 160.18 170.366 160.66C170.836 161.14 171.497 161.38 172.35 161.38C172.82 161.38 173.257 161.316 173.662 161.188C174.078 161.049 174.473 160.825 174.846 160.516L175.374 161.62C175.001 161.951 174.548 162.207 174.014 162.388C173.481 162.559 172.916 162.644 172.318 162.644ZM180.913 162.644C180.198 162.644 179.574 162.479 179.041 162.148C178.507 161.817 178.091 161.337 177.793 160.708C177.505 160.079 177.361 159.332 177.361 158.468C177.361 157.593 177.505 156.847 177.793 156.228C178.091 155.609 178.507 155.135 179.041 154.804C179.574 154.463 180.198 154.292 180.913 154.292C181.617 154.292 182.23 154.468 182.753 154.82C183.275 155.172 183.622 155.652 183.793 156.26H183.617L183.777 154.436H185.345C185.313 154.767 185.281 155.097 185.249 155.428C185.227 155.748 185.217 156.063 185.217 156.372V162.5H183.601V160.708H183.777C183.606 161.305 183.254 161.78 182.721 162.132C182.198 162.473 181.595 162.644 180.913 162.644ZM181.313 161.38C182.006 161.38 182.561 161.135 182.977 160.644C183.403 160.153 183.617 159.428 183.617 158.468C183.617 157.508 183.403 156.788 182.977 156.308C182.561 155.817 182.006 155.572 181.313 155.572C180.609 155.572 180.043 155.817 179.617 156.308C179.201 156.788 178.993 157.508 178.993 158.468C178.993 159.428 179.201 160.153 179.617 160.644C180.033 161.135 180.598 161.38 181.313 161.38ZM190.843 162.644C190.171 162.644 189.552 162.559 188.987 162.388C188.421 162.217 187.952 161.977 187.579 161.668L188.075 160.564C188.469 160.863 188.907 161.087 189.387 161.236C189.867 161.385 190.357 161.46 190.859 161.46C191.445 161.46 191.888 161.359 192.187 161.156C192.485 160.943 192.635 160.655 192.635 160.292C192.635 160.015 192.539 159.791 192.347 159.62C192.165 159.449 191.861 159.321 191.435 159.236L189.899 158.932C189.216 158.783 188.699 158.527 188.347 158.164C187.995 157.801 187.819 157.337 187.819 156.772C187.819 156.292 187.947 155.865 188.203 155.492C188.469 155.119 188.843 154.825 189.323 154.612C189.813 154.399 190.384 154.292 191.035 154.292C191.632 154.292 192.187 154.377 192.699 154.548C193.211 154.719 193.637 154.964 193.979 155.284L193.467 156.356C193.136 156.079 192.763 155.865 192.347 155.716C191.931 155.556 191.509 155.476 191.083 155.476C190.485 155.476 190.043 155.588 189.755 155.812C189.467 156.036 189.323 156.329 189.323 156.692C189.323 156.969 189.408 157.199 189.579 157.38C189.76 157.551 190.043 157.684 190.427 157.78L191.963 158.084C192.688 158.233 193.232 158.479 193.595 158.82C193.957 159.161 194.139 159.62 194.139 160.196C194.139 160.697 194 161.135 193.723 161.508C193.445 161.881 193.061 162.164 192.571 162.356C192.08 162.548 191.504 162.644 190.843 162.644ZM200.271 162.644C198.97 162.644 197.946 162.276 197.199 161.54C196.453 160.804 196.079 159.785 196.079 158.484C196.079 157.641 196.239 156.905 196.559 156.276C196.89 155.647 197.343 155.161 197.919 154.82C198.506 154.468 199.183 154.292 199.951 154.292C200.709 154.292 201.343 154.452 201.855 154.772C202.367 155.092 202.757 155.545 203.023 156.132C203.29 156.708 203.423 157.391 203.423 158.18V158.692H197.343V157.764H202.319L202.047 157.972C202.047 157.172 201.866 156.553 201.503 156.116C201.151 155.668 200.639 155.444 199.967 155.444C199.221 155.444 198.645 155.705 198.239 156.228C197.834 156.74 197.631 157.449 197.631 158.356V158.516C197.631 159.465 197.861 160.18 198.319 160.66C198.789 161.14 199.45 161.38 200.303 161.38C200.773 161.38 201.21 161.316 201.615 161.188C202.031 161.049 202.426 160.825 202.799 160.516L203.327 161.62C202.954 161.951 202.501 162.207 201.967 162.388C201.434 162.559 200.869 162.644 200.271 162.644ZM213.631 162.644C212.917 162.644 212.293 162.479 211.759 162.148C211.226 161.817 210.81 161.337 210.511 160.708C210.223 160.079 210.079 159.332 210.079 158.468C210.079 157.593 210.223 156.847 210.511 156.228C210.81 155.609 211.226 155.135 211.759 154.804C212.293 154.463 212.917 154.292 213.631 154.292C214.335 154.292 214.949 154.468 215.471 154.82C215.994 155.172 216.341 155.652 216.511 156.26H216.335L216.495 154.436H218.063C218.031 154.767 217.999 155.097 217.967 155.428C217.946 155.748 217.935 156.063 217.935 156.372V162.5H216.319V160.708H216.495C216.325 161.305 215.973 161.78 215.439 162.132C214.917 162.473 214.314 162.644 213.631 162.644ZM214.031 161.38C214.725 161.38 215.279 161.135 215.695 160.644C216.122 160.153 216.335 159.428 216.335 158.468C216.335 157.508 216.122 156.788 215.695 156.308C215.279 155.817 214.725 155.572 214.031 155.572C213.327 155.572 212.762 155.817 212.335 156.308C211.919 156.788 211.711 157.508 211.711 158.468C211.711 159.428 211.919 160.153 212.335 160.644C212.751 161.135 213.317 161.38 214.031 161.38ZM220.761 162.5V156.436C220.761 156.105 220.751 155.775 220.729 155.444C220.719 155.103 220.697 154.767 220.665 154.436H222.233L222.409 156.516H222.153C222.26 156.015 222.441 155.599 222.697 155.268C222.953 154.937 223.263 154.692 223.625 154.532C223.999 154.372 224.388 154.292 224.793 154.292C224.964 154.292 225.108 154.303 225.225 154.324C225.343 154.335 225.46 154.356 225.577 154.388L225.561 155.828C225.38 155.753 225.22 155.711 225.081 155.7C224.953 155.679 224.793 155.668 224.601 155.668C224.132 155.668 223.732 155.775 223.401 155.988C223.071 156.191 222.82 156.468 222.649 156.82C222.479 157.172 222.393 157.551 222.393 157.956V162.5H220.761ZM230.898 162.644C230.023 162.644 229.362 162.409 228.914 161.94C228.466 161.46 228.242 160.745 228.242 159.796V155.684H226.674V154.436H228.242V152.308L229.858 151.876V154.436H232.098V155.684H229.858V159.652C229.858 160.249 229.965 160.676 230.178 160.932C230.391 161.188 230.701 161.316 231.106 161.316C231.309 161.316 231.485 161.3 231.634 161.268C231.794 161.225 231.938 161.177 232.066 161.124V162.436C231.906 162.5 231.719 162.548 231.506 162.58C231.293 162.623 231.09 162.644 230.898 162.644ZM241.928 162.644C241.214 162.644 240.59 162.479 240.056 162.148C239.523 161.817 239.107 161.337 238.808 160.708C238.52 160.079 238.376 159.332 238.376 158.468C238.376 157.593 238.52 156.847 238.808 156.228C239.107 155.609 239.523 155.135 240.056 154.804C240.59 154.463 241.214 154.292 241.928 154.292C242.632 154.292 243.246 154.468 243.768 154.82C244.291 155.172 244.638 155.652 244.808 156.26H244.632L244.792 154.436H246.36C246.328 154.767 246.296 155.097 246.264 155.428C246.243 155.748 246.232 156.063 246.232 156.372V162.5H244.616V160.708H244.792C244.622 161.305 244.27 161.78 243.736 162.132C243.214 162.473 242.611 162.644 241.928 162.644ZM242.328 161.38C243.022 161.38 243.576 161.135 243.992 160.644C244.419 160.153 244.632 159.428 244.632 158.468C244.632 157.508 244.419 156.788 243.992 156.308C243.576 155.817 243.022 155.572 242.328 155.572C241.624 155.572 241.059 155.817 240.632 156.308C240.216 156.788 240.008 157.508 240.008 158.468C240.008 159.428 240.216 160.153 240.632 160.644C241.048 161.135 241.614 161.38 242.328 161.38ZM252.626 162.644C251.816 162.644 251.106 162.479 250.498 162.148C249.901 161.807 249.437 161.321 249.106 160.692C248.786 160.052 248.626 159.295 248.626 158.42C248.626 157.556 248.792 156.815 249.122 156.196C249.453 155.577 249.917 155.108 250.514 154.788C251.112 154.457 251.816 154.292 252.626 154.292C253.149 154.292 253.656 154.383 254.146 154.564C254.637 154.735 255.042 154.98 255.362 155.3L254.834 156.436C254.536 156.148 254.2 155.935 253.826 155.796C253.453 155.647 253.09 155.572 252.738 155.572C251.97 155.572 251.368 155.817 250.93 156.308C250.493 156.799 250.274 157.508 250.274 158.436C250.274 159.375 250.493 160.095 250.93 160.596C251.368 161.097 251.97 161.348 252.738 161.348C253.08 161.348 253.437 161.284 253.81 161.156C254.184 161.017 254.525 160.799 254.834 160.5L255.362 161.636C255.032 161.956 254.616 162.207 254.114 162.388C253.624 162.559 253.128 162.644 252.626 162.644ZM260.954 162.644C260.144 162.644 259.434 162.479 258.826 162.148C258.229 161.807 257.765 161.321 257.434 160.692C257.114 160.052 256.954 159.295 256.954 158.42C256.954 157.556 257.12 156.815 257.45 156.196C257.781 155.577 258.245 155.108 258.842 154.788C259.44 154.457 260.144 154.292 260.954 154.292C261.477 154.292 261.984 154.383 262.474 154.564C262.965 154.735 263.37 154.98 263.69 155.3L263.162 156.436C262.864 156.148 262.528 155.935 262.154 155.796C261.781 155.647 261.418 155.572 261.066 155.572C260.298 155.572 259.696 155.817 259.258 156.308C258.821 156.799 258.602 157.508 258.602 158.436C258.602 159.375 258.821 160.095 259.258 160.596C259.696 161.097 260.298 161.348 261.066 161.348C261.408 161.348 261.765 161.284 262.138 161.156C262.512 161.017 262.853 160.799 263.162 160.5L263.69 161.636C263.36 161.956 262.944 162.207 262.442 162.388C261.952 162.559 261.456 162.644 260.954 162.644ZM269.475 162.644C268.173 162.644 267.149 162.276 266.403 161.54C265.656 160.804 265.283 159.785 265.283 158.484C265.283 157.641 265.443 156.905 265.763 156.276C266.093 155.647 266.547 155.161 267.123 154.82C267.709 154.468 268.387 154.292 269.155 154.292C269.912 154.292 270.547 154.452 271.059 154.772C271.571 155.092 271.96 155.545 272.227 156.132C272.493 156.708 272.627 157.391 272.627 158.18V158.692H266.547V157.764H271.523L271.251 157.972C271.251 157.172 271.069 156.553 270.707 156.116C270.355 155.668 269.843 155.444 269.171 155.444C268.424 155.444 267.848 155.705 267.443 156.228C267.037 156.74 266.835 157.449 266.835 158.356V158.516C266.835 159.465 267.064 160.18 267.523 160.66C267.992 161.14 268.653 161.38 269.507 161.38C269.976 161.38 270.413 161.316 270.819 161.188C271.235 161.049 271.629 160.825 272.003 160.516L272.531 161.62C272.157 161.951 271.704 162.207 271.171 162.388C270.637 162.559 270.072 162.644 269.475 162.644ZM277.749 162.644C277.077 162.644 276.458 162.559 275.893 162.388C275.328 162.217 274.858 161.977 274.485 161.668L274.981 160.564C275.376 160.863 275.813 161.087 276.293 161.236C276.773 161.385 277.264 161.46 277.765 161.46C278.352 161.46 278.794 161.359 279.093 161.156C279.392 160.943 279.541 160.655 279.541 160.292C279.541 160.015 279.445 159.791 279.253 159.62C279.072 159.449 278.768 159.321 278.341 159.236L276.805 158.932C276.122 158.783 275.605 158.527 275.253 158.164C274.901 157.801 274.725 157.337 274.725 156.772C274.725 156.292 274.853 155.865 275.109 155.492C275.376 155.119 275.749 154.825 276.229 154.612C276.72 154.399 277.29 154.292 277.941 154.292C278.538 154.292 279.093 154.377 279.605 154.548C280.117 154.719 280.544 154.964 280.885 155.284L280.373 156.356C280.042 156.079 279.669 155.865 279.253 155.716C278.837 155.556 278.416 155.476 277.989 155.476C277.392 155.476 276.949 155.588 276.661 155.812C276.373 156.036 276.229 156.329 276.229 156.692C276.229 156.969 276.314 157.199 276.485 157.38C276.666 157.551 276.949 157.684 277.333 157.78L278.869 158.084C279.594 158.233 280.138 158.479 280.501 158.82C280.864 159.161 281.045 159.62 281.045 160.196C281.045 160.697 280.906 161.135 280.629 161.508C280.352 161.881 279.968 162.164 279.477 162.356C278.986 162.548 278.41 162.644 277.749 162.644ZM286.218 162.644C285.546 162.644 284.927 162.559 284.362 162.388C283.796 162.217 283.327 161.977 282.954 161.668L283.45 160.564C283.844 160.863 284.282 161.087 284.762 161.236C285.242 161.385 285.732 161.46 286.234 161.46C286.82 161.46 287.263 161.359 287.562 161.156C287.86 160.943 288.01 160.655 288.01 160.292C288.01 160.015 287.914 159.791 287.722 159.62C287.54 159.449 287.236 159.321 286.81 159.236L285.274 158.932C284.591 158.783 284.074 158.527 283.722 158.164C283.37 157.801 283.194 157.337 283.194 156.772C283.194 156.292 283.322 155.865 283.578 155.492C283.844 155.119 284.218 154.825 284.698 154.612C285.188 154.399 285.759 154.292 286.41 154.292C287.007 154.292 287.562 154.377 288.074 154.548C288.586 154.719 289.012 154.964 289.354 155.284L288.842 156.356C288.511 156.079 288.138 155.865 287.722 155.716C287.306 155.556 286.884 155.476 286.458 155.476C285.86 155.476 285.418 155.588 285.13 155.812C284.842 156.036 284.698 156.329 284.698 156.692C284.698 156.969 284.783 157.199 284.954 157.38C285.135 157.551 285.418 157.684 285.802 157.78L287.338 158.084C288.063 158.233 288.607 158.479 288.97 158.82C289.332 159.161 289.514 159.62 289.514 160.196C289.514 160.697 289.375 161.135 289.098 161.508C288.82 161.881 288.436 162.164 287.946 162.356C287.455 162.548 286.879 162.644 286.218 162.644ZM296.684 162.5V154.436H298.3V162.5H296.684ZM296.556 152.756V151.076H298.428V152.756H296.556ZM301.168 162.5V156.372C301.168 156.063 301.152 155.748 301.12 155.428C301.099 155.097 301.072 154.767 301.04 154.436H302.608L302.752 156.132H302.56C302.806 155.535 303.184 155.081 303.696 154.772C304.208 154.452 304.8 154.292 305.472 154.292C306.422 154.292 307.136 154.553 307.616 155.076C308.107 155.599 308.352 156.409 308.352 157.508V162.5H306.736V157.604C306.736 156.889 306.592 156.377 306.304 156.068C306.027 155.748 305.6 155.588 305.024 155.588C304.342 155.588 303.798 155.801 303.392 156.228C302.987 156.644 302.784 157.209 302.784 157.924V162.5H301.168ZM160.817 186.5V180.372C160.817 180.063 160.801 179.748 160.769 179.428C160.747 179.097 160.721 178.767 160.689 178.436H162.257L162.401 180.132H162.209C162.454 179.535 162.833 179.081 163.345 178.772C163.857 178.452 164.449 178.292 165.121 178.292C166.07 178.292 166.785 178.553 167.265 179.076C167.755 179.599 168.001 180.409 168.001 181.508V186.5H166.385V181.604C166.385 180.889 166.241 180.377 165.953 180.068C165.675 179.748 165.249 179.588 164.673 179.588C163.99 179.588 163.446 179.801 163.041 180.228C162.635 180.644 162.433 181.209 162.433 181.924V186.5H160.817ZM174.529 186.644C173.228 186.644 172.204 186.276 171.457 185.54C170.711 184.804 170.337 183.785 170.337 182.484C170.337 181.641 170.497 180.905 170.817 180.276C171.148 179.647 171.601 179.161 172.177 178.82C172.764 178.468 173.441 178.292 174.209 178.292C174.967 178.292 175.601 178.452 176.113 178.772C176.625 179.092 177.015 179.545 177.281 180.132C177.548 180.708 177.681 181.391 177.681 182.18V182.692H171.601V181.764H176.577L176.305 181.972C176.305 181.172 176.124 180.553 175.761 180.116C175.409 179.668 174.897 179.444 174.225 179.444C173.479 179.444 172.903 179.705 172.497 180.228C172.092 180.74 171.889 181.449 171.889 182.356V182.516C171.889 183.465 172.119 184.18 172.577 184.66C173.047 185.14 173.708 185.38 174.561 185.38C175.031 185.38 175.468 185.316 175.873 185.188C176.289 185.049 176.684 184.825 177.057 184.516L177.585 185.62C177.212 185.951 176.759 186.207 176.225 186.388C175.692 186.559 175.127 186.644 174.529 186.644ZM180.036 186.5V178.436H181.652V186.5H180.036ZM179.908 176.756V175.076H181.78V176.756H179.908ZM188.152 190.084C187.427 190.084 186.765 189.999 186.168 189.828C185.581 189.657 185.053 189.401 184.584 189.06L184.984 187.876C185.315 188.1 185.64 188.276 185.96 188.404C186.28 188.543 186.616 188.644 186.968 188.708C187.32 188.772 187.683 188.804 188.056 188.804C188.824 188.804 189.4 188.607 189.784 188.212C190.179 187.828 190.376 187.268 190.376 186.532V184.372H190.536C190.365 184.969 190.013 185.444 189.48 185.796C188.957 186.137 188.349 186.308 187.656 186.308C186.92 186.308 186.28 186.148 185.736 185.828C185.203 185.497 184.787 185.033 184.488 184.436C184.2 183.828 184.056 183.113 184.056 182.292C184.056 181.471 184.2 180.761 184.488 180.164C184.787 179.567 185.203 179.108 185.736 178.788C186.28 178.457 186.92 178.292 187.656 178.292C188.36 178.292 188.968 178.468 189.48 178.82C190.003 179.161 190.349 179.631 190.52 180.228L190.376 180.1L190.52 178.436H192.088C192.045 178.767 192.013 179.097 191.992 179.428C191.971 179.748 191.96 180.063 191.96 180.372V186.34C191.96 187.556 191.635 188.484 190.984 189.124C190.344 189.764 189.4 190.084 188.152 190.084ZM188.04 185.044C188.744 185.044 189.304 184.804 189.72 184.324C190.147 183.844 190.36 183.167 190.36 182.292C190.36 181.417 190.147 180.745 189.72 180.276C189.304 179.807 188.744 179.572 188.04 179.572C187.315 179.572 186.739 179.807 186.312 180.276C185.896 180.745 185.688 181.417 185.688 182.292C185.688 183.167 185.896 183.844 186.312 184.324C186.739 184.804 187.315 185.044 188.04 185.044ZM194.817 186.5V174.724H196.433V180.148H196.209C196.443 179.54 196.822 179.081 197.345 178.772C197.867 178.452 198.47 178.292 199.153 178.292C200.113 178.292 200.827 178.559 201.297 179.092C201.766 179.615 202.001 180.409 202.001 181.476V186.5H200.385V181.572C200.385 180.879 200.246 180.377 199.969 180.068C199.702 179.748 199.275 179.588 198.689 179.588C198.006 179.588 197.457 179.801 197.041 180.228C196.635 180.644 196.433 181.199 196.433 181.892V186.5H194.817ZM209.105 186.644C208.401 186.644 207.788 186.468 207.265 186.116C206.743 185.764 206.396 185.284 206.225 184.676H206.401V186.5H204.801V174.724H206.417V180.228H206.225C206.407 179.631 206.753 179.161 207.265 178.82C207.788 178.468 208.401 178.292 209.105 178.292C209.82 178.292 210.444 178.463 210.977 178.804C211.511 179.135 211.921 179.615 212.209 180.244C212.508 180.863 212.657 181.609 212.657 182.484C212.657 183.348 212.508 184.095 212.209 184.724C211.921 185.343 211.505 185.817 210.961 186.148C210.428 186.479 209.809 186.644 209.105 186.644ZM208.705 185.38C209.399 185.38 209.959 185.14 210.385 184.66C210.812 184.169 211.025 183.444 211.025 182.484C211.025 181.513 210.812 180.788 210.385 180.308C209.959 179.817 209.399 179.572 208.705 179.572C208.001 179.572 207.436 179.817 207.009 180.308C206.593 180.788 206.385 181.508 206.385 182.468C206.385 183.428 206.593 184.153 207.009 184.644C207.436 185.135 208.001 185.38 208.705 185.38ZM218.507 186.644C217.707 186.644 217.014 186.479 216.427 186.148C215.841 185.807 215.387 185.327 215.067 184.708C214.747 184.079 214.587 183.332 214.587 182.468C214.587 181.604 214.747 180.863 215.067 180.244C215.387 179.615 215.841 179.135 216.427 178.804C217.014 178.463 217.707 178.292 218.507 178.292C219.307 178.292 220.001 178.463 220.587 178.804C221.185 179.135 221.643 179.615 221.963 180.244C222.294 180.863 222.459 181.604 222.459 182.468C222.459 183.332 222.294 184.079 221.963 184.708C221.643 185.327 221.185 185.807 220.587 186.148C220.001 186.479 219.307 186.644 218.507 186.644ZM218.507 185.38C219.211 185.38 219.771 185.135 220.187 184.644C220.603 184.153 220.811 183.428 220.811 182.468C220.811 181.508 220.603 180.788 220.187 180.308C219.771 179.817 219.211 179.572 218.507 179.572C217.814 179.572 217.259 179.817 216.843 180.308C216.427 180.788 216.219 181.508 216.219 182.468C216.219 183.428 216.422 184.153 216.827 184.644C217.243 185.135 217.803 185.38 218.507 185.38ZM227.712 186.644C226.741 186.644 226.011 186.383 225.52 185.86C225.04 185.327 224.8 184.511 224.8 183.412V178.436H226.416V183.38C226.416 184.052 226.555 184.548 226.832 184.868C227.109 185.188 227.531 185.348 228.096 185.348C228.736 185.348 229.253 185.135 229.648 184.708C230.043 184.281 230.24 183.716 230.24 183.012V178.436H231.856V186.5H230.288V184.772H230.496C230.272 185.369 229.915 185.833 229.424 186.164C228.933 186.484 228.363 186.644 227.712 186.644ZM234.691 186.5V180.436C234.691 180.105 234.68 179.775 234.659 179.444C234.648 179.103 234.627 178.767 234.595 178.436H236.163L236.339 180.516H236.083C236.19 180.015 236.371 179.599 236.627 179.268C236.883 178.937 237.192 178.692 237.555 178.532C237.928 178.372 238.318 178.292 238.723 178.292C238.894 178.292 239.038 178.303 239.155 178.324C239.272 178.335 239.39 178.356 239.507 178.388L239.491 179.828C239.31 179.753 239.15 179.711 239.011 179.7C238.883 179.679 238.723 179.668 238.531 179.668C238.062 179.668 237.662 179.775 237.331 179.988C237 180.191 236.75 180.468 236.579 180.82C236.408 181.172 236.323 181.551 236.323 181.956V186.5H234.691ZM241.254 186.5V174.724H242.87V180.148H242.646C242.881 179.54 243.26 179.081 243.782 178.772C244.305 178.452 244.908 178.292 245.59 178.292C246.55 178.292 247.265 178.559 247.734 179.092C248.204 179.615 248.438 180.409 248.438 181.476V186.5H246.822V181.572C246.822 180.879 246.684 180.377 246.406 180.068C246.14 179.748 245.713 179.588 245.126 179.588C244.444 179.588 243.894 179.801 243.478 180.228C243.073 180.644 242.87 181.199 242.87 181.892V186.5H241.254ZM254.695 186.644C253.895 186.644 253.201 186.479 252.615 186.148C252.028 185.807 251.575 185.327 251.255 184.708C250.935 184.079 250.775 183.332 250.775 182.468C250.775 181.604 250.935 180.863 251.255 180.244C251.575 179.615 252.028 179.135 252.615 178.804C253.201 178.463 253.895 178.292 254.695 178.292C255.495 178.292 256.188 178.463 256.775 178.804C257.372 179.135 257.831 179.615 258.151 180.244C258.481 180.863 258.647 181.604 258.647 182.468C258.647 183.332 258.481 184.079 258.151 184.708C257.831 185.327 257.372 185.807 256.775 186.148C256.188 186.479 255.495 186.644 254.695 186.644ZM254.695 185.38C255.399 185.38 255.959 185.135 256.375 184.644C256.791 184.153 256.999 183.428 256.999 182.468C256.999 181.508 256.791 180.788 256.375 180.308C255.959 179.817 255.399 179.572 254.695 179.572C254.001 179.572 253.447 179.817 253.031 180.308C252.615 180.788 252.407 181.508 252.407 182.468C252.407 183.428 252.609 184.153 253.015 184.644C253.431 185.135 253.991 185.38 254.695 185.38ZM264.492 186.644C263.692 186.644 262.998 186.479 262.412 186.148C261.825 185.807 261.372 185.327 261.052 184.708C260.732 184.079 260.572 183.332 260.572 182.468C260.572 181.604 260.732 180.863 261.052 180.244C261.372 179.615 261.825 179.135 262.412 178.804C262.998 178.463 263.692 178.292 264.492 178.292C265.292 178.292 265.985 178.463 266.572 178.804C267.169 179.135 267.628 179.615 267.948 180.244C268.278 180.863 268.444 181.604 268.444 182.468C268.444 183.332 268.278 184.079 267.948 184.708C267.628 185.327 267.169 185.807 266.572 186.148C265.985 186.479 265.292 186.644 264.492 186.644ZM264.492 185.38C265.196 185.38 265.756 185.135 266.172 184.644C266.588 184.153 266.796 183.428 266.796 182.468C266.796 181.508 266.588 180.788 266.172 180.308C265.756 179.817 265.196 179.572 264.492 179.572C263.798 179.572 263.244 179.817 262.828 180.308C262.412 180.788 262.204 181.508 262.204 182.468C262.204 183.428 262.406 184.153 262.812 184.644C263.228 185.135 263.788 185.38 264.492 185.38ZM273.92 186.644C273.216 186.644 272.592 186.479 272.048 186.148C271.515 185.817 271.099 185.337 270.8 184.708C270.512 184.079 270.368 183.332 270.368 182.468C270.368 181.593 270.512 180.847 270.8 180.228C271.099 179.609 271.515 179.135 272.048 178.804C272.592 178.463 273.216 178.292 273.92 178.292C274.614 178.292 275.222 178.468 275.744 178.82C276.278 179.161 276.63 179.631 276.8 180.228H276.608V174.724H278.224V186.5H276.624V184.676H276.816C276.635 185.284 276.283 185.764 275.76 186.116C275.238 186.468 274.624 186.644 273.92 186.644ZM274.32 185.38C275.014 185.38 275.574 185.135 276 184.644C276.427 184.153 276.64 183.428 276.64 182.468C276.64 181.508 276.427 180.788 276 180.308C275.574 179.817 275.014 179.572 274.32 179.572C273.616 179.572 273.051 179.817 272.624 180.308C272.208 180.788 272 181.508 272 182.468C272 183.428 272.208 184.153 272.624 184.644C273.051 185.135 273.616 185.38 274.32 185.38ZM283.85 186.644C283.178 186.644 282.56 186.559 281.994 186.388C281.429 186.217 280.96 185.977 280.586 185.668L281.082 184.564C281.477 184.863 281.914 185.087 282.394 185.236C282.874 185.385 283.365 185.46 283.866 185.46C284.453 185.46 284.896 185.359 285.194 185.156C285.493 184.943 285.642 184.655 285.642 184.292C285.642 184.015 285.546 183.791 285.354 183.62C285.173 183.449 284.869 183.321 284.442 183.236L282.906 182.932C282.224 182.783 281.706 182.527 281.354 182.164C281.002 181.801 280.826 181.337 280.826 180.772C280.826 180.292 280.954 179.865 281.21 179.492C281.477 179.119 281.85 178.825 282.33 178.612C282.821 178.399 283.392 178.292 284.042 178.292C284.64 178.292 285.194 178.377 285.706 178.548C286.218 178.719 286.645 178.964 286.986 179.284L286.474 180.356C286.144 180.079 285.77 179.865 285.354 179.716C284.938 179.556 284.517 179.476 284.09 179.476C283.493 179.476 283.05 179.588 282.762 179.812C282.474 180.036 282.33 180.329 282.33 180.692C282.33 180.969 282.416 181.199 282.586 181.38C282.768 181.551 283.05 181.684 283.434 181.78L284.97 182.084C285.696 182.233 286.24 182.479 286.602 182.82C286.965 183.161 287.146 183.62 287.146 184.196C287.146 184.697 287.008 185.135 286.73 185.508C286.453 185.881 286.069 186.164 285.578 186.356C285.088 186.548 284.512 186.644 283.85 186.644Z" fill="#FF891C"/>
</svg>
